Logisoso-Regular.ufo
<glyph name="exclam" format="1">
  <advance width="260"/>
  <unicode hex="0021"/>
  <outline>
    <contour>
      <point x="94" y="699" type="qcurve" smooth="yes"/>
      <point x="165" y="699" type="line" smooth="yes"/>
      <point x="173" y="699"/>
      <point x="173" y="693" type="qcurve" smooth="yes"/>
      <point x="173" y="148" type="line" smooth="yes"/>
      <point x="173" y="141"/>
      <point x="165" y="141" type="qcurve" smooth="yes"/>
      <point x="94" y="141" type="line" smooth="yes"/>
      <point x="87" y="141"/>
      <point x="87" y="148" type="qcurve" smooth="yes"/>
      <point x="87" y="693" type="line" smooth="yes"/>
      <point x="87" y="699"/>
    </contour>
    <contour>
      <point x="147" y="84"/>
      <point x="171" y="60"/>
      <point x="171" y="24"/>
      <point x="147" y="0"/>
      <point x="112" y="0"/>
      <point x="87" y="24"/>
      <point x="87" y="60"/>
      <point x="112" y="84"/>
    </contour>
  </outline>
</glyph>
<glyph name="quotedbl" format="1">
  <advance width="450"/>
  <unicode hex="0022"/>
  <outline>
    <contour>
      <point x="279" y="576" type="line" smooth="yes"/>
      <point x="277" y="574"/>
      <point x="274" y="574" type="qcurve" smooth="yes"/>
      <point x="267" y="574" type="line" smooth="yes"/>
      <point x="262" y="574"/>
      <point x="262" y="579" type="qcurve" smooth="yes"/>
      <point x="262" y="616" type="line" smooth="yes"/>
      <point x="262" y="619"/>
      <point x="259" y="621" type="qcurve" smooth="yes"/>
      <point x="257" y="622" type="line"/>
      <point x="243" y="631"/>
      <point x="234" y="665"/>
      <point x="252" y="694"/>
      <point x="286" y="702"/>
      <point x="315" y="684"/>
      <point x="324" y="650"/>
      <point x="315" y="636" type="qcurve" smooth="yes"/>
    </contour>
    <contour>
      <point x="171" y="576" type="line" smooth="yes"/>
      <point x="169" y="574"/>
      <point x="166" y="574" type="qcurve" smooth="yes"/>
      <point x="159" y="574" type="line" smooth="yes"/>
      <point x="154" y="574"/>
      <point x="154" y="579" type="qcurve" smooth="yes"/>
      <point x="154" y="616" type="line" smooth="yes"/>
      <point x="154" y="619"/>
      <point x="151" y="621" type="qcurve" smooth="yes"/>
      <point x="149" y="622" type="line"/>
      <point x="135" y="631"/>
      <point x="126" y="665"/>
      <point x="144" y="694"/>
      <point x="178" y="702"/>
      <point x="207" y="684"/>
      <point x="216" y="650"/>
      <point x="207" y="636" type="qcurve" smooth="yes"/>
    </contour>
  </outline>
</glyph>
<glyph name="numbersign" format="1">
  <advance width="450"/>
  <unicode hex="0023"/>
  <outline>
    <contour>
      <point x="315" y="699" type="qcurve" smooth="yes"/>
      <point x="395" y="699" type="line"/>
      <point x="397" y="699" type="line"/>
      <point x="403" y="697"/>
      <point x="402" y="690" type="qcurve" smooth="yes"/>
      <point x="368" y="472" type="line"/>
      <point x="394" y="472" type="line" smooth="yes"/>
      <point x="401" y="472"/>
      <point x="401" y="465" type="qcurve" smooth="yes"/>
      <point x="401" y="391" type="line" smooth="yes"/>
      <point x="401" y="384"/>
      <point x="394" y="384" type="qcurve" smooth="yes"/>
      <point x="355" y="384" type="line"/>
      <point x="343" y="308" type="line"/>
      <point x="394" y="308" type="line" smooth="yes"/>
      <point x="401" y="308"/>
      <point x="401" y="301" type="qcurve" smooth="yes"/>
      <point x="401" y="227" type="line" smooth="yes"/>
      <point x="401" y="220"/>
      <point x="394" y="220" type="qcurve" smooth="yes"/>
      <point x="329" y="220" type="line"/>
      <point x="296" y="4" type="line" smooth="yes"/>
      <point x="295" y="0"/>
      <point x="290" y="0" type="qcurve" smooth="yes"/>
      <point x="210" y="0" type="line"/>
      <point x="208" y="0" type="line"/>
      <point x="202" y="2"/>
      <point x="203" y="9" type="qcurve" smooth="yes"/>
      <point x="235" y="220" type="line"/>
      <point x="184" y="220" type="line"/>
      <point x="151" y="4" type="line" smooth="yes"/>
      <point x="150" y="0"/>
      <point x="145" y="0" type="qcurve" smooth="yes"/>
      <point x="65" y="0" type="line"/>
      <point x="63" y="0" type="line"/>
      <point x="57" y="2"/>
      <point x="58" y="9" type="qcurve" smooth="yes"/>
      <point x="90" y="220" type="line"/>
      <point x="56" y="220" type="line" smooth="yes"/>
      <point x="49" y="220"/>
      <point x="49" y="227" type="qcurve" smooth="yes"/>
      <point x="49" y="301" type="line" smooth="yes"/>
      <point x="49" y="308"/>
      <point x="56" y="308" type="qcurve" smooth="yes"/>
      <point x="104" y="308" type="line"/>
      <point x="115" y="384" type="line"/>
      <point x="56" y="384" type="line" smooth="yes"/>
      <point x="49" y="384"/>
      <point x="49" y="391" type="qcurve" smooth="yes"/>
      <point x="49" y="465" type="line" smooth="yes"/>
      <point x="49" y="472"/>
      <point x="56" y="472" type="qcurve" smooth="yes"/>
      <point x="129" y="472" type="line"/>
      <point x="163" y="695" type="line" smooth="yes"/>
      <point x="164" y="699"/>
      <point x="170" y="699" type="qcurve" smooth="yes"/>
      <point x="250" y="699" type="line"/>
      <point x="252" y="699" type="line"/>
      <point x="258" y="697"/>
      <point x="257" y="690" type="qcurve" smooth="yes"/>
      <point x="223" y="472" type="line"/>
      <point x="274" y="472" type="line"/>
      <point x="308" y="695" type="line" smooth="yes"/>
      <point x="309" y="699"/>
    </contour>
    <contour>
      <point x="260" y="384" type="line"/>
      <point x="210" y="384" type="line"/>
      <point x="198" y="308" type="line"/>
      <point x="249" y="308" type="line"/>
    </contour>
  </outline>
</glyph>
<glyph name="dollar" format="1">
  <advance width="450"/>
  <unicode hex="0024"/>
  <outline>
    <contour>
      <point x="269" y="695" type="qcurve"/>
      <point x="269" y="783" type="line" smooth="yes"/>
      <point x="269" y="788"/>
      <point x="263" y="788" type="qcurve" smooth="yes"/>
      <point x="188" y="788" type="line" smooth="yes"/>
      <point x="182" y="788"/>
      <point x="182" y="783" type="qcurve" smooth="yes"/>
      <point x="182" y="695" type="line"/>
      <point x="134" y="683"/>
      <point x="98" y="644" type="qcurve"/>
      <point x="48" y="592"/>
      <point x="50" y="519" type="qcurve" smooth="yes"/>
      <point x="51" y="483"/>
      <point x="66" y="450" type="qcurve" smooth="yes"/>
      <point x="82" y="417"/>
      <point x="109" y="393" type="qcurve" smooth="yes"/>
      <point x="283" y="240" type="line" smooth="yes"/>
      <point x="310" y="216"/>
      <point x="312" y="180" type="qcurve" smooth="yes"/>
      <point x="314" y="144"/>
      <point x="266" y="90"/>
      <point x="194" y="85"/>
      <point x="167" y="110" type="qcurve"/>
      <point x="146" y="128"/>
      <point x="138" y="170" type="qcurve" smooth="yes"/>
      <point x="137" y="175"/>
      <point x="132" y="175" type="qcurve" smooth="yes"/>
      <point x="55" y="175" type="line" smooth="yes"/>
      <point x="50" y="175"/>
      <point x="50" y="170" type="qcurve" smooth="yes"/>
      <point x="50" y="99"/>
      <point x="105" y="48" type="qcurve" smooth="yes"/>
      <point x="140" y="15"/>
      <point x="182" y="5" type="qcurve"/>
      <point x="182" y="-88" type="line" smooth="yes"/>
      <point x="182" y="-94"/>
      <point x="188" y="-94" type="qcurve" smooth="yes"/>
      <point x="263" y="-94" type="line" smooth="yes"/>
      <point x="269" y="-94"/>
      <point x="269" y="-88" type="qcurve" smooth="yes"/>
      <point x="269" y="5" type="line"/>
      <point x="317" y="17"/>
      <point x="352" y="55" type="qcurve" smooth="yes"/>
      <point x="402" y="108"/>
      <point x="400" y="180" type="qcurve" smooth="yes"/>
      <point x="399" y="216"/>
      <point x="384" y="249" type="qcurve" smooth="yes"/>
      <point x="368" y="282"/>
      <point x="341" y="306" type="qcurve" smooth="yes"/>
      <point x="167" y="459" type="line" smooth="yes"/>
      <point x="140" y="483"/>
      <point x="138" y="520" type="qcurve" smooth="yes"/>
      <point x="136" y="556"/>
      <point x="184" y="610"/>
      <point x="256" y="614"/>
      <point x="283" y="590" type="qcurve" smooth="yes"/>
      <point x="301" y="574"/>
      <point x="312" y="529" type="qcurve" smooth="yes"/>
      <point x="313" y="525"/>
      <point x="318" y="525" type="qcurve" smooth="yes"/>
      <point x="395" y="525" type="line" smooth="yes"/>
      <point x="400" y="525"/>
      <point x="400" y="530" type="qcurve" smooth="yes"/>
      <point x="400" y="600"/>
      <point x="345" y="652" type="qcurve" smooth="yes"/>
      <point x="311" y="684"/>
    </contour>
  </outline>
</glyph>
<glyph name="percent" format="1">
  <advance width="450"/>
  <unicode hex="0025"/>
  <outline>
    <contour>
      <point x="172,637" y="700,688"/>
      <point x="224,485" y="648,89"/>
      <point x="224,562" y="612,25" type="qcurve" smooth="yes"/>
      <point x="224,562" y="612,062" type="line" smooth="yes"/>
      <point x="224,485" y="575,423"/>
      <point x="172,637" y="523,625"/>
      <point x="99,3613" y="523,625"/>
      <point x="47,5127" y="575,423"/>
      <point x="47,4365" y="612,062" type="qcurve" smooth="yes"/>
      <point x="47,4365" y="612,25" type="line" smooth="yes"/>
      <point x="47,5127" y="648,89"/>
      <point x="99,3613" y="700,688"/>
    </contour>
    <contour>
      <point x="313,124" y="700,688" type="line"/>
      <point x="401,687" y="700,688" type="line"/>
      <point x="135,999" y="-8" type="line"/>
      <point x="47,4365" y="-8" type="line"/>
    </contour>
    <contour>
      <point x="126,835" y="634,375"/>
      <point x="113,874" y="621,414"/>
      <point x="113,874" y="603,086"/>
      <point x="126,835" y="590,125"/>
      <point x="145,163" y="590,125"/>
      <point x="158,124" y="603,086"/>
      <point x="158,124" y="621,414"/>
      <point x="145,163" y="634,375"/>
    </contour>
    <contour>
      <point x="349,762" y="169,062"/>
      <point x="401,61" y="117,265"/>
      <point x="401,687" y="80,625" type="qcurve" smooth="yes"/>
      <point x="401,687" y="80,4395" type="line" smooth="yes"/>
      <point x="401,61" y="43,7998"/>
      <point x="349,762" y="-7,99805"/>
      <point x="276,486" y="-7,99805"/>
      <point x="224,638" y="43,7998"/>
      <point x="224,562" y="80,4395" type="qcurve" smooth="yes"/>
      <point x="224,562" y="80,625" type="line" smooth="yes"/>
      <point x="224,638" y="117,265"/>
      <point x="276,486" y="169,062"/>
    </contour>
    <contour>
      <point x="303,96" y="102,75"/>
      <point x="290,999" y="89,7891"/>
      <point x="290,999" y="71,4609"/>
      <point x="303,96" y="58,5"/>
      <point x="322,288" y="58,5"/>
      <point x="335,249" y="71,4609"/>
      <point x="335,249" y="89,7891"/>
      <point x="322,288" y="102,75"/>
    </contour>
  </outline>
</glyph>
<glyph name="ampersand" format="1">
  <advance width="450"/>
  <unicode hex="0026"/>
  <outline>
    <contour>
      <point x="220,938" y="709,312" type="qcurve" smooth="yes"/>
      <point x="224,875" y="709,312" type="line" smooth="yes"/>
      <point x="226,438" y="709,312"/>
      <point x="228,938" y="709,25" type="qcurve" smooth="yes"/>
      <point x="233,5" y="709,087"/>
      <point x="236,375" y="708,875" type="qcurve" smooth="yes"/>
      <point x="238,961" y="708,688"/>
      <point x="240,812" y="708,5" type="qcurve" smooth="yes"/>
      <point x="244,339" y="708,108"/>
      <point x="247,625" y="707,625" type="qcurve" smooth="yes"/>
      <point x="248,854" y="707,455"/>
      <point x="249,398" y="707,362" type="qcurve" smooth="yes"/>
      <point x="253,657" y="706,663"/>
      <point x="254,5" y="706,5" type="qcurve" smooth="yes"/>
      <point x="255,941" y="706,223"/>
      <point x="258,375" y="705,688" type="qcurve" smooth="yes"/>
      <point x="258,625" y="705,625" type="line" smooth="yes"/>
      <point x="261,836" y="704,914"/>
      <point x="265,564" y="703,955"/>
      <point x="269,375" y="702,812" type="qcurve" smooth="yes"/>
      <point x="274,725" y="701,213"/>
      <point x="279,75" y="699,312" type="qcurve" smooth="yes"/>
      <point x="282,76" y="698,175"/>
      <point x="284,812" y="697,312" type="qcurve" smooth="yes"/>
      <point x="286,552" y="696,574"/>
      <point x="293,137" y="693,531"/>
      <point x="294,562" y="692,812" type="qcurve" smooth="yes"/>
      <point x="294,875" y="692,625" type="line" smooth="yes"/>
      <point x="302,034" y="688,998"/>
      <point x="308,375" y="684,938" type="qcurve" smooth="yes"/>
      <point x="308,75" y="684,688" type="line"/>
      <point x="313,188" y="681,688" type="line" smooth="yes"/>
      <point x="317,681" y="678,566"/>
      <point x="321,812" y="675,25" type="qcurve" smooth="yes"/>
      <point x="325,938" y="671,812" type="line" smooth="yes"/>
      <point x="331,92" y="666,665"/>
      <point x="337,562" y="660,688" type="qcurve" smooth="yes"/>
      <point x="379,875" y="615,877"/>
      <point x="379,875" y="554,375" type="qcurve"/>
      <point x="291,312" y="554,375" type="line"/>
      <point x="291,312" y="581,893"/>
      <point x="252,442" y="620,812"/>
      <point x="197,386" y="620,788"/>
      <point x="158,5" y="581,868"/>
      <point x="158,5" y="554,375" type="qcurve" smooth="yes"/>
      <point x="158,5" y="539,194"/>
      <point x="164,875" y="525,812" type="qcurve" smooth="yes"/>
      <point x="165" y="525,562" type="line"/>
      <point x="184" y="483,438" type="line"/>
      <point x="221,875" y="399,5" type="line"/>
      <point x="313,438" y="196,375" type="line"/>
      <point x="313,438" y="310,754" type="line"/>
      <point x="402" y="310,754" type="line"/>
      <point x="402" y="177,188" type="line" smooth="yes"/>
      <point x="401,938" y="120,15"/>
      <point x="368,688" y="73,875" type="qcurve"/>
      <point x="402" y="0" type="line"/>
      <point x="304,875" y="0" type="line"/>
      <point x="297,812" y="15,625" type="line"/>
      <point x="263,308" y="0"/>
      <point x="224,875" y="0" type="qcurve" smooth="yes"/>
      <point x="151,513" y="0"/>
      <point x="47,75" y="103,803"/>
      <point x="47,75" y="177,188" type="qcurve" smooth="yes"/>
      <point x="47,75" y="222,438" type="line"/>
      <point x="47,75" y="265,75" type="line"/>
      <point x="47,75" y="311" type="line" smooth="yes"/>
      <point x="47,75" y="389,216"/>
      <point x="105,562" y="441,938" type="qcurve"/>
      <point x="83,375" y="491,062" type="line" smooth="yes"/>
      <point x="69,9375" y="521,174"/>
      <point x="69,9375" y="554,375" type="qcurve" smooth="yes"/>
      <point x="69,9375" y="617,492"/>
      <point x="158,049" y="707,72"/>
    </contour>
    <contour>
      <point x="146,188" y="351,75" type="line"/>
      <point x="136,312" y="332,731"/>
      <point x="136,312" y="311" type="qcurve" smooth="yes"/>
      <point x="136,312" y="265,75" type="line"/>
      <point x="136,312" y="222,438" type="line"/>
      <point x="136,312" y="177,188" type="line" smooth="yes"/>
      <point x="136,312" y="140,503"/>
      <point x="188,196" y="88,625"/>
      <point x="224,875" y="88,625" type="qcurve" smooth="yes"/>
      <point x="243,993" y="88,625"/>
      <point x="261,375" y="96,5" type="qcurve"/>
    </contour>
  </outline>
</glyph>
<glyph name="quotesingle" format="1">
  <advance width="260"/>
  <unicode hex="0027"/>
  <outline>
    <contour>
      <point x="129" y="576" type="line" smooth="yes"/>
      <point x="128" y="574"/>
      <point x="124" y="574" type="qcurve" smooth="yes"/>
      <point x="118" y="574" type="line" smooth="yes"/>
      <point x="112" y="574"/>
      <point x="112" y="579" type="qcurve" smooth="yes"/>
      <point x="112" y="616" type="line" smooth="yes"/>
      <point x="112" y="619"/>
      <point x="110" y="621" type="qcurve" smooth="yes"/>
      <point x="109" y="621"/>
      <point x="108" y="622" type="line"/>
      <point x="93" y="631"/>
      <point x="85" y="665"/>
      <point x="104" y="694"/>
      <point x="137" y="702"/>
      <point x="167" y="684"/>
      <point x="175" y="650"/>
      <point x="166" y="636" type="qcurve" smooth="yes"/>
    </contour>
  </outline>
</glyph>
<glyph name="parenleft" format="1">
  <advance width="450"/>
  <unicode hex="0028"/>
  <outline>
    <contour>
      <point x="230" y="2" type="qcurve" smooth="yes"/>
      <point x="234" y="-4"/>
      <point x="240" y="0" type="qcurve" smooth="yes"/>
      <point x="304" y="38" type="line" smooth="yes"/>
      <point x="310" y="41"/>
      <point x="306" y="48" type="qcurve" smooth="yes"/>
      <point x="217" y="184"/>
      <point x="216" y="344" type="qcurve"/>
      <point x="213" y="506"/>
      <point x="305" y="645" type="qcurve" smooth="yes"/>
      <point x="309" y="651"/>
      <point x="303" y="654" type="qcurve" smooth="yes"/>
      <point x="240" y="692" type="line" smooth="yes"/>
      <point x="234" y="696"/>
      <point x="230" y="690" type="qcurve" smooth="yes"/>
      <point x="124" y="512"/>
      <point x="129" y="344" type="qcurve"/>
      <point x="136" y="157"/>
    </contour>
  </outline>
</glyph>
<glyph name="parenright" format="1">
  <advance width="450"/>
  <unicode hex="0029"/>
  <outline>
    <contour>
      <point x="220" y="4" type="qcurve" smooth="yes"/>
      <point x="216" y="-2"/>
      <point x="210" y="2" type="qcurve" smooth="yes"/>
      <point x="146" y="40" type="line" smooth="yes"/>
      <point x="140" y="43"/>
      <point x="144" y="50" type="qcurve" smooth="yes"/>
      <point x="233" y="186"/>
      <point x="234" y="346" type="qcurve"/>
      <point x="237" y="508"/>
      <point x="145" y="647" type="qcurve" smooth="yes"/>
      <point x="141" y="653"/>
      <point x="147" y="656" type="qcurve" smooth="yes"/>
      <point x="210" y="694" type="line" smooth="yes"/>
      <point x="216" y="698"/>
      <point x="220" y="692" type="qcurve" smooth="yes"/>
      <point x="326" y="514"/>
      <point x="321" y="346" type="qcurve"/>
      <point x="314" y="159"/>
    </contour>
  </outline>
</glyph>
<glyph name="asterisk" format="1">
  <advance width="450"/>
  <unicode hex="002A"/>
  <outline>
    <contour>
      <point x="191,625" y="800" type="line"/>
      <point x="258" y="800" type="line"/>
      <point x="258" y="702,438" type="line"/>
      <point x="342,5" y="751,25" type="line"/>
      <point x="375,688" y="693,75" type="line"/>
      <point x="291,188" y="645" type="line"/>
      <point x="375,688" y="596,188" type="line"/>
      <point x="342,5" y="538,75" type="line"/>
      <point x="258" y="587,562" type="line"/>
      <point x="258" y="489,938" type="line"/>
      <point x="191,625" y="489,938" type="line"/>
      <point x="191,625" y="587,5" type="line"/>
      <point x="107,188" y="538,75" type="line"/>
      <point x="74" y="596,188" type="line"/>
      <point x="158,5" y="645" type="line"/>
      <point x="74" y="693,75" type="line"/>
      <point x="107,188" y="751,25" type="line"/>
      <point x="191,625" y="702,5" type="line"/>
    </contour>
  </outline>
</glyph>
<glyph name="plus" format="1">
  <advance width="450"/>
  <unicode hex="002B"/>
  <outline>
    <contour>
      <point x="180,422" y="398,615" type="line"/>
      <point x="268,984" y="398,615" type="line"/>
      <point x="268,984" y="310,053" type="line"/>
      <point x="357,547" y="310,053" type="line"/>
      <point x="357,547" y="221,49" type="line"/>
      <point x="268,984" y="221,49" type="line"/>
      <point x="268,984" y="132,99" type="line"/>
      <point x="180,422" y="132,99" type="line"/>
      <point x="180,422" y="221,49" type="line"/>
      <point x="91,8594" y="221,49" type="line"/>
      <point x="91,8594" y="310,053" type="line"/>
      <point x="180,422" y="310,053" type="line"/>
    </contour>
  </outline>
</glyph>
<glyph name="comma" format="1">
  <advance width="260"/>
  <unicode hex="002C"/>
  <outline>
    <contour>
      <point x="148,215" y="87,875"/>
      <point x="174,125" y="61,915"/>
      <point x="174,125" y="43,5625" type="qcurve" smooth="yes"/>
      <point x="174,099" y="37,1104"/>
      <point x="172,312" y="31" type="qcurve" smooth="yes"/>
      <point x="152" y="-45" type="line"/>
      <point x="129,875" y="-45" type="line"/>
      <point x="129,875" y="-0,75" type="line"/>
      <point x="111,528" y="-0,75"/>
      <point x="85,5625" y="25,2168"/>
      <point x="85,5625" y="61,9092"/>
      <point x="111,528" y="87,875"/>
    </contour>
  </outline>
</glyph>
<glyph name="hyphen" format="1">
  <advance width="450"/>
  <unicode hex="002D"/>
  <outline>
    <contour>
      <point x="91,875" y="310" type="line"/>
      <point x="357,521" y="310" type="line"/>
      <point x="357,521" y="221,475" type="line"/>
      <point x="91,875" y="221,475" type="line"/>
    </contour>
  </outline>
</glyph>
<glyph name="period" format="1">
  <advance width="260"/>
  <unicode hex="002E"/>
  <outline>
    <contour>
      <point x="174,291" y="44,2891" type="qcurve" smooth="yes"/>
      <point x="174,291" y="39,8271"/>
      <point x="173,414" y="35,4785" type="qcurve" smooth="yes"/>
      <point x="170,323" y="20,166"/>
      <point x="145,949" y="0"/>
      <point x="130" y="0" type="qcurve" smooth="yes"/>
      <point x="111,653" y="0"/>
      <point x="85,709" y="25,9443"/>
      <point x="85,709" y="62,6367"/>
      <point x="111,653" y="88,582"/>
      <point x="148,346" y="88,582"/>
      <point x="174,291" y="62,6357"/>
    </contour>
  </outline>
</glyph>
<glyph name="slash" format="1">
  <advance width="450"/>
  <unicode hex="002F"/>
  <outline>
    <contour>
      <point x="305" y="699" type="qcurve" smooth="yes"/>
      <point x="385" y="699" type="line"/>
      <point x="387" y="699" type="line"/>
      <point x="394" y="697"/>
      <point x="392" y="690" type="qcurve" smooth="yes"/>
      <point x="151" y="4" type="line" smooth="yes"/>
      <point x="150" y="0"/>
      <point x="145" y="0" type="qcurve" smooth="yes"/>
      <point x="65" y="0" type="line"/>
      <point x="63" y="0" type="line"/>
      <point x="56" y="2"/>
      <point x="58" y="9" type="qcurve" smooth="yes"/>
      <point x="298" y="695" type="line" smooth="yes"/>
      <point x="299" y="699"/>
    </contour>
  </outline>
</glyph>
<glyph name="zero" format="1">
  <advance width="450"/>
  <unicode hex="0030"/>
  <outline>
    <contour>
      <point x="259" y="699"/>
      <point x="324" y="673"/>
      <point x="373" y="624"/>
      <point x="400" y="559"/>
      <point x="400" y="525" type="qcurve" smooth="yes"/>
      <point x="400" y="175" type="line" smooth="yes"/>
      <point x="400" y="140"/>
      <point x="373" y="76"/>
      <point x="324" y="27"/>
      <point x="259" y="0"/>
      <point x="191" y="0"/>
      <point x="126" y="27"/>
      <point x="77" y="76"/>
      <point x="50" y="140"/>
      <point x="50" y="175" type="qcurve" smooth="yes"/>
      <point x="50" y="525" type="line" smooth="yes"/>
      <point x="50" y="559"/>
      <point x="77" y="624"/>
      <point x="126" y="673"/>
      <point x="191" y="699"/>
    </contour>
    <contour>
      <point x="225" y="612" type="qcurve" smooth="yes"/>
      <point x="189" y="612"/>
      <point x="137" y="561"/>
      <point x="137" y="525" type="qcurve" smooth="yes"/>
      <point x="137" y="175" type="line" smooth="yes"/>
      <point x="137" y="138"/>
      <point x="163" y="113" type="qcurve" smooth="yes"/>
      <point x="188" y="88"/>
      <point x="225" y="88" type="qcurve" smooth="yes"/>
      <point x="261" y="88"/>
      <point x="287" y="113" type="qcurve" smooth="yes"/>
      <point x="312" y="138"/>
      <point x="312" y="175" type="qcurve" smooth="yes"/>
      <point x="312" y="525" type="line" smooth="yes"/>
      <point x="312" y="561"/>
      <point x="261" y="612"/>
    </contour>
  </outline>
</glyph>
<glyph name="one" format="1">
  <advance width="450"/>
  <unicode hex="0031"/>
  <outline>
    <contour>
      <point x="324" y="5" type="line" smooth="yes"/>
      <point x="324" y="0"/>
      <point x="318" y="0" type="qcurve" smooth="yes"/>
      <point x="241" y="0" type="line" smooth="yes"/>
      <point x="236" y="0"/>
      <point x="236" y="5" type="qcurve" smooth="yes"/>
      <point x="236" y="524" type="line" smooth="yes"/>
      <point x="236" y="527"/>
      <point x="230" y="530"/>
      <point x="228" y="528" type="qcurve" smooth="yes"/>
      <point x="194" y="506"/>
      <point x="154" y="498" type="qcurve" smooth="yes"/>
      <point x="152" y="498"/>
      <point x="148" y="501"/>
      <point x="148" y="503" type="qcurve" smooth="yes"/>
      <point x="148" y="581" type="line" smooth="yes"/>
      <point x="148" y="585"/>
      <point x="152" y="586" type="qcurve" smooth="yes"/>
      <point x="187" y="598"/>
      <point x="234" y="660"/>
      <point x="236" y="697" type="qcurve" smooth="yes"/>
      <point x="236" y="702"/>
      <point x="241" y="702" type="qcurve" smooth="yes"/>
      <point x="318" y="702" type="line" smooth="yes"/>
      <point x="324" y="702"/>
      <point x="324" y="697" type="qcurve" smooth="yes"/>
    </contour>
  </outline>
</glyph>
<glyph name="two" format="1">
  <advance width="450"/>
  <unicode hex="0032"/>
  <outline>
    <contour>
      <point x="395" y="0" type="qcurve" smooth="yes"/>
      <point x="56" y="0" type="line" smooth="yes"/>
      <point x="51" y="0"/>
      <point x="51" y="5" type="qcurve" smooth="yes"/>
      <point x="51" y="86" type="line" smooth="yes"/>
      <point x="51" y="87"/>
      <point x="52" y="89" type="qcurve" smooth="yes"/>
      <point x="299" y="478" type="line" smooth="yes"/>
      <point x="312" y="497"/>
      <point x="314" y="545"/>
      <point x="292" y="586"/>
      <point x="251" y="611"/>
      <point x="205" y="613"/>
      <point x="163" y="590"/>
      <point x="139" y="550"/>
      <point x="138" y="502"/>
      <point x="149" y="482" type="qcurve" smooth="yes"/>
      <point x="152" y="478"/>
      <point x="148" y="475" type="qcurve" smooth="yes"/>
      <point x="83" y="433" type="line"/>
      <point x="78" y="431"/>
      <point x="75" y="435" type="qcurve" smooth="yes"/>
      <point x="52" y="475"/>
      <point x="51" y="572"/>
      <point x="98" y="652"/>
      <point x="182" y="700"/>
      <point x="275" y="699"/>
      <point x="358" y="648"/>
      <point x="402" y="567"/>
      <point x="398" y="470"/>
      <point x="373" y="431" type="qcurve" smooth="yes"/>
      <point x="160" y="95" type="line" smooth="yes"/>
      <point x="158" y="93"/>
      <point x="161" y="87"/>
      <point x="164" y="87" type="qcurve" smooth="yes"/>
      <point x="395" y="87" type="line" smooth="yes"/>
      <point x="400" y="87"/>
      <point x="400" y="82" type="qcurve" smooth="yes"/>
      <point x="400" y="5" type="line" smooth="yes"/>
      <point x="400" y="0"/>
    </contour>
  </outline>
</glyph>
<glyph name="three" format="1">
  <advance width="450"/>
  <unicode hex="0033"/>
  <outline>
    <contour>
      <point x="53" y="100" type="qcurve" smooth="yes"/>
      <point x="51" y="105"/>
      <point x="56" y="108" type="qcurve" smooth="yes"/>
      <point x="125" y="141" type="line" smooth="yes"/>
      <point x="130" y="143"/>
      <point x="132" y="138" type="qcurve" smooth="yes"/>
      <point x="147" y="110"/>
      <point x="209" y="83"/>
      <point x="271" y="99"/>
      <point x="313" y="152"/>
      <point x="313" y="184" type="qcurve" smooth="yes"/>
      <point x="313" y="254" type="line" smooth="yes"/>
      <point x="313" y="294"/>
      <point x="257" y="350"/>
      <point x="217" y="350" type="qcurve" smooth="yes"/>
      <point x="181" y="350" type="line" smooth="yes"/>
      <point x="175" y="350"/>
      <point x="175" y="355" type="qcurve" smooth="yes"/>
      <point x="175" y="425" type="line" smooth="yes"/>
      <point x="175" y="427"/>
      <point x="176" y="428" type="qcurve" smooth="yes"/>
      <point x="291" y="604" type="line" smooth="yes"/>
      <point x="293" y="607"/>
      <point x="289" y="613"/>
      <point x="287" y="613" type="qcurve" smooth="yes"/>
      <point x="56" y="613" type="line" smooth="yes"/>
      <point x="51" y="613"/>
      <point x="51" y="618" type="qcurve" smooth="yes"/>
      <point x="51" y="695" type="line" smooth="yes"/>
      <point x="51" y="700"/>
      <point x="56" y="700" type="qcurve" smooth="yes"/>
      <point x="395" y="700" type="line" smooth="yes"/>
      <point x="401" y="700"/>
      <point x="401" y="695" type="qcurve" smooth="yes"/>
      <point x="401" y="614" type="line" smooth="yes"/>
      <point x="401" y="613"/>
      <point x="400" y="611" type="qcurve" smooth="yes"/>
      <point x="283" y="432" type="line" smooth="yes"/>
      <point x="282" y="430"/>
      <point x="284" y="425"/>
      <point x="286" y="424" type="qcurve" smooth="yes"/>
      <point x="336" y="404"/>
      <point x="401" y="308"/>
      <point x="401" y="254" type="qcurve" smooth="yes"/>
      <point x="401" y="184" type="line" smooth="yes"/>
      <point x="401" y="120"/>
      <point x="322" y="20"/>
      <point x="198" y="-9"/>
      <point x="82" y="44"/>
    </contour>
  </outline>
</glyph>
<glyph name="four" format="1">
  <advance width="450"/>
  <unicode hex="0034"/>
  <outline>
    <contour>
      <point x="50" y="227" type="line"/>
      <point x="50" y="228" type="line" smooth="yes"/>
      <point x="171" y="696" type="line" smooth="yes"/>
      <point x="172" y="700"/>
      <point x="176" y="700" type="qcurve" smooth="yes"/>
      <point x="256" y="700" type="line" smooth="yes"/>
      <point x="258" y="700"/>
      <point x="262" y="695"/>
      <point x="261" y="693" type="qcurve" smooth="yes"/>
      <point x="142" y="234" type="line" smooth="yes"/>
      <point x="141" y="232"/>
      <point x="145" y="227"/>
      <point x="147" y="227" type="qcurve" smooth="yes"/>
      <point x="220" y="227" type="line" smooth="yes"/>
      <point x="225" y="227"/>
      <point x="225" y="233" type="qcurve" smooth="yes"/>
      <point x="225" y="345" type="line" smooth="yes"/>
      <point x="225" y="350"/>
      <point x="230" y="350" type="qcurve" smooth="yes"/>
      <point x="307" y="350" type="line" smooth="yes"/>
      <point x="312" y="350"/>
      <point x="312" y="345" type="qcurve" smooth="yes"/>
      <point x="312" y="233" type="line" smooth="yes"/>
      <point x="312" y="227"/>
      <point x="317" y="227" type="qcurve" smooth="yes"/>
      <point x="394" y="227" type="line" smooth="yes"/>
      <point x="400" y="227"/>
      <point x="400" y="222" type="qcurve" smooth="yes"/>
      <point x="400" y="145" type="line" smooth="yes"/>
      <point x="400" y="140"/>
      <point x="394" y="140" type="qcurve" smooth="yes"/>
      <point x="317" y="140" type="line" smooth="yes"/>
      <point x="312" y="140"/>
      <point x="312" y="135" type="qcurve" smooth="yes"/>
      <point x="312" y="5" type="line" smooth="yes"/>
      <point x="312" y="0"/>
      <point x="307" y="0" type="qcurve" smooth="yes"/>
      <point x="230" y="0" type="line" smooth="yes"/>
      <point x="225" y="0"/>
      <point x="225" y="5" type="qcurve" smooth="yes"/>
      <point x="225" y="135" type="line" smooth="yes"/>
      <point x="225" y="140"/>
      <point x="220" y="140" type="qcurve" smooth="yes"/>
      <point x="55" y="140" type="line" smooth="yes"/>
      <point x="50" y="140"/>
      <point x="50" y="145" type="qcurve" smooth="yes"/>
    </contour>
  </outline>
</glyph>
<glyph name="five" format="1">
  <advance width="450"/>
  <unicode hex="0035"/>
  <outline>
    <contour>
      <point x="51" y="169" type="qcurve" smooth="yes"/>
      <point x="50" y="175"/>
      <point x="56" y="175" type="qcurve" smooth="yes"/>
      <point x="133" y="175" type="line" smooth="yes"/>
      <point x="138" y="175"/>
      <point x="138" y="170" type="qcurve" smooth="yes"/>
      <point x="140" y="134"/>
      <point x="192" y="86"/>
      <point x="263" y="88"/>
      <point x="313" y="139"/>
      <point x="313" y="175" type="qcurve" smooth="yes"/>
      <point x="313" y="297" type="line" smooth="yes"/>
      <point x="313" y="333"/>
      <point x="263" y="384"/>
      <point x="192" y="386"/>
      <point x="140" y="338"/>
      <point x="138" y="302" type="qcurve" smooth="yes"/>
      <point x="138" y="297"/>
      <point x="133" y="297" type="qcurve" smooth="yes"/>
      <point x="56" y="297" type="line" smooth="yes"/>
      <point x="50" y="297"/>
      <point x="50" y="303" type="qcurve" smooth="yes"/>
      <point x="50" y="694" type="line" smooth="yes"/>
      <point x="50" y="699"/>
      <point x="56" y="699" type="qcurve" smooth="yes"/>
      <point x="395" y="699" type="line" smooth="yes"/>
      <point x="400" y="699"/>
      <point x="400" y="694" type="qcurve" smooth="yes"/>
      <point x="400" y="617" type="line" smooth="yes"/>
      <point x="400" y="612"/>
      <point x="395" y="612" type="qcurve" smooth="yes"/>
      <point x="143" y="612" type="line" smooth="yes"/>
      <point x="138" y="612"/>
      <point x="138" y="607" type="qcurve" smooth="yes"/>
      <point x="138" y="458" type="line" smooth="yes"/>
      <point x="138" y="455"/>
      <point x="143" y="452"/>
      <point x="145" y="453" type="qcurve" smooth="yes"/>
      <point x="185" y="473"/>
      <point x="278" y="470"/>
      <point x="355" y="423"/>
      <point x="400" y="342"/>
      <point x="400" y="297" type="qcurve" smooth="yes"/>
      <point x="400" y="175" type="line" smooth="yes"/>
      <point x="400" y="141"/>
      <point x="374" y="76"/>
      <point x="326" y="28"/>
      <point x="262" y="1"/>
      <point x="194" y="-1"/>
      <point x="129" y="25"/>
      <point x="80" y="72"/>
      <point x="52" y="135"/>
    </contour>
  </outline>
</glyph>
<glyph name="six" format="1">
  <advance width="450"/>
  <unicode hex="0036"/>
  <outline>
    <contour>
      <point x="399" y="530" type="qcurve" smooth="yes"/>
      <point x="399" y="525"/>
      <point x="394" y="525" type="qcurve" smooth="yes"/>
      <point x="317" y="525" type="line" smooth="yes"/>
      <point x="312" y="525"/>
      <point x="311" y="530" type="qcurve" smooth="yes"/>
      <point x="309" y="565"/>
      <point x="257" y="613"/>
      <point x="186" y="611"/>
      <point x="137" y="560"/>
      <point x="137" y="525" type="qcurve" smooth="yes"/>
      <point x="137" y="423" type="line" smooth="yes"/>
      <point x="137" y="420"/>
      <point x="142" y="417"/>
      <point x="144" y="418" type="qcurve" smooth="yes"/>
      <point x="184" y="438"/>
      <point x="277" y="435"/>
      <point x="353" y="388"/>
      <point x="399" y="307"/>
      <point x="399" y="262" type="qcurve" smooth="yes"/>
      <point x="399" y="175" type="line" smooth="yes"/>
      <point x="399" y="141"/>
      <point x="372" y="76"/>
      <point x="323" y="27"/>
      <point x="258" y="0"/>
      <point x="190" y="0"/>
      <point x="125" y="27"/>
      <point x="76" y="76"/>
      <point x="49" y="141"/>
      <point x="49" y="175" type="qcurve" smooth="yes"/>
      <point x="49" y="525" type="line" smooth="yes"/>
      <point x="49" y="559"/>
      <point x="76" y="623"/>
      <point x="123" y="672"/>
      <point x="187" y="699"/>
      <point x="255" y="700"/>
      <point x="320" y="675"/>
      <point x="369" y="628"/>
      <point x="398" y="564"/>
    </contour>
    <contour>
      <point x="311" y="175" type="qcurve" smooth="yes"/>
      <point x="311" y="262" type="line" smooth="yes"/>
      <point x="311" y="299"/>
      <point x="260" y="350"/>
      <point x="188" y="350"/>
      <point x="137" y="299"/>
      <point x="137" y="262" type="qcurve" smooth="yes"/>
      <point x="137" y="175" type="line" smooth="yes"/>
      <point x="137" y="139"/>
      <point x="188" y="87"/>
      <point x="260" y="87"/>
      <point x="311" y="139"/>
    </contour>
  </outline>
</glyph>
<glyph name="seven" format="1">
  <advance width="450"/>
  <unicode hex="0037"/>
  <outline>
    <contour>
      <point x="239" y="4" type="line" smooth="yes"/>
      <point x="237" y="0"/>
      <point x="233" y="0" type="qcurve" smooth="yes"/>
      <point x="144" y="0" type="line" smooth="yes"/>
      <point x="142" y="0"/>
      <point x="138" y="4"/>
      <point x="139" y="7" type="qcurve" smooth="yes"/>
      <point x="297" y="606" type="line" smooth="yes"/>
      <point x="298" y="608"/>
      <point x="295" y="612"/>
      <point x="292" y="612" type="qcurve" smooth="yes"/>
      <point x="142" y="612" type="line" smooth="yes"/>
      <point x="137" y="612"/>
      <point x="137" y="607" type="qcurve" smooth="yes"/>
      <point x="137" y="530" type="line" smooth="yes"/>
      <point x="137" y="525"/>
      <point x="132" y="525" type="qcurve" smooth="yes"/>
      <point x="55" y="525" type="line" smooth="yes"/>
      <point x="50" y="525"/>
      <point x="50" y="530" type="qcurve" smooth="yes"/>
      <point x="50" y="694" type="line" smooth="yes"/>
      <point x="50" y="700"/>
      <point x="55" y="700" type="qcurve" smooth="yes"/>
      <point x="394" y="700" type="line" smooth="yes"/>
      <point x="400" y="700"/>
      <point x="400" y="694" type="qcurve" smooth="yes"/>
      <point x="400" y="613" type="line" smooth="yes"/>
      <point x="400" y="612"/>
      <point x="399" y="611" type="qcurve" smooth="yes"/>
    </contour>
  </outline>
</glyph>
<glyph name="eight" format="1">
  <advance width="450"/>
  <unicode hex="0038"/>
  <outline>
    <contour>
      <point x="260" y="699"/>
      <point x="325" y="673"/>
      <point x="374" y="624"/>
      <point x="401" y="559"/>
      <point x="401" y="525" type="qcurve" smooth="yes"/>
      <point x="401" y="481" type="line" smooth="yes"/>
      <point x="401" y="445"/>
      <point x="372" y="378"/>
      <point x="346" y="354" type="qcurve" smooth="yes"/>
      <point x="342" y="350"/>
      <point x="346" y="346" type="qcurve" smooth="yes"/>
      <point x="372" y="321"/>
      <point x="401" y="254"/>
      <point x="401" y="219" type="qcurve" smooth="yes"/>
      <point x="401" y="175" type="line" smooth="yes"/>
      <point x="401" y="141"/>
      <point x="374" y="75"/>
      <point x="325" y="27"/>
      <point x="260" y="0"/>
      <point x="192" y="0"/>
      <point x="127" y="27"/>
      <point x="78" y="75"/>
      <point x="51" y="141"/>
      <point x="51" y="175" type="qcurve" smooth="yes"/>
      <point x="51" y="219" type="line" smooth="yes"/>
      <point x="51" y="254"/>
      <point x="80" y="322"/>
      <point x="106" y="346" type="qcurve" smooth="yes"/>
      <point x="110" y="350"/>
      <point x="106" y="354" type="qcurve" smooth="yes"/>
      <point x="80" y="378"/>
      <point x="51" y="445"/>
      <point x="51" y="481" type="qcurve" smooth="yes"/>
      <point x="51" y="525" type="line" smooth="yes"/>
      <point x="51" y="559"/>
      <point x="78" y="624"/>
      <point x="127" y="673"/>
      <point x="192" y="699"/>
    </contour>
    <contour>
      <point x="190" y="612"/>
      <point x="139" y="561"/>
      <point x="139" y="524" type="qcurve" smooth="yes"/>
      <point x="139" y="481" type="line" smooth="yes"/>
      <point x="139" y="445"/>
      <point x="190" y="393"/>
      <point x="262" y="393"/>
      <point x="313" y="445"/>
      <point x="313" y="481" type="qcurve" smooth="yes"/>
      <point x="313" y="524" type="line" smooth="yes"/>
      <point x="313" y="561"/>
      <point x="262" y="612"/>
    </contour>
    <contour>
      <point x="190" y="306"/>
      <point x="139" y="255"/>
      <point x="139" y="218" type="qcurve" smooth="yes"/>
      <point x="139" y="175" type="line" smooth="yes"/>
      <point x="139" y="139"/>
      <point x="190" y="87"/>
      <point x="262" y="87"/>
      <point x="313" y="139"/>
      <point x="313" y="175" type="qcurve" smooth="yes"/>
      <point x="313" y="218" type="line" smooth="yes"/>
      <point x="313" y="255"/>
      <point x="262" y="306"/>
    </contour>
  </outline>
</glyph>
<glyph name="nine" format="1">
  <advance width="450"/>
  <unicode hex="0039"/>
  <outline>
    <contour>
      <point x="51" y="169" type="qcurve" smooth="yes"/>
      <point x="50" y="175"/>
      <point x="56" y="175" type="qcurve" smooth="yes"/>
      <point x="133" y="175" type="line" smooth="yes"/>
      <point x="138" y="175"/>
      <point x="138" y="170" type="qcurve" smooth="yes"/>
      <point x="140" y="134"/>
      <point x="192" y="86"/>
      <point x="263" y="88"/>
      <point x="313" y="139"/>
      <point x="313" y="175" type="qcurve" smooth="yes"/>
      <point x="313" y="277" type="line" smooth="yes"/>
      <point x="313" y="280"/>
      <point x="307" y="283"/>
      <point x="305" y="282" type="qcurve" smooth="yes"/>
      <point x="265" y="261"/>
      <point x="172" y="265"/>
      <point x="96" y="311"/>
      <point x="50" y="392"/>
      <point x="50" y="437" type="qcurve" smooth="yes"/>
      <point x="50" y="525" type="line" smooth="yes"/>
      <point x="50" y="559"/>
      <point x="77" y="624"/>
      <point x="126" y="673"/>
      <point x="191" y="699"/>
      <point x="260" y="699"/>
      <point x="325" y="673"/>
      <point x="373" y="624"/>
      <point x="400" y="559"/>
      <point x="400" y="525" type="qcurve" smooth="yes"/>
      <point x="400" y="175" type="line" smooth="yes"/>
      <point x="400" y="141"/>
      <point x="374" y="76"/>
      <point x="326" y="28"/>
      <point x="262" y="1"/>
      <point x="194" y="-1"/>
      <point x="129" y="25"/>
      <point x="80" y="72"/>
      <point x="52" y="135"/>
    </contour>
    <contour>
      <point x="138" y="525" type="qcurve" smooth="yes"/>
      <point x="138" y="437" type="line" smooth="yes"/>
      <point x="138" y="401"/>
      <point x="189" y="350"/>
      <point x="261" y="350"/>
      <point x="313" y="401"/>
      <point x="313" y="437" type="qcurve" smooth="yes"/>
      <point x="313" y="525" type="line" smooth="yes"/>
      <point x="313" y="561"/>
      <point x="262" y="612"/>
      <point x="189" y="612"/>
      <point x="138" y="561"/>
    </contour>
  </outline>
</glyph>
<glyph name="colon" format="1">
  <advance width="260"/>
  <unicode hex="003A"/>
  <outline>
    <contour>
      <point x="148,346" y="487,22"/>
      <point x="174,312" y="461,253"/>
      <point x="174,312" y="424,567"/>
      <point x="148,352" y="398,657"/>
      <point x="111,654" y="398,657"/>
      <point x="85,75" y="424,562"/>
      <point x="85,75" y="461,259"/>
      <point x="111,66" y="487,22"/>
    </contour>
    <contour>
      <point x="148,352" y="177,157"/>
      <point x="174,312" y="151,247"/>
      <point x="174,312" y="114,562"/>
      <point x="148,346" y="88,5947"/>
      <point x="111,66" y="88,5947"/>
      <point x="85,75" y="114,556"/>
      <point x="85,75" y="151,253"/>
      <point x="111,654" y="177,157"/>
    </contour>
  </outline>
</glyph>
<glyph name="semicolon" format="1">
  <advance width="260"/>
  <unicode hex="003B"/>
  <outline>
    <contour>
      <point x="148,341" y="177"/>
      <point x="174,251" y="151,041"/>
      <point x="174,251" y="132,688" type="qcurve" smooth="yes"/>
      <point x="174,226" y="126,236"/>
      <point x="172,438" y="120,125" type="qcurve" smooth="yes"/>
      <point x="152,126" y="44,125" type="line"/>
      <point x="130,001" y="44,125" type="line"/>
      <point x="130,001" y="88,375" type="line"/>
      <point x="111,655" y="88,375"/>
      <point x="85,6885" y="114,342"/>
      <point x="85,6885" y="151,035"/>
      <point x="111,655" y="177"/>
    </contour>
    <contour>
      <point x="148,346" y="487,221"/>
      <point x="174,312" y="461,254"/>
      <point x="174,312" y="424,568"/>
      <point x="148,352" y="398,658"/>
      <point x="111,654" y="398,658"/>
      <point x="85,75" y="424,562"/>
      <point x="85,75" y="461,26"/>
      <point x="111,66" y="487,221"/>
    </contour>
  </outline>
</glyph>
<glyph name="less" format="1">
  <advance width="450"/>
  <unicode hex="003C"/>
  <outline>
    <contour>
      <point x="120" y="377" type="line" smooth="yes"/>
      <point x="120" y="379"/>
      <point x="122" y="381" type="qcurve" smooth="yes"/>
      <point x="324" y="541" type="line" smooth="yes"/>
      <point x="326" y="543"/>
      <point x="331" y="540"/>
      <point x="331" y="537" type="qcurve" smooth="yes"/>
      <point x="331" y="460" type="line" smooth="yes"/>
      <point x="331" y="458"/>
      <point x="329" y="457" type="qcurve" smooth="yes"/>
      <point x="175" y="332" type="line"/>
      <point x="329" y="205" type="line" smooth="yes"/>
      <point x="331" y="204"/>
      <point x="331" y="202" type="qcurve" smooth="yes"/>
      <point x="331" y="125" type="line" smooth="yes"/>
      <point x="331" y="122"/>
      <point x="326" y="119"/>
      <point x="324" y="121" type="qcurve" smooth="yes"/>
      <point x="122" y="284" type="line" smooth="yes"/>
      <point x="120" y="285"/>
      <point x="120" y="287" type="qcurve" smooth="yes"/>
    </contour>
  </outline>
</glyph>
<glyph name="equal" format="1">
  <advance width="450"/>
  <unicode hex="003D"/>
  <outline>
    <contour>
      <point x="75" y="356" type="qcurve" smooth="yes"/>
      <point x="375" y="356" type="line" smooth="yes"/>
      <point x="382" y="356"/>
      <point x="382" y="349" type="qcurve" smooth="yes"/>
      <point x="382" y="275" type="line" smooth="yes"/>
      <point x="382" y="268"/>
      <point x="375" y="268" type="qcurve" smooth="yes"/>
      <point x="75" y="268" type="line" smooth="yes"/>
      <point x="68" y="268"/>
      <point x="68" y="275" type="qcurve" smooth="yes"/>
      <point x="68" y="349" type="line" smooth="yes"/>
      <point x="68" y="356"/>
    </contour>
    <contour>
      <point x="75" y="192" type="qcurve" smooth="yes"/>
      <point x="375" y="192" type="line" smooth="yes"/>
      <point x="382" y="192"/>
      <point x="382" y="185" type="qcurve" smooth="yes"/>
      <point x="382" y="111" type="line" smooth="yes"/>
      <point x="382" y="104"/>
      <point x="375" y="104" type="qcurve" smooth="yes"/>
      <point x="75" y="104" type="line" smooth="yes"/>
      <point x="68" y="104"/>
      <point x="68" y="111" type="qcurve" smooth="yes"/>
      <point x="68" y="185" type="line" smooth="yes"/>
      <point x="68" y="192"/>
    </contour>
  </outline>
</glyph>
<glyph name="greater" format="1">
  <advance width="450"/>
  <unicode hex="003E"/>
  <outline>
    <contour>
      <point x="331" y="285" type="line" smooth="yes"/>
      <point x="331" y="283"/>
      <point x="329" y="281" type="qcurve" smooth="yes"/>
      <point x="127" y="121" type="line" smooth="yes"/>
      <point x="125" y="119"/>
      <point x="120" y="122"/>
      <point x="120" y="125" type="qcurve" smooth="yes"/>
      <point x="120" y="202" type="line" smooth="yes"/>
      <point x="120" y="204"/>
      <point x="122" y="205" type="qcurve" smooth="yes"/>
      <point x="276" y="330" type="line"/>
      <point x="122" y="457" type="line" smooth="yes"/>
      <point x="120" y="458"/>
      <point x="120" y="460" type="qcurve" smooth="yes"/>
      <point x="120" y="537" type="line" smooth="yes"/>
      <point x="120" y="540"/>
      <point x="125" y="543"/>
      <point x="127" y="541" type="qcurve" smooth="yes"/>
      <point x="329" y="378" type="line" smooth="yes"/>
      <point x="331" y="377"/>
      <point x="331" y="375" type="qcurve" smooth="yes"/>
    </contour>
  </outline>
</glyph>
<glyph name="question" format="1">
  <advance width="450"/>
  <unicode hex="003F"/>
  <outline>
    <contour>
      <point x="298,672" y="708,688"/>
      <point x="402,376" y="604,968"/>
      <point x="402,379" y="458,302"/>
      <point x="350,527" y="406,438" type="qcurve" smooth="yes"/>
      <point x="287,965" y="343,876" type="line" smooth="yes"/>
      <point x="262,015" y="317,985"/>
      <point x="261,965" y="281,251" type="qcurve" smooth="yes"/>
      <point x="261,84" y="133,001" type="line"/>
      <point x="173,527" y="133,001" type="line"/>
      <point x="173,527" y="281,251" type="line" smooth="yes"/>
      <point x="173,551" y="354,579"/>
      <point x="225,402" y="406,438" type="qcurve" smooth="yes"/>
      <point x="287,965" y="469,001" type="line" smooth="yes"/>
      <point x="313,912" y="494,888"/>
      <point x="313,913" y="568,282"/>
      <point x="262,055" y="620,126"/>
      <point x="225,402" y="620,126" type="qcurve" smooth="yes"/>
      <point x="225,34" y="620,251" type="line"/>
      <point x="188,683" y="620,2"/>
      <point x="136,84" y="568,341"/>
      <point x="136,84" y="531,688" type="qcurve" smooth="yes"/>
      <point x="136,84" y="531,626" type="line"/>
      <point x="48,2773" y="531,626" type="line"/>
      <point x="48,2773" y="604,958"/>
      <point x="151,998" y="708,663"/>
    </contour>
    <contour>
      <point x="236,186" y="88,626"/>
      <point x="262,152" y="62,6592"/>
      <point x="262,152" y="44,3135" type="qcurve" smooth="yes"/>
      <point x="262,152" y="39,8428"/>
      <point x="261,277" y="35,501" type="qcurve" smooth="yes"/>
      <point x="258,187" y="20,1885"/>
      <point x="233,788" y="0,000976562"/>
      <point x="217,84" y="0,000976562" type="qcurve" smooth="yes"/>
      <point x="199,499" y="0,000976562"/>
      <point x="173,59" y="25,9619"/>
      <point x="173,59" y="62,667"/>
      <point x="199,499" y="88,626"/>
    </contour>
  </outline>
</glyph>
<glyph name="at" format="1">
  <advance width="715"/>
  <unicode hex="0040"/>
  <outline>
    <contour>
      <point x="486,228" y="664,325"/>
      <point x="667,777" y="482,724"/>
      <point x="667,777" y="354,324" type="qcurve" smooth="yes"/>
      <point x="667,777" y="132,889" type="line" smooth="yes"/>
      <point x="667,777" y="77,8496"/>
      <point x="589,94" y="0,0117188"/>
      <point x="534,902" y="0,0117188" type="qcurve" smooth="yes"/>
      <point x="484,207" y="0,0117188"/>
      <point x="446,402" y="33,8242" type="qcurve"/>
      <point x="408,626" y="0,0117188"/>
      <point x="357,84" y="0,0117188" type="qcurve" smooth="yes"/>
      <point x="302,803" y="0,0117188"/>
      <point x="224,965" y="77,8496"/>
      <point x="224,965" y="132,887" type="qcurve" smooth="yes"/>
      <point x="224,965" y="354,324" type="line" smooth="yes"/>
      <point x="224,904" y="409,362"/>
      <point x="302,741" y="487,199"/>
      <point x="357,779" y="487,199" type="qcurve" smooth="yes"/>
      <point x="380,718" y="487,199"/>
      <point x="402,092" y="479,637" type="qcurve"/>
      <point x="402,092" y="487,949" type="line"/>
      <point x="490,654" y="487,949" type="line"/>
      <point x="490,654" y="132,887" type="line" smooth="yes"/>
      <point x="490,715" y="132,378"/>
      <point x="490,68" y="131,375" type="qcurve" smooth="yes"/>
      <point x="491,547" y="112,982"/>
      <point x="517,171" y="88,5742"/>
      <point x="534,904" y="88,5742" type="qcurve" smooth="yes"/>
      <point x="553,256" y="88,6367"/>
      <point x="579,217" y="114,547"/>
      <point x="579,217" y="132,887" type="qcurve" smooth="yes"/>
      <point x="579,217" y="354,324" type="line" smooth="yes"/>
      <point x="579,277" y="446,061"/>
      <point x="449,565" y="575,824"/>
      <point x="266,127" y="575,824"/>
      <point x="136,366" y="446,098"/>
      <point x="136,34" y="354,387" type="qcurve" smooth="yes"/>
      <point x="136,34" y="132,887" type="line"/>
      <point x="47,7148" y="132,887" type="line"/>
      <point x="47,7148" y="354,387" type="line" smooth="yes"/>
      <point x="47,8643" y="482,76"/>
      <point x="229,464" y="664,324"/>
    </contour>
    <contour>
      <point x="339,438" y="398,637"/>
      <point x="313,527" y="372,676"/>
      <point x="313,527" y="354,324" type="qcurve"/>
      <point x="313,467" y="132,887" type="line" smooth="yes"/>
      <point x="313,59" y="114,535"/>
      <point x="339,5" y="88,5742"/>
      <point x="357,84" y="88,5742" type="qcurve" smooth="yes"/>
      <point x="375,566" y="88,5742"/>
      <point x="401,197" y="113,039"/>
      <point x="402,09" y="130,637" type="qcurve" smooth="yes"/>
      <point x="402,085" y="130,944"/>
      <point x="402,057" y="131,708" type="qcurve" smooth="yes"/>
      <point x="402,09" y="132,887" type="line"/>
      <point x="402,09" y="354,324" type="line" smooth="yes"/>
      <point x="402,09" y="372,67"/>
      <point x="376,123" y="398,637"/>
    </contour>
    <contour>
      <point x="47,8398" y="132,824" type="qcurve"/>
      <point x="136,34" y="132,826" type="line"/>
      <point x="136,34" y="41,1289"/>
      <point x="266,025" y="-88,624"/>
      <point x="357,715" y="-88,6738" type="qcurve"/>
      <point x="579,213" y="-88,5508" type="line"/>
      <point x="579,213" y="-177,176" type="line"/>
      <point x="357,84" y="-177,176" type="line" smooth="yes"/>
      <point x="229,362" y="-177,124"/>
      <point x="47,8398" y="4,46582"/>
    </contour>
  </outline>
</glyph>
<glyph name="A" format="1">
  <advance width="450"/>
  <unicode hex="0041"/>
  <outline>
    <contour>
      <point x="399" y="2" type="line" smooth="yes"/>
      <point x="399" y="1" type="line" smooth="yes"/>
      <point x="399" y="-4"/>
      <point x="394" y="-4" type="qcurve" smooth="yes"/>
      <point x="317" y="-4" type="line" smooth="yes"/>
      <point x="312" y="-4"/>
      <point x="312" y="0" type="qcurve" smooth="yes"/>
      <point x="289" y="123" type="line" smooth="yes"/>
      <point x="288" y="127"/>
      <point x="284" y="127" type="qcurve" smooth="yes"/>
      <point x="167" y="127" type="line" smooth="yes"/>
      <point x="162" y="127"/>
      <point x="161" y="123" type="qcurve" smooth="yes"/>
      <point x="138" y="0" type="line" smooth="yes"/>
      <point x="138" y="-4"/>
      <point x="133" y="-4" type="qcurve" smooth="yes"/>
      <point x="56" y="-4" type="line"/>
      <point x="56" y="-4" type="line"/>
      <point x="50" y="-3"/>
      <point x="51" y="2" type="qcurve" smooth="yes"/>
      <point x="181" y="691" type="line" smooth="yes"/>
      <point x="181" y="695"/>
      <point x="186" y="695" type="qcurve" smooth="yes"/>
      <point x="264" y="695" type="line" smooth="yes"/>
      <point x="269" y="695"/>
      <point x="270" y="691" type="qcurve" smooth="yes"/>
    </contour>
    <contour>
      <point x="265" y="214" type="line" smooth="yes"/>
      <point x="270" y="214"/>
      <point x="270" y="220" type="qcurve" smooth="yes"/>
      <point x="270" y="221" type="line" smooth="yes"/>
      <point x="230" y="435" type="line" smooth="yes"/>
      <point x="229" y="440"/>
      <point x="224" y="439" type="qcurve" smooth="yes"/>
      <point x="221" y="438"/>
      <point x="220" y="435" type="qcurve" smooth="yes"/>
      <point x="180" y="221" type="line" smooth="yes"/>
      <point x="179" y="215"/>
      <point x="184" y="214" type="qcurve"/>
      <point x="185" y="214" type="line" smooth="yes"/>
    </contour>
  </outline>
</glyph>
<glyph name="B" format="1">
  <advance width="450"/>
  <unicode hex="0042"/>
  <outline>
    <contour>
      <point x="320" y="374" type="qcurve"/>
      <point x="358" y="345"/>
      <point x="400" y="258"/>
      <point x="400" y="210" type="qcurve" smooth="yes"/>
      <point x="400" y="123"/>
      <point x="277" y="0"/>
      <point x="190" y="0" type="qcurve" smooth="yes"/>
      <point x="55" y="0" type="line" smooth="yes"/>
      <point x="50" y="0"/>
      <point x="50" y="5" type="qcurve" smooth="yes"/>
      <point x="50" y="694" type="line" smooth="yes"/>
      <point x="50" y="699"/>
      <point x="55" y="699" type="qcurve" smooth="yes"/>
      <point x="203" y="699" type="line" smooth="yes"/>
      <point x="244" y="699"/>
      <point x="318" y="665"/>
      <point x="345" y="633" type="qcurve" smooth="yes"/>
      <point x="393" y="574"/>
      <point x="379" y="423"/>
    </contour>
    <contour>
      <point x="138" y="607" type="qcurve" smooth="yes"/>
      <point x="138" y="425" type="line" smooth="yes"/>
      <point x="138" y="420"/>
      <point x="143" y="420" type="qcurve" smooth="yes"/>
      <point x="203" y="420" type="line" smooth="yes"/>
      <point x="243" y="420"/>
      <point x="299" y="476"/>
      <point x="299" y="556"/>
      <point x="243" y="612"/>
      <point x="203" y="612" type="qcurve" smooth="yes"/>
      <point x="143" y="612" type="line" smooth="yes"/>
      <point x="138" y="612"/>
    </contour>
    <contour>
      <point x="190" y="87" type="line" smooth="yes"/>
      <point x="241" y="87"/>
      <point x="312" y="159"/>
      <point x="312" y="261"/>
      <point x="241" y="332"/>
      <point x="190" y="332" type="qcurve" smooth="yes"/>
      <point x="143" y="332" type="line" smooth="yes"/>
      <point x="138" y="332"/>
      <point x="138" y="327" type="qcurve" smooth="yes"/>
      <point x="138" y="93" type="line" smooth="yes"/>
      <point x="138" y="87"/>
      <point x="143" y="87" type="qcurve" smooth="yes"/>
    </contour>
  </outline>
</glyph>
<glyph name="C" format="1">
  <advance width="450"/>
  <unicode hex="0043"/>
  <outline>
    <contour>
      <point x="312" y="531" type="qcurve" smooth="yes"/>
      <point x="310" y="567"/>
      <point x="256" y="615"/>
      <point x="220" y="613" type="qcurve" smooth="yes"/>
      <point x="185" y="611"/>
      <point x="138" y="561"/>
      <point x="138" y="526" type="qcurve" smooth="yes"/>
      <point x="138" y="176" type="line" smooth="yes"/>
      <point x="138" y="140"/>
      <point x="189" y="89"/>
      <point x="225" y="89" type="qcurve" smooth="yes"/>
      <point x="260" y="89"/>
      <point x="310" y="136"/>
      <point x="312" y="171" type="qcurve" smooth="yes"/>
      <point x="313" y="176"/>
      <point x="318" y="176" type="qcurve" smooth="yes"/>
      <point x="395" y="176" type="line" smooth="yes"/>
      <point x="400" y="176"/>
      <point x="400" y="171" type="qcurve" smooth="yes"/>
      <point x="398" y="100"/>
      <point x="296" y="1"/>
      <point x="225" y="1" type="qcurve" smooth="yes"/>
      <point x="153" y="1"/>
      <point x="50" y="104"/>
      <point x="50" y="176" type="qcurve" smooth="yes"/>
      <point x="50" y="526" type="line" smooth="yes"/>
      <point x="50" y="597"/>
      <point x="149" y="698"/>
      <point x="220" y="701" type="qcurve"/>
      <point x="292" y="703"/>
      <point x="398" y="604"/>
      <point x="400" y="531" type="qcurve" smooth="yes"/>
      <point x="400" y="526"/>
      <point x="395" y="526" type="qcurve" smooth="yes"/>
      <point x="318" y="526" type="line" smooth="yes"/>
      <point x="313" y="526"/>
    </contour>
  </outline>
</glyph>
<glyph name="D" format="1">
  <advance width="450"/>
  <unicode hex="0044"/>
  <outline>
    <contour>
      <point x="225" y="699" type="line" smooth="yes"/>
      <point x="297" y="699"/>
      <point x="400" y="597"/>
      <point x="400" y="525" type="qcurve" smooth="yes"/>
      <point x="400" y="175" type="line" smooth="yes"/>
      <point x="400" y="102"/>
      <point x="297" y="0"/>
      <point x="225" y="0" type="qcurve" smooth="yes"/>
      <point x="55" y="0" type="line" smooth="yes"/>
      <point x="50" y="0"/>
      <point x="50" y="5" type="qcurve" smooth="yes"/>
      <point x="50" y="694" type="line" smooth="yes"/>
      <point x="50" y="699"/>
      <point x="55" y="699" type="qcurve" smooth="yes"/>
    </contour>
    <contour>
      <point x="312" y="175" type="qcurve" smooth="yes"/>
      <point x="312" y="525" type="line" smooth="yes"/>
      <point x="312" y="561"/>
      <point x="261" y="612"/>
      <point x="225" y="612" type="qcurve" smooth="yes"/>
      <point x="143" y="612" type="line" smooth="yes"/>
      <point x="138" y="612"/>
      <point x="138" y="607" type="qcurve" smooth="yes"/>
      <point x="138" y="93" type="line" smooth="yes"/>
      <point x="138" y="87"/>
      <point x="143" y="87" type="qcurve" smooth="yes"/>
      <point x="225" y="87" type="line" smooth="yes"/>
      <point x="261" y="87"/>
      <point x="312" y="139"/>
    </contour>
  </outline>
</glyph>
<glyph name="F" format="1">
  <advance width="450"/>
  <unicode hex="0046"/>
  <outline>
    <contour>
      <point x="50" y="5" type="qcurve" smooth="yes"/>
      <point x="50" y="694" type="line" smooth="yes"/>
      <point x="50" y="699"/>
      <point x="55" y="699" type="qcurve" smooth="yes"/>
      <point x="395" y="699" type="line" smooth="yes"/>
      <point x="400" y="699"/>
      <point x="400" y="694" type="qcurve" smooth="yes"/>
      <point x="400" y="617" type="line" smooth="yes"/>
      <point x="400" y="612"/>
      <point x="395" y="612" type="qcurve" smooth="yes"/>
      <point x="143" y="612" type="line" smooth="yes"/>
      <point x="138" y="612"/>
      <point x="138" y="607" type="qcurve" smooth="yes"/>
      <point x="138" y="399" type="line" smooth="yes"/>
      <point x="138" y="393"/>
      <point x="143" y="393" type="qcurve" smooth="yes"/>
      <point x="307" y="393" type="line" smooth="yes"/>
      <point x="312" y="393"/>
      <point x="312" y="388" type="qcurve" smooth="yes"/>
      <point x="312" y="311" type="line" smooth="yes"/>
      <point x="312" y="306"/>
      <point x="307" y="306" type="qcurve" smooth="yes"/>
      <point x="143" y="306" type="line" smooth="yes"/>
      <point x="138" y="306"/>
      <point x="138" y="301" type="qcurve" smooth="yes"/>
      <point x="138" y="5" type="line" smooth="yes"/>
      <point x="138" y="0"/>
      <point x="132" y="0" type="qcurve" smooth="yes"/>
      <point x="55" y="0" type="line" smooth="yes"/>
      <point x="50" y="0"/>
    </contour>
  </outline>
</glyph>
<glyph name="G" format="1">
  <advance width="450"/>
  <unicode hex="0047"/>
  <outline>
    <contour>
      <point x="395" y="368" type="line" smooth="yes"/>
      <point x="400" y="368"/>
      <point x="400" y="363" type="qcurve" smooth="yes"/>
      <point x="400" y="6" type="line" smooth="yes"/>
      <point x="400" y="1"/>
      <point x="395" y="1" type="qcurve" smooth="yes"/>
      <point x="318" y="1" type="line" smooth="yes"/>
      <point x="312" y="1"/>
      <point x="312" y="6" type="qcurve" smooth="yes"/>
      <point x="312" y="15" type="line" smooth="yes"/>
      <point x="312" y="21"/>
      <point x="307" y="21" type="qcurve" smooth="yes"/>
      <point x="306" y="21"/>
      <point x="305" y="20" type="qcurve" smooth="yes"/>
      <point x="267" y="1"/>
      <point x="225" y="1" type="qcurve" smooth="yes"/>
      <point x="153" y="1"/>
      <point x="50" y="103"/>
      <point x="50" y="176" type="qcurve" smooth="yes"/>
      <point x="50" y="525" type="line" smooth="yes"/>
      <point x="50" y="596"/>
      <point x="149" y="698"/>
      <point x="220" y="700" type="qcurve" smooth="yes"/>
      <point x="292" y="702"/>
      <point x="398" y="603"/>
      <point x="400" y="531" type="qcurve" smooth="yes"/>
      <point x="400" y="525"/>
      <point x="395" y="525" type="qcurve" smooth="yes"/>
      <point x="318" y="525" type="line" smooth="yes"/>
      <point x="313" y="525"/>
      <point x="312" y="530" type="qcurve" smooth="yes"/>
      <point x="310" y="566"/>
      <point x="256" y="615"/>
      <point x="220" y="613" type="qcurve" smooth="yes"/>
      <point x="185" y="611"/>
      <point x="138" y="560"/>
      <point x="138" y="525" type="qcurve" smooth="yes"/>
      <point x="138" y="176" type="line" smooth="yes"/>
      <point x="138" y="139"/>
      <point x="189" y="88"/>
      <point x="261" y="88"/>
      <point x="312" y="139"/>
      <point x="312" y="176" type="qcurve" smooth="yes"/>
      <point x="312" y="275" type="line" smooth="yes"/>
      <point x="312" y="281"/>
      <point x="307" y="281" type="qcurve" smooth="yes"/>
      <point x="230" y="281" type="line" smooth="yes"/>
      <point x="225" y="281"/>
      <point x="225" y="286" type="qcurve" smooth="yes"/>
      <point x="225" y="363" type="line" smooth="yes"/>
      <point x="225" y="368"/>
      <point x="230" y="368" type="qcurve" smooth="yes"/>
    </contour>
  </outline>
</glyph>
<glyph name="H" format="1">
  <advance width="450"/>
  <unicode hex="0048"/>
  <outline>
    <contour>
      <point x="318" y="699" type="line" smooth="yes"/>
      <point x="312" y="699"/>
      <point x="312" y="694" type="qcurve" smooth="yes"/>
      <point x="312" y="399" type="line" smooth="yes"/>
      <point x="312" y="393"/>
      <point x="307" y="393" type="qcurve" smooth="yes"/>
      <point x="143" y="393" type="line" smooth="yes"/>
      <point x="138" y="393"/>
      <point x="138" y="399" type="qcurve" smooth="yes"/>
      <point x="138" y="694" type="line" smooth="yes"/>
      <point x="138" y="699"/>
      <point x="132" y="699" type="qcurve" smooth="yes"/>
      <point x="55" y="699" type="line" smooth="yes"/>
      <point x="50" y="699"/>
      <point x="50" y="694" type="qcurve" smooth="yes"/>
      <point x="50" y="5" type="line" smooth="yes"/>
      <point x="50" y="0"/>
      <point x="55" y="0" type="qcurve" smooth="yes"/>
      <point x="132" y="0" type="line" smooth="yes"/>
      <point x="138" y="0"/>
      <point x="138" y="5" type="qcurve" smooth="yes"/>
      <point x="138" y="301" type="line" smooth="yes"/>
      <point x="138" y="306"/>
      <point x="143" y="306" type="qcurve" smooth="yes"/>
      <point x="307" y="306" type="line" smooth="yes"/>
      <point x="312" y="306"/>
      <point x="312" y="301" type="qcurve" smooth="yes"/>
      <point x="312" y="5" type="line" smooth="yes"/>
      <point x="312" y="0"/>
      <point x="318" y="0" type="qcurve" smooth="yes"/>
      <point x="395" y="0" type="line" smooth="yes"/>
      <point x="400" y="0"/>
      <point x="400" y="5" type="qcurve" smooth="yes"/>
      <point x="400" y="694" type="line" smooth="yes"/>
      <point x="400" y="699"/>
      <point x="395" y="699" type="qcurve" smooth="yes"/>
    </contour>
  </outline>
</glyph>
<glyph name="I" format="1">
  <advance width="261"/>
  <unicode hex="0049"/>
  <outline>
    <contour>
      <point x="87" y="694" type="line" smooth="yes"/>
      <point x="87" y="699"/>
      <point x="92" y="699" type="qcurve" smooth="yes"/>
      <point x="169" y="699" type="line" smooth="yes"/>
      <point x="174" y="699"/>
      <point x="174" y="694" type="qcurve" smooth="yes"/>
      <point x="174" y="5" type="line" smooth="yes"/>
      <point x="174" y="0"/>
      <point x="169" y="0" type="qcurve" smooth="yes"/>
      <point x="92" y="0" type="line" smooth="yes"/>
      <point x="87" y="0"/>
      <point x="87" y="5" type="qcurve" smooth="yes"/>
    </contour>
  </outline>
</glyph>
<glyph name="J" format="1">
  <advance width="450"/>
  <unicode hex="004A"/>
  <outline>
    <contour>
      <point x="318" y="699" type="qcurve" smooth="yes"/>
      <point x="395" y="699" type="line" smooth="yes"/>
      <point x="400" y="699"/>
      <point x="400" y="694" type="qcurve" smooth="yes"/>
      <point x="400" y="175" type="line" smooth="yes"/>
      <point x="400" y="104"/>
      <point x="301" y="2"/>
      <point x="230" y="0" type="qcurve" smooth="yes"/>
      <point x="158" y="-2"/>
      <point x="52" y="97"/>
      <point x="50" y="169" type="qcurve" smooth="yes"/>
      <point x="50" y="175"/>
      <point x="55" y="175" type="qcurve" smooth="yes"/>
      <point x="132" y="175" type="line" smooth="yes"/>
      <point x="137" y="175"/>
      <point x="138" y="170" type="qcurve" smooth="yes"/>
      <point x="140" y="134"/>
      <point x="194" y="85"/>
      <point x="230" y="87" type="qcurve" smooth="yes"/>
      <point x="265" y="89"/>
      <point x="312" y="140"/>
      <point x="312" y="175" type="qcurve" smooth="yes"/>
      <point x="312" y="694" type="line" smooth="yes"/>
      <point x="312" y="699"/>
    </contour>
  </outline>
</glyph>
<glyph name="K" format="1">
  <advance width="450"/>
  <unicode hex="004B"/>
  <outline>
    <contour>
      <point x="52" y="5" type="qcurve" smooth="yes"/>
      <point x="52" y="694" type="line" smooth="yes"/>
      <point x="52" y="699"/>
      <point x="57" y="699" type="qcurve" smooth="yes"/>
      <point x="134" y="699" type="line" smooth="yes"/>
      <point x="139" y="699"/>
      <point x="139" y="694" type="qcurve" smooth="yes"/>
      <point x="139" y="456" type="line" smooth="yes"/>
      <point x="139" y="451"/>
      <point x="145" y="451" type="qcurve" smooth="yes"/>
      <point x="148" y="451"/>
      <point x="149" y="453" type="qcurve" smooth="yes"/>
      <point x="298" y="697" type="line" smooth="yes"/>
      <point x="299" y="699"/>
      <point x="302" y="699" type="qcurve" smooth="yes"/>
      <point x="392" y="699" type="line" smooth="yes"/>
      <point x="395" y="699" type="line" smooth="yes"/>
      <point x="400" y="696"/>
      <point x="397" y="691" type="qcurve" smooth="yes"/>
      <point x="190" y="352" type="line" smooth="yes"/>
      <point x="189" y="350"/>
      <point x="190" y="347" type="qcurve" smooth="yes"/>
      <point x="397" y="8" type="line" smooth="yes"/>
      <point x="398" y="7"/>
      <point x="398" y="5" type="qcurve" smooth="yes"/>
      <point x="398" y="0"/>
      <point x="392" y="0" type="qcurve" smooth="yes"/>
      <point x="302" y="0" type="line" smooth="yes"/>
      <point x="299" y="0"/>
      <point x="298" y="3" type="qcurve" smooth="yes"/>
      <point x="149" y="246" type="line" smooth="yes"/>
      <point x="146" y="251"/>
      <point x="142" y="248" type="qcurve"/>
      <point x="139" y="247"/>
      <point x="139" y="244" type="qcurve" smooth="yes"/>
      <point x="139" y="5" type="line"/>
      <point x="134" y="0" type="line"/>
      <point x="57" y="0" type="line" smooth="yes"/>
      <point x="52" y="0"/>
    </contour>
  </outline>
</glyph>
<glyph name="L" format="1">
  <advance width="450"/>
  <unicode hex="004C"/>
  <outline>
    <contour>
      <point x="132" y="699" type="line" smooth="yes"/>
      <point x="138" y="699"/>
      <point x="138" y="694" type="qcurve" smooth="yes"/>
      <point x="138" y="93" type="line" smooth="yes"/>
      <point x="138" y="87"/>
      <point x="143" y="87" type="qcurve" smooth="yes"/>
      <point x="395" y="87" type="line" smooth="yes"/>
      <point x="400" y="87"/>
      <point x="400" y="82" type="qcurve" smooth="yes"/>
      <point x="400" y="5" type="line" smooth="yes"/>
      <point x="400" y="0"/>
      <point x="395" y="0" type="qcurve" smooth="yes"/>
      <point x="55" y="0" type="line" smooth="yes"/>
      <point x="50" y="0"/>
      <point x="50" y="5" type="qcurve" smooth="yes"/>
      <point x="50" y="694" type="line" smooth="yes"/>
      <point x="50" y="699"/>
      <point x="55" y="699" type="qcurve" smooth="yes"/>
    </contour>
  </outline>
</glyph>
<glyph name="M" format="1">
  <advance width="450"/>
  <unicode hex="004D"/>
  <outline>
    <contour>
      <point x="400" y="5" type="line" smooth="yes"/>
      <point x="400" y="0"/>
      <point x="395" y="0" type="qcurve" smooth="yes"/>
      <point x="318" y="0" type="line" smooth="yes"/>
      <point x="312" y="0"/>
      <point x="312" y="5" type="qcurve" smooth="yes"/>
      <point x="312" y="398" type="line" smooth="yes"/>
      <point x="312" y="404"/>
      <point x="307" y="404" type="qcurve" smooth="yes"/>
      <point x="303" y="404"/>
      <point x="302" y="400" type="qcurve" smooth="yes"/>
      <point x="230" y="189" type="line" smooth="yes"/>
      <point x="229" y="187"/>
      <point x="227" y="186" type="qcurve" smooth="yes"/>
      <point x="222" y="184"/>
      <point x="220" y="189" type="qcurve" smooth="yes"/>
      <point x="148" y="400" type="line" smooth="yes"/>
      <point x="146" y="405"/>
      <point x="141" y="403" type="qcurve" smooth="yes"/>
      <point x="138" y="402"/>
      <point x="138" y="398" type="qcurve" smooth="yes"/>
      <point x="138" y="5" type="line" smooth="yes"/>
      <point x="138" y="0"/>
      <point x="132" y="0" type="qcurve" smooth="yes"/>
      <point x="55" y="0" type="line" smooth="yes"/>
      <point x="50" y="0"/>
      <point x="50" y="5" type="qcurve" smooth="yes"/>
      <point x="50" y="694" type="line" smooth="yes"/>
      <point x="50" y="699"/>
      <point x="55" y="699" type="qcurve" smooth="yes"/>
      <point x="134" y="699" type="line" smooth="yes"/>
      <point x="138" y="699"/>
      <point x="139" y="696" type="qcurve" smooth="yes"/>
      <point x="220" y="459" type="line" smooth="yes"/>
      <point x="222" y="454"/>
      <point x="227" y="456" type="qcurve" smooth="yes"/>
      <point x="229" y="456"/>
      <point x="230" y="459" type="qcurve" smooth="yes"/>
      <point x="311" y="696" type="line" smooth="yes"/>
      <point x="312" y="699"/>
      <point x="316" y="699" type="qcurve" smooth="yes"/>
      <point x="395" y="699" type="line" smooth="yes"/>
      <point x="400" y="699"/>
      <point x="400" y="694" type="qcurve" smooth="yes"/>
    </contour>
  </outline>
</glyph>
<glyph name="N" format="1">
  <advance width="450"/>
  <unicode hex="004E"/>
  <outline>
    <contour>
      <point x="50" y="5" type="qcurve" smooth="yes"/>
      <point x="50" y="694" type="line" smooth="yes"/>
      <point x="50" y="699"/>
      <point x="55" y="699" type="qcurve" smooth="yes"/>
      <point x="134" y="699" type="line" smooth="yes"/>
      <point x="138" y="699"/>
      <point x="139" y="696" type="qcurve" smooth="yes"/>
      <point x="302" y="270" type="line" smooth="yes"/>
      <point x="304" y="265"/>
      <point x="309" y="267" type="qcurve" smooth="yes"/>
      <point x="312" y="269"/>
      <point x="312" y="272" type="qcurve" smooth="yes"/>
      <point x="312" y="694" type="line" smooth="yes"/>
      <point x="312" y="699"/>
      <point x="318" y="699" type="qcurve" smooth="yes"/>
      <point x="395" y="699" type="line" smooth="yes"/>
      <point x="400" y="699"/>
      <point x="400" y="694" type="qcurve" smooth="yes"/>
      <point x="400" y="5" type="line" smooth="yes"/>
      <point x="400" y="0"/>
      <point x="395" y="0" type="qcurve" smooth="yes"/>
      <point x="316" y="0" type="line" smooth="yes"/>
      <point x="312" y="0"/>
      <point x="311" y="3" type="qcurve" smooth="yes"/>
      <point x="148" y="429" type="line" smooth="yes"/>
      <point x="146" y="434"/>
      <point x="141" y="432" type="qcurve" smooth="yes"/>
      <point x="138" y="431"/>
      <point x="138" y="427" type="qcurve" smooth="yes"/>
      <point x="138" y="5" type="line" smooth="yes"/>
      <point x="138" y="0"/>
      <point x="132" y="0" type="qcurve" smooth="yes"/>
      <point x="55" y="0" type="line" smooth="yes"/>
      <point x="50" y="0"/>
    </contour>
  </outline>
</glyph>
<glyph name="P" format="1">
  <advance width="450"/>
  <unicode hex="0050"/>
  <outline>
    <contour>
      <point x="55" y="699" type="qcurve" smooth="yes"/>
      <point x="190" y="699" type="line" smooth="yes"/>
      <point x="277" y="699"/>
      <point x="400" y="577"/>
      <point x="400" y="403"/>
      <point x="277" y="280"/>
      <point x="190" y="280" type="qcurve" smooth="yes"/>
      <point x="143" y="280" type="line" smooth="yes"/>
      <point x="138" y="280"/>
      <point x="138" y="275" type="qcurve" smooth="yes"/>
      <point x="138" y="5" type="line" smooth="yes"/>
      <point x="138" y="0"/>
      <point x="132" y="0" type="qcurve" smooth="yes"/>
      <point x="55" y="0" type="line" smooth="yes"/>
      <point x="50" y="0"/>
      <point x="50" y="5" type="qcurve" smooth="yes"/>
      <point x="50" y="694" type="line" smooth="yes"/>
      <point x="50" y="699"/>
    </contour>
    <contour>
      <point x="143" y="612" type="line" smooth="yes"/>
      <point x="138" y="612"/>
      <point x="138" y="607" type="qcurve" smooth="yes"/>
      <point x="138" y="372" type="line" smooth="yes"/>
      <point x="138" y="367"/>
      <point x="143" y="367" type="qcurve" smooth="yes"/>
      <point x="190" y="367" type="line" smooth="yes"/>
      <point x="241" y="367"/>
      <point x="313" y="439"/>
      <point x="313" y="540"/>
      <point x="241" y="612"/>
      <point x="190" y="612" type="qcurve" smooth="yes"/>
    </contour>
  </outline>
</glyph>
<glyph name="Q" format="1">
  <advance width="450"/>
  <unicode hex="0051"/>
  <outline>
    <contour>
      <point x="224" y="699" type="qcurve" smooth="yes"/>
      <point x="297" y="700"/>
      <point x="400" y="598"/>
      <point x="400" y="525" type="qcurve" smooth="yes"/>
      <point x="400" y="176" type="line" smooth="yes"/>
      <point x="400" y="126"/>
      <point x="374" y="83" type="qcurve" smooth="yes"/>
      <point x="373" y="81"/>
      <point x="373" y="79" type="qcurve" smooth="yes"/>
      <point x="398" y="7" type="line" smooth="yes"/>
      <point x="398" y="5" type="line" smooth="yes"/>
      <point x="398" y="0"/>
      <point x="393" y="0" type="qcurve" smooth="yes"/>
      <point x="311" y="0" type="line" smooth="yes"/>
      <point x="308" y="0"/>
      <point x="306" y="4" type="qcurve" smooth="yes"/>
      <point x="304" y="12" type="line" smooth="yes"/>
      <point x="302" y="17"/>
      <point x="297" y="15" type="qcurve"/>
      <point x="296" y="15" type="line" smooth="yes"/>
      <point x="262" y="0"/>
      <point x="225" y="0" type="qcurve" smooth="yes"/>
      <point x="153" y="0"/>
      <point x="50" y="102"/>
      <point x="50" y="175" type="qcurve" smooth="yes"/>
      <point x="50" y="525" type="line" smooth="yes"/>
      <point x="50" y="597"/>
      <point x="152" y="699"/>
    </contour>
    <contour>
      <point x="189" y="612"/>
      <point x="138" y="561"/>
      <point x="138" y="525" type="qcurve" smooth="yes"/>
      <point x="138" y="175" type="line" smooth="yes"/>
      <point x="138" y="139"/>
      <point x="189" y="87"/>
      <point x="261" y="87"/>
      <point x="312" y="139"/>
      <point x="312" y="175" type="qcurve" smooth="yes"/>
      <point x="312" y="525" type="line" smooth="yes"/>
      <point x="312" y="561"/>
      <point x="261" y="612"/>
    </contour>
  </outline>
</glyph>
<glyph name="R" format="1">
  <advance width="450"/>
  <unicode hex="0052"/>
  <outline>
    <contour>
      <point x="55" y="699" type="qcurve" smooth="yes"/>
      <point x="190" y="699" type="line" smooth="yes"/>
      <point x="245" y="699"/>
      <point x="340" y="646"/>
      <point x="369" y="599" type="qcurve" smooth="yes"/>
      <point x="398" y="551"/>
      <point x="401" y="439"/>
      <point x="349" y="341"/>
      <point x="300" y="311" type="qcurve" smooth="yes"/>
      <point x="296" y="308"/>
      <point x="298" y="305" type="qcurve" smooth="yes"/>
      <point x="397" y="7" type="line" smooth="yes"/>
      <point x="398" y="6"/>
      <point x="398" y="5" type="qcurve" smooth="yes"/>
      <point x="398" y="0"/>
      <point x="392" y="0" type="qcurve" smooth="yes"/>
      <point x="311" y="0" type="line" smooth="yes"/>
      <point x="308" y="0"/>
      <point x="306" y="3" type="qcurve" smooth="yes"/>
      <point x="215" y="277" type="line" smooth="yes"/>
      <point x="214" y="281"/>
      <point x="209" y="280" type="qcurve" smooth="yes"/>
      <point x="200" y="279"/>
      <point x="190" y="279" type="qcurve" smooth="yes"/>
      <point x="143" y="279" type="line" smooth="yes"/>
      <point x="137" y="279"/>
      <point x="137" y="274" type="qcurve" smooth="yes"/>
      <point x="137" y="5" type="line"/>
      <point x="132" y="0" type="line"/>
      <point x="55" y="0" type="line" smooth="yes"/>
      <point x="50" y="0"/>
      <point x="50" y="5" type="qcurve" smooth="yes"/>
      <point x="50" y="694" type="line" smooth="yes"/>
      <point x="50" y="699"/>
    </contour>
    <contour>
      <point x="143" y="611" type="line" smooth="yes"/>
      <point x="138" y="611"/>
      <point x="138" y="606" type="qcurve" smooth="yes"/>
      <point x="138" y="372" type="line" smooth="yes"/>
      <point x="138" y="367"/>
      <point x="143" y="367" type="qcurve" smooth="yes"/>
      <point x="190" y="367" type="line" smooth="yes"/>
      <point x="241" y="367"/>
      <point x="313" y="438"/>
      <point x="313" y="540"/>
      <point x="241" y="611"/>
      <point x="190" y="611" type="qcurve" smooth="yes"/>
    </contour>
  </outline>
</glyph>
<glyph name="S" format="1">
  <advance width="450"/>
  <unicode hex="0053"/>
  <outline>
    <contour>
      <point x="400" y="530" type="qcurve" smooth="yes"/>
      <point x="398" y="602"/>
      <point x="292" y="702"/>
      <point x="147" y="697"/>
      <point x="48" y="592"/>
      <point x="50" y="519" type="qcurve" smooth="yes"/>
      <point x="51" y="483"/>
      <point x="82" y="417"/>
      <point x="109" y="393" type="qcurve" smooth="yes"/>
      <point x="283" y="240" type="line" smooth="yes"/>
      <point x="310" y="216"/>
      <point x="312" y="180" type="qcurve" smooth="yes"/>
      <point x="314" y="144"/>
      <point x="266" y="90"/>
      <point x="194" y="85"/>
      <point x="140" y="134"/>
      <point x="138" y="170" type="qcurve" smooth="yes"/>
      <point x="137" y="175"/>
      <point x="132" y="175" type="qcurve" smooth="yes"/>
      <point x="55" y="175" type="line" smooth="yes"/>
      <point x="50" y="175"/>
      <point x="50" y="170" type="qcurve" smooth="yes"/>
      <point x="52" y="97"/>
      <point x="158" y="-2"/>
      <point x="303" y="2"/>
      <point x="402" y="108"/>
      <point x="400" y="180" type="qcurve" smooth="yes"/>
      <point x="399" y="216"/>
      <point x="368" y="282"/>
      <point x="341" y="306" type="qcurve" smooth="yes"/>
      <point x="167" y="459" type="line" smooth="yes"/>
      <point x="140" y="483"/>
      <point x="138" y="520" type="qcurve" smooth="yes"/>
      <point x="136" y="556"/>
      <point x="184" y="610"/>
      <point x="256" y="614"/>
      <point x="310" y="566"/>
      <point x="312" y="529" type="qcurve" smooth="yes"/>
      <point x="313" y="525"/>
      <point x="318" y="525" type="qcurve" smooth="yes"/>
      <point x="395" y="525" type="line" smooth="yes"/>
      <point x="400" y="525"/>
    </contour>
  </outline>
</glyph>
<glyph name="T" format="1">
  <advance width="450"/>
  <unicode hex="0054"/>
  <outline>
    <contour>
      <point x="269" y="607" type="line" smooth="yes"/>
      <point x="269" y="612"/>
      <point x="274" y="612" type="qcurve" smooth="yes"/>
      <point x="395" y="612" type="line" smooth="yes"/>
      <point x="400" y="612"/>
      <point x="400" y="617" type="qcurve" smooth="yes"/>
      <point x="400" y="694" type="line" smooth="yes"/>
      <point x="400" y="699"/>
      <point x="395" y="699" type="qcurve" smooth="yes"/>
      <point x="55" y="699" type="line" smooth="yes"/>
      <point x="50" y="699"/>
      <point x="50" y="694" type="qcurve" smooth="yes"/>
      <point x="50" y="617" type="line" smooth="yes"/>
      <point x="50" y="612"/>
      <point x="55" y="612" type="qcurve" smooth="yes"/>
      <point x="176" y="612" type="line" smooth="yes"/>
      <point x="181" y="612"/>
      <point x="181" y="607" type="qcurve" smooth="yes"/>
      <point x="181" y="5" type="line" smooth="yes"/>
      <point x="181" y="0"/>
      <point x="187" y="0" type="qcurve" smooth="yes"/>
      <point x="263" y="0" type="line" smooth="yes"/>
      <point x="269" y="0"/>
      <point x="269" y="5" type="qcurve" smooth="yes"/>
    </contour>
  </outline>
</glyph>
<glyph name="U" format="1">
  <advance width="450"/>
  <unicode hex="0055"/>
  <outline>
    <contour>
      <point x="400" y="175" type="line" smooth="yes"/>
      <point x="400" y="102"/>
      <point x="297" y="0"/>
      <point x="153" y="0"/>
      <point x="50" y="102"/>
      <point x="50" y="175" type="qcurve" smooth="yes"/>
      <point x="50" y="694" type="line" smooth="yes"/>
      <point x="50" y="699"/>
      <point x="55" y="699" type="qcurve" smooth="yes"/>
      <point x="132" y="699" type="line" smooth="yes"/>
      <point x="138" y="699"/>
      <point x="138" y="694" type="qcurve" smooth="yes"/>
      <point x="138" y="175" type="line" smooth="yes"/>
      <point x="138" y="139"/>
      <point x="189" y="87"/>
      <point x="261" y="87"/>
      <point x="312" y="139"/>
      <point x="312" y="175" type="qcurve" smooth="yes"/>
      <point x="312" y="694" type="line" smooth="yes"/>
      <point x="312" y="699"/>
      <point x="318" y="699" type="qcurve" smooth="yes"/>
      <point x="395" y="699" type="line" smooth="yes"/>
      <point x="400" y="699"/>
      <point x="400" y="694" type="qcurve" smooth="yes"/>
    </contour>
  </outline>
</glyph>
<glyph name="V" format="1">
  <advance width="450"/>
  <unicode hex="0056"/>
  <outline>
    <contour>
      <point x="188" y="4" type="qcurve" smooth="yes"/>
      <point x="51" y="693" type="line" smooth="yes"/>
      <point x="51" y="694" type="line" smooth="yes"/>
      <point x="51" y="699"/>
      <point x="56" y="699" type="qcurve" smooth="yes"/>
      <point x="133" y="699" type="line" smooth="yes"/>
      <point x="137" y="699"/>
      <point x="138" y="695" type="qcurve" smooth="yes"/>
      <point x="225" y="261" type="line" smooth="yes"/>
      <point x="226" y="255"/>
      <point x="231" y="256" type="qcurve" smooth="yes"/>
      <point x="234" y="257"/>
      <point x="235" y="261" type="qcurve" smooth="yes"/>
      <point x="312" y="695" type="line" smooth="yes"/>
      <point x="312" y="699"/>
      <point x="317" y="699" type="qcurve" smooth="yes"/>
      <point x="394" y="699" type="line"/>
      <point x="394" y="699" type="line"/>
      <point x="400" y="698"/>
      <point x="399" y="693" type="qcurve" smooth="yes"/>
      <point x="277" y="4" type="line" smooth="yes"/>
      <point x="277" y="0"/>
      <point x="272" y="0" type="qcurve" smooth="yes"/>
      <point x="193" y="0" type="line" smooth="yes"/>
      <point x="189" y="0"/>
    </contour>
  </outline>
</glyph>
<glyph name="W" format="1">
  <advance width="450"/>
  <unicode hex="0057"/>
  <outline>
    <contour>
      <point x="56" y="699" type="line" smooth="yes"/>
      <point x="50" y="699"/>
      <point x="50" y="694" type="qcurve"/>
      <point x="50" y="694" type="line"/>
      <point x="94" y="5" type="line" smooth="yes"/>
      <point x="94" y="0"/>
      <point x="99" y="0" type="qcurve" smooth="yes"/>
      <point x="177" y="0" type="line" smooth="yes"/>
      <point x="181" y="0"/>
      <point x="182" y="4" type="qcurve" smooth="yes"/>
      <point x="220" y="136" type="line" smooth="yes"/>
      <point x="221" y="139"/>
      <point x="224" y="139" type="qcurve"/>
      <point x="229" y="141"/>
      <point x="230" y="136" type="qcurve" smooth="yes"/>
      <point x="268" y="4" type="line" smooth="yes"/>
      <point x="269" y="0"/>
      <point x="273" y="0" type="qcurve" smooth="yes"/>
      <point x="351" y="0" type="line" smooth="yes"/>
      <point x="356" y="0"/>
      <point x="356" y="5" type="qcurve" smooth="yes"/>
      <point x="400" y="694" type="line" smooth="yes"/>
      <point x="400" y="699"/>
      <point x="395" y="699" type="qcurve" smooth="yes"/>
      <point x="317" y="699" type="line" smooth="yes"/>
      <point x="312" y="699"/>
      <point x="312" y="695" type="qcurve" smooth="yes"/>
      <point x="287" y="293" type="line" smooth="yes"/>
      <point x="287" y="289"/>
      <point x="283" y="288" type="qcurve" smooth="yes"/>
      <point x="278" y="287"/>
      <point x="277" y="292" type="qcurve" smooth="yes"/>
      <point x="230" y="455" type="line" smooth="yes"/>
      <point x="229" y="460"/>
      <point x="224" y="459" type="qcurve" smooth="yes"/>
      <point x="221" y="458"/>
      <point x="220" y="455" type="qcurve" smooth="yes"/>
      <point x="173" y="292" type="line" smooth="yes"/>
      <point x="172" y="288"/>
      <point x="169" y="288" type="qcurve" smooth="yes"/>
      <point x="163" y="288"/>
      <point x="163" y="293" type="qcurve" smooth="yes"/>
      <point x="138" y="695" type="line" smooth="yes"/>
      <point x="138" y="699"/>
      <point x="133" y="699" type="qcurve" smooth="yes"/>
    </contour>
  </outline>
</glyph>
<glyph name="X" format="1">
  <advance width="450"/>
  <unicode hex="0058"/>
  <outline>
    <contour>
      <point x="154" y="351" type="line"/>
      <point x="52" y="693" type="line"/>
      <point x="52" y="694" type="line" smooth="yes"/>
      <point x="52" y="699"/>
      <point x="57" y="699" type="qcurve" smooth="yes"/>
      <point x="137" y="699" type="line" smooth="yes"/>
      <point x="141" y="699"/>
      <point x="143" y="696" type="qcurve"/>
      <point x="220" y="436" type="line" smooth="yes"/>
      <point x="221" y="431"/>
      <point x="227" y="433" type="qcurve" smooth="yes"/>
      <point x="229" y="434"/>
      <point x="230" y="436" type="qcurve" smooth="yes"/>
      <point x="307" y="696" type="line"/>
      <point x="309" y="699"/>
      <point x="313" y="699" type="qcurve" smooth="yes"/>
      <point x="393" y="699" type="line" smooth="yes"/>
      <point x="394" y="699" type="line"/>
      <point x="399" y="698"/>
      <point x="398" y="693" type="qcurve" smooth="yes"/>
      <point x="296" y="351" type="line" smooth="yes"/>
      <point x="295" y="350"/>
      <point x="296" y="348" type="qcurve" smooth="yes"/>
      <point x="398" y="7" type="line" smooth="yes"/>
      <point x="398" y="5" type="line" smooth="yes"/>
      <point x="398" y="0"/>
      <point x="393" y="0" type="qcurve" smooth="yes"/>
      <point x="313" y="0" type="line" smooth="yes"/>
      <point x="309" y="0"/>
      <point x="307" y="4" type="qcurve" smooth="yes"/>
      <point x="230" y="263" type="line" smooth="yes"/>
      <point x="229" y="268"/>
      <point x="224" y="266" type="qcurve"/>
      <point x="221" y="266"/>
      <point x="220" y="263" type="qcurve" smooth="yes"/>
      <point x="143" y="4" type="line" smooth="yes"/>
      <point x="141" y="0"/>
      <point x="137" y="0" type="qcurve" smooth="yes"/>
      <point x="57" y="0" type="line" smooth="yes"/>
      <point x="56" y="0" type="line"/>
      <point x="51" y="2"/>
      <point x="52" y="7" type="qcurve" smooth="yes"/>
      <point x="154" y="348" type="line"/>
    </contour>
    <contour>
      <point x="154" y="348" type="line"/>
      <point x="155" y="350"/>
      <point x="154" y="351" type="qcurve"/>
    </contour>
  </outline>
</glyph>
<glyph name="Y" format="1">
  <advance width="450"/>
  <unicode hex="0059"/>
  <outline>
    <contour>
      <point x="58" y="0" type="line" smooth="yes"/>
      <point x="56" y="0" type="line" smooth="yes"/>
      <point x="51" y="2"/>
      <point x="53" y="7" type="qcurve" smooth="yes"/>
      <point x="158" y="293" type="line" smooth="yes"/>
      <point x="158" y="296" type="line" smooth="yes"/>
      <point x="52" y="693" type="line" smooth="yes"/>
      <point x="52" y="694" type="line" smooth="yes"/>
      <point x="52" y="699"/>
      <point x="57" y="699" type="qcurve" smooth="yes"/>
      <point x="137" y="699" type="line" smooth="yes"/>
      <point x="141" y="699"/>
      <point x="142" y="696" type="qcurve" smooth="yes"/>
      <point x="206" y="453" type="line" smooth="yes"/>
      <point x="208" y="448"/>
      <point x="213" y="449" type="qcurve" smooth="yes"/>
      <point x="216" y="450"/>
      <point x="216" y="453" type="qcurve"/>
      <point x="306" y="696" type="line" smooth="yes"/>
      <point x="307" y="699"/>
      <point x="311" y="699" type="qcurve" smooth="yes"/>
      <point x="393" y="699" type="line" smooth="yes"/>
      <point x="394" y="699" type="line"/>
      <point x="399" y="697"/>
      <point x="398" y="692" type="qcurve" smooth="yes"/>
      <point x="145" y="3" type="line"/>
      <point x="140" y="0" type="line"/>
    </contour>
  </outline>
</glyph>
<glyph name="Z" format="1">
  <advance width="450"/>
  <unicode hex="005A"/>
  <outline>
    <contour>
      <point x="395" y="87" type="line" smooth="yes"/>
      <point x="400" y="87"/>
      <point x="400" y="82" type="qcurve" smooth="yes"/>
      <point x="400" y="5" type="line" smooth="yes"/>
      <point x="400" y="0"/>
      <point x="395" y="0" type="qcurve" smooth="yes"/>
      <point x="55" y="0" type="line" smooth="yes"/>
      <point x="50" y="0"/>
      <point x="50" y="5" type="qcurve" smooth="yes"/>
      <point x="50" y="86" type="line" smooth="yes"/>
      <point x="50" y="87"/>
      <point x="51" y="89" type="qcurve" smooth="yes"/>
      <point x="299" y="605" type="line" smooth="yes"/>
      <point x="301" y="609"/>
      <point x="297" y="612" type="qcurve" smooth="yes"/>
      <point x="294" y="612" type="line" smooth="yes"/>
      <point x="55" y="612" type="line" smooth="yes"/>
      <point x="50" y="612"/>
      <point x="50" y="617" type="qcurve" smooth="yes"/>
      <point x="50" y="694" type="line" smooth="yes"/>
      <point x="50" y="699"/>
      <point x="55" y="699" type="qcurve" smooth="yes"/>
      <point x="395" y="699" type="line" smooth="yes"/>
      <point x="400" y="699"/>
      <point x="400" y="694" type="qcurve" smooth="yes"/>
      <point x="400" y="613" type="line" smooth="yes"/>
      <point x="400" y="612"/>
      <point x="399" y="611" type="qcurve" smooth="yes"/>
      <point x="151" y="95" type="line" smooth="yes"/>
      <point x="149" y="90"/>
      <point x="153" y="88" type="qcurve" smooth="yes"/>
      <point x="154" y="87"/>
      <point x="156" y="87" type="qcurve" smooth="yes"/>
    </contour>
  </outline>
</glyph>
<glyph name="bracketleft" format="1">
  <advance width="450"/>
  <unicode hex="005B"/>
  <outline>
    <contour>
      <point x="316" y="0" type="qcurve" smooth="yes"/>
      <point x="134" y="0" type="line" smooth="yes"/>
      <point x="127" y="0"/>
      <point x="127" y="7" type="qcurve" smooth="yes"/>
      <point x="127" y="693" type="line" smooth="yes"/>
      <point x="127" y="700"/>
      <point x="134" y="700" type="qcurve" smooth="yes"/>
      <point x="316" y="700" type="line" smooth="yes"/>
      <point x="323" y="700"/>
      <point x="323" y="693" type="qcurve" smooth="yes"/>
      <point x="323" y="615" type="line" smooth="yes"/>
      <point x="323" y="608"/>
      <point x="316" y="608" type="qcurve" smooth="yes"/>
      <point x="224" y="608" type="line" smooth="yes"/>
      <point x="217" y="608"/>
      <point x="217" y="601" type="qcurve" smooth="yes"/>
      <point x="217" y="100" type="line" smooth="yes"/>
      <point x="217" y="93"/>
      <point x="224" y="93" type="qcurve" smooth="yes"/>
      <point x="316" y="93" type="line" smooth="yes"/>
      <point x="323" y="93"/>
      <point x="323" y="86" type="qcurve" smooth="yes"/>
      <point x="323" y="7" type="line" smooth="yes"/>
      <point x="323" y="0"/>
    </contour>
  </outline>
</glyph>
<glyph name="backslash" format="1">
  <advance width="450"/>
  <unicode hex="005C"/>
  <outline>
    <contour>
      <point x="310" y="0" type="qcurve" smooth="yes"/>
      <point x="390" y="0" type="line"/>
      <point x="392" y="0" type="line"/>
      <point x="399" y="2"/>
      <point x="397" y="9" type="qcurve" smooth="yes"/>
      <point x="156" y="695" type="line" smooth="yes"/>
      <point x="155" y="699"/>
      <point x="150" y="699" type="qcurve" smooth="yes"/>
      <point x="70" y="699" type="line"/>
      <point x="68" y="699" type="line"/>
      <point x="61" y="697"/>
      <point x="63" y="690" type="qcurve" smooth="yes"/>
      <point x="303" y="4" type="line" smooth="yes"/>
      <point x="304" y="0"/>
    </contour>
  </outline>
</glyph>
<glyph name="asciicircum" format="1">
  <advance width="450"/>
  <unicode hex="005E"/>
  <outline>
    <contour>
      <point x="269" y="847" type="line" smooth="yes"/>
      <point x="271" y="847"/>
      <point x="272" y="846" type="qcurve" smooth="yes"/>
      <point x="361" y="734" type="line" smooth="yes"/>
      <point x="362" y="732"/>
      <point x="360" y="727"/>
      <point x="357" y="727" type="qcurve" smooth="yes"/>
      <point x="280" y="727" type="line" smooth="yes"/>
      <point x="278" y="727"/>
      <point x="276" y="728" type="qcurve" smooth="yes"/>
      <point x="224" y="793" type="line"/>
      <point x="170" y="728" type="line" smooth="yes"/>
      <point x="168" y="727"/>
      <point x="166" y="727" type="qcurve" smooth="yes"/>
      <point x="89" y="727" type="line" smooth="yes"/>
      <point x="86" y="727"/>
      <point x="84" y="732"/>
      <point x="85" y="734" type="qcurve" smooth="yes"/>
      <point x="175" y="846" type="line" smooth="yes"/>
      <point x="177" y="847"/>
      <point x="179" y="847" type="qcurve" smooth="yes"/>
    </contour>
  </outline>
</glyph>
<glyph name="grave" format="1">
  <advance width="450"/>
  <unicode hex="0060"/>
  <outline>
    <contour>
      <point x="136,5" y="800" type="line"/>
      <point x="225" y="800" type="line"/>
      <point x="313,562" y="667,125" type="line"/>
      <point x="247,125" y="667,125" type="line"/>
    </contour>
  </outline>
</glyph>
<glyph name="b" format="1">
  <advance width="450"/>
  <unicode hex="0062"/>
  <outline>
    <contour>
      <point x="48" y="708,703" type="line"/>
      <point x="136,562" y="708,703" type="line"/>
      <point x="136,562" y="507,828" type="line"/>
      <point x="177,477" y="531,516"/>
      <point x="225,125" y="531,516" type="qcurve" smooth="yes"/>
      <point x="298,494" y="531,516"/>
      <point x="402,25" y="427,77"/>
      <point x="402,25" y="354,391" type="qcurve" smooth="yes"/>
      <point x="402,25" y="177,641" type="line" smooth="yes"/>
      <point x="402,25" y="103,951"/>
      <point x="298,523" y="0,015625"/>
      <point x="225,125" y="0,015625" type="qcurve" smooth="yes"/>
      <point x="177,584" y="0,015625"/>
      <point x="136,562" y="23,7656" type="qcurve"/>
      <point x="136,562" y="0,015625" type="line"/>
      <point x="48" y="0,015625" type="line"/>
      <point x="48" y="177,203" type="line"/>
      <point x="48" y="354,391" type="line"/>
    </contour>
    <contour>
      <point x="188,445" y="442,953"/>
      <point x="136,562" y="391,076"/>
      <point x="136,562" y="354,391" type="qcurve" smooth="yes"/>
      <point x="136,562" y="177,203" type="line" smooth="yes"/>
      <point x="136,562" y="140,518"/>
      <point x="188,445" y="88,6406"/>
      <point x="261,799" y="88,6406"/>
      <point x="313,625" y="140,512"/>
      <point x="313,625" y="177,203" type="qcurve" smooth="yes"/>
      <point x="313,625" y="354,391" type="line" smooth="yes"/>
      <point x="313,625" y="391,082"/>
      <point x="261,799" y="442,953"/>
    </contour>
  </outline>
</glyph>
<glyph name="c" format="1">
  <advance width="450"/>
  <unicode hex="0063"/>
  <outline>
    <contour>
      <point x="298" y="531"/>
      <point x="402" y="428"/>
      <point x="402" y="354" type="qcurve"/>
      <point x="313" y="354" type="line"/>
      <point x="313" y="391"/>
      <point x="262" y="443"/>
      <point x="188" y="443"/>
      <point x="136" y="391"/>
      <point x="136" y="354" type="qcurve" smooth="yes"/>
      <point x="136" y="177" type="line" smooth="yes"/>
      <point x="136" y="140"/>
      <point x="188" y="89"/>
      <point x="262" y="89"/>
      <point x="313" y="141"/>
      <point x="313" y="177" type="qcurve" smooth="yes"/>
      <point x="313" y="178" type="line"/>
      <point x="402" y="178" type="line"/>
      <point x="402" y="177" type="line" smooth="yes"/>
      <point x="402" y="104"/>
      <point x="298" y="0"/>
      <point x="151" y="0"/>
      <point x="48" y="104"/>
      <point x="48" y="177" type="qcurve" smooth="yes"/>
      <point x="48" y="354" type="line" smooth="yes"/>
      <point x="48" y="428"/>
      <point x="151" y="531"/>
    </contour>
  </outline>
</glyph>
<glyph name="d" format="1">
  <advance width="450"/>
  <unicode hex="0064"/>
  <outline>
    <contour>
      <point x="401,999" y="708,688" type="line"/>
      <point x="401,999" y="0" type="line"/>
      <point x="313,437" y="0" type="line"/>
      <point x="313,437" y="23,75" type="line"/>
      <point x="272,414" y="0"/>
      <point x="224,874" y="0" type="qcurve" smooth="yes"/>
      <point x="151,474" y="0"/>
      <point x="47,749" y="103,936"/>
      <point x="47,749" y="177,625" type="qcurve" smooth="yes"/>
      <point x="47,749" y="354,375" type="line" smooth="yes"/>
      <point x="47,749" y="427,755"/>
      <point x="151,505" y="531,5"/>
      <point x="224,874" y="531,5" type="qcurve" smooth="yes"/>
      <point x="272,522" y="531,5"/>
      <point x="313,437" y="507,812" type="qcurve"/>
      <point x="313,437" y="708,688" type="line"/>
    </contour>
    <contour>
      <point x="188,2" y="442,938"/>
      <point x="136,374" y="391,065"/>
      <point x="136,374" y="354,375" type="qcurve" smooth="yes"/>
      <point x="136,374" y="177,188" type="line" smooth="yes"/>
      <point x="136,374" y="140,497"/>
      <point x="188,2" y="88,625"/>
      <point x="261,555" y="88,625"/>
      <point x="313,437" y="140,503"/>
      <point x="313,437" y="177,188" type="qcurve" smooth="yes"/>
      <point x="313,437" y="354,375" type="line" smooth="yes"/>
      <point x="313,437" y="391,06"/>
      <point x="261,555" y="442,938"/>
    </contour>
  </outline>
</glyph>
<glyph name="f" format="1">
  <advance width="450"/>
  <unicode hex="0066"/>
  <outline>
    <contour>
      <point x="324,11" y="708,688"/>
      <point x="401,901" y="630,854"/>
      <point x="401,901" y="575,813" type="qcurve"/>
      <point x="374,214" y="575,813" type="line"/>
      <point x="313,339" y="575,813" type="line"/>
      <point x="313,339" y="594,155"/>
      <point x="287,415" y="620,126"/>
      <point x="250,761" y="620,126"/>
      <point x="224,839" y="594,163"/>
      <point x="224,839" y="575,813" type="qcurve" smooth="yes"/>
      <point x="224,839" y="442,938" type="line"/>
      <point x="357,651" y="442,938" type="line"/>
      <point x="357,651" y="354,376" type="line"/>
      <point x="224,839" y="354,376" type="line"/>
      <point x="224,839" y="0,00195312" type="line"/>
      <point x="136,214" y="0,00195312" type="line"/>
      <point x="136,214" y="354,376" type="line"/>
      <point x="47,6514" y="354,376" type="line"/>
      <point x="47,6514" y="442,938" type="line"/>
      <point x="136,214" y="442,938" type="line"/>
      <point x="136,214" y="575,813" type="line" smooth="yes"/>
      <point x="136,214" y="630,849"/>
      <point x="214,062" y="708,688"/>
    </contour>
  </outline>
</glyph>
<glyph name="g" format="1">
  <advance width="450"/>
  <unicode hex="0067"/>
  <outline>
    <contour>
      <point x="224,645" y="531,5" type="qcurve" smooth="yes"/>
      <point x="401,77" y="531,498" type="line"/>
      <point x="401,77" y="442,936" type="line"/>
      <point x="378,645" y="442,936" type="line"/>
      <point x="402,219" y="402,209"/>
      <point x="402,395" y="354,998" type="qcurve"/>
      <point x="313,207" y="354,686" type="line"/>
      <point x="313,072" y="391,281"/>
      <point x="261,233" y="442,936"/>
      <point x="187,96" y="442,936"/>
      <point x="136,082" y="391,062"/>
      <point x="136,082" y="317,678"/>
      <point x="187,966" y="265,748"/>
      <point x="261,294" y="265,748"/>
      <point x="313,207" y="317,961"/>
      <point x="313,207" y="354,686" type="qcurve"/>
      <point x="402,395" y="354,998" type="line"/>
      <point x="402,395" y="281,553"/>
      <point x="298,574" y="177,186"/>
      <point x="225,27" y="177,186" type="qcurve" smooth="yes"/>
      <point x="206,315" y="177,186"/>
      <point x="180,395" y="151,223"/>
      <point x="180,395" y="114,529"/>
      <point x="206,311" y="88,623"/>
      <point x="224,645" y="88,623" type="qcurve" smooth="yes"/>
      <point x="268,895" y="88,623" type="line" smooth="yes"/>
      <point x="323,759" y="88,623"/>
      <point x="401,505" y="11,1309"/>
      <point x="401,707" y="-43,752" type="qcurve"/>
      <point x="313,207" y="-44,0645" type="line"/>
      <point x="313,114" y="-25,7891"/>
      <point x="287,227" y="-0,00195312"/>
      <point x="268,957" y="-0,00195312" type="qcurve" smooth="yes"/>
      <point x="180,395" y="-0,00195312" type="line" smooth="yes"/>
      <point x="162,062" y="-0,00195312"/>
      <point x="136,145" y="-25,9688"/>
      <point x="136,145" y="-62,6543"/>
      <point x="162,057" y="-88,5645"/>
      <point x="180,395" y="-88,5645" type="qcurve" smooth="yes"/>
      <point x="268,957" y="-88,5645" type="line" smooth="yes"/>
      <point x="287,271" y="-88,5645"/>
      <point x="313,207" y="-62,4297"/>
      <point x="313,207" y="-44,0645" type="qcurve"/>
      <point x="401,707" y="-43,752" type="line"/>
      <point x="401,707" y="-98,8203"/>
      <point x="323,859" y="-177,064"/>
      <point x="268,895" y="-177,064" type="qcurve"/>
      <point x="180,395" y="-177,125" type="line" smooth="yes"/>
      <point x="125,382" y="-177,125"/>
      <point x="47,582" y="-99,334"/>
      <point x="47,582" y="-44,3125" type="qcurve" smooth="yes"/>
      <point x="47,582" y="28,6367"/>
      <point x="109,332" y="67,875" type="qcurve"/>
      <point x="92,207" y="98,1855"/>
      <point x="92,207" y="133" type="qcurve" smooth="yes"/>
      <point x="92,207" y="177,369"/>
      <point x="118,832" y="212,688" type="qcurve"/>
      <point x="48,1445" y="265,904"/>
      <point x="48,1445" y="354,375" type="qcurve" smooth="yes"/>
      <point x="48,1445" y="427,584"/>
      <point x="151,479" y="531,244"/>
    </contour>
  </outline>
</glyph>
<glyph name="h" format="1">
  <advance width="450"/>
  <unicode hex="0068"/>
  <outline>
    <contour>
      <point x="47,75" y="708,688" type="line"/>
      <point x="136,311" y="708,688" type="line"/>
      <point x="136,311" y="507,812" type="line"/>
      <point x="177,225" y="531,5"/>
      <point x="224,873" y="531,5" type="qcurve" smooth="yes"/>
      <point x="298,242" y="531,5"/>
      <point x="401,998" y="427,755"/>
      <point x="401,998" y="354,375" type="qcurve" smooth="yes"/>
      <point x="401,998" y="0" type="line"/>
      <point x="313,436" y="0" type="line"/>
      <point x="313,373" y="354,375" type="line" smooth="yes"/>
      <point x="313,373" y="391,065"/>
      <point x="261,547" y="442,938"/>
      <point x="188,193" y="442,938"/>
      <point x="136,311" y="391,06"/>
      <point x="136,311" y="354,375" type="qcurve" smooth="yes"/>
      <point x="136,25" y="0" type="line"/>
      <point x="47,75" y="0" type="line"/>
    </contour>
  </outline>
</glyph>
<glyph name="i" format="1">
  <advance width="261"/>
  <unicode hex="0069"/>
  <outline>
    <contour>
      <point x="126,777" y="708,688"/>
      <point x="152,688" y="682,728"/>
      <point x="152,688" y="646,029"/>
      <point x="126,783" y="620,125"/>
      <point x="90,0859" y="620,125"/>
      <point x="64,125" y="646,035"/>
      <point x="64,125" y="682,722"/>
      <point x="90,0918" y="708,688"/>
    </contour>
    <contour>
      <point x="64,125" y="531,5" type="line"/>
      <point x="152,688" y="531,5" type="line"/>
      <point x="152,688" y="132,875" type="line" smooth="yes"/>
      <point x="152,688" y="114,544"/>
      <point x="178,606" y="88,625"/>
      <point x="196,938" y="88,625" type="qcurve" smooth="yes"/>
      <point x="197" y="0" type="line"/>
      <point x="141,92" y="0"/>
      <point x="64,125" y="77,8467"/>
      <point x="64,125" y="132,875" type="qcurve" smooth="yes"/>
    </contour>
  </outline>
</glyph>
<glyph name="j" format="1">
  <advance width="450"/>
  <unicode hex="006A"/>
  <outline>
    <contour>
      <point x="331,936" y="708,5"/>
      <point x="357,808" y="682,696"/>
      <point x="357,875" y="664,438" type="qcurve"/>
      <point x="313,688" y="664,312" type="line"/>
      <point x="357,875" y="664,312" type="line"/>
      <point x="357,875" y="646,011"/>
      <point x="331,987" y="620,125"/>
      <point x="295,388" y="620,125"/>
      <point x="269,5" y="646,011"/>
      <point x="269,5" y="682,616"/>
      <point x="295,388" y="708,5"/>
    </contour>
    <contour>
      <point x="269,375" y="531,5" type="line"/>
      <point x="358" y="531,5" type="line"/>
      <point x="358,312" y="-43,75" type="line" smooth="yes"/>
      <point x="358,312" y="-99,2852"/>
      <point x="280,465" y="-177,125"/>
      <point x="170,416" y="-177,125"/>
      <point x="92,625" y="-99,291"/>
      <point x="92,625" y="-44,25" type="qcurve"/>
      <point x="181,062" y="-44,25" type="line"/>
      <point x="181,138" y="-62,6133"/>
      <point x="207,141" y="-88,5625"/>
      <point x="243,859" y="-88,5625"/>
      <point x="269,862" y="-62,6133"/>
      <point x="269,938" y="-44,25" type="qcurve"/>
    </contour>
  </outline>
</glyph>
<glyph name="k" format="1">
  <advance width="450"/>
  <unicode hex="006B"/>
  <outline>
    <contour>
      <point x="48" y="708,688" type="line"/>
      <point x="136,562" y="708,688" type="line"/>
      <point x="136,562" y="248,5" type="line"/>
      <point x="300" y="531,5" type="line"/>
      <point x="402,25" y="531,5" type="line"/>
      <point x="248,812" y="265,75" type="line"/>
      <point x="402,25" y="0" type="line"/>
      <point x="300" y="0" type="line"/>
      <point x="197,688" y="177,188" type="line"/>
      <point x="136,562" y="71,3125" type="line"/>
      <point x="136,562" y="0" type="line"/>
      <point x="48" y="0" type="line"/>
    </contour>
  </outline>
</glyph>
<glyph name="l" format="1">
  <advance width="272"/>
  <unicode hex="006C"/>
  <outline>
    <contour>
      <point x="47,7461" y="708,688" type="line"/>
      <point x="136,309" y="708,688" type="line"/>
      <point x="136,309" y="132,875" type="line" smooth="yes"/>
      <point x="136,309" y="114,544"/>
      <point x="162,227" y="88,625"/>
      <point x="180,559" y="88,625" type="qcurve" smooth="yes"/>
      <point x="224,84" y="88,625" type="line"/>
      <point x="224,84" y="0" type="line"/>
      <point x="180,621" y="0" type="line" smooth="yes"/>
      <point x="125,541" y="0"/>
      <point x="47,7461" y="77,8447"/>
      <point x="47,7461" y="132,875" type="qcurve" smooth="yes"/>
    </contour>
  </outline>
</glyph>
<glyph name="m" format="1">
  <advance width="714"/>
  <unicode hex="006D"/>
  <outline>
    <contour>
      <point x="47,0645" y="531,562" type="line"/>
      <point x="135,625" y="531,562" type="line"/>
      <point x="135,625" y="507,875" type="line"/>
      <point x="176,599" y="531,562"/>
      <point x="224,188" y="531,562" type="qcurve" smooth="yes"/>
      <point x="304,144" y="531,562"/>
      <point x="357,062" y="471,625" type="qcurve"/>
      <point x="410,004" y="531,562"/>
      <point x="489,875" y="531,562" type="qcurve" smooth="yes"/>
      <point x="563,247" y="531,5"/>
      <point x="667" y="427,797"/>
      <point x="667" y="354,438" type="qcurve" smooth="yes"/>
      <point x="667" y="0" type="line"/>
      <point x="578,438" y="0" type="line"/>
      <point x="578,438" y="201" type="line"/>
      <point x="578,438" y="354,375" type="line" smooth="yes"/>
      <point x="578,351" y="391,038"/>
      <point x="526,53" y="442,875"/>
      <point x="453,221" y="442,938"/>
      <point x="401,402" y="391,102"/>
      <point x="401,375" y="354,438" type="qcurve" smooth="yes"/>
      <point x="401,312" y="0,0625" type="line"/>
      <point x="312,75" y="0,0625" type="line"/>
      <point x="312,75" y="201,062" type="line"/>
      <point x="312,75" y="354,438" type="line" smooth="yes"/>
      <point x="312,664" y="391,102"/>
      <point x="260,845" y="442,938"/>
      <point x="187,529" y="442,938"/>
      <point x="135,652" y="391,095"/>
      <point x="135,627" y="354,438" type="qcurve" smooth="yes"/>
      <point x="135,627" y="201,062" type="line"/>
      <point x="135,627" y="0,0644531" type="line"/>
      <point x="47,0645" y="0,0644531" type="line"/>
      <point x="47,0645" y="354,5" type="line"/>
    </contour>
  </outline>
</glyph>
<glyph name="n" format="1">
  <advance width="450"/>
  <unicode hex="006E"/>
  <outline>
    <contour>
      <point x="47,751" y="531,5" type="line"/>
      <point x="136,313" y="531,5" type="line"/>
      <point x="136,313" y="507,812" type="line"/>
      <point x="177,287" y="531,5"/>
      <point x="224,876" y="531,5" type="qcurve" smooth="yes"/>
      <point x="298,247" y="531,5"/>
      <point x="402,001" y="427,797"/>
      <point x="402,001" y="354,438" type="qcurve" smooth="yes"/>
      <point x="402,001" y="0" type="line"/>
      <point x="313,438" y="0" type="line"/>
      <point x="313,438" y="201" type="line"/>
      <point x="313,438" y="354,375" type="line" smooth="yes"/>
      <point x="313,352" y="391,038"/>
      <point x="261,531" y="442,875"/>
      <point x="188,215" y="442,875"/>
      <point x="136,34" y="391,032"/>
      <point x="136,313" y="354,375" type="qcurve" smooth="yes"/>
      <point x="136,313" y="201,002" type="line"/>
      <point x="136,313" y="0" type="line"/>
      <point x="47,751" y="0" type="line"/>
      <point x="47,751" y="354,438" type="line"/>
    </contour>
  </outline>
</glyph>
<glyph name="o" format="1">
  <advance width="450"/>
  <unicode hex="006F"/>
  <outline>
    <contour>
      <point x="298,203" y="531,5"/>
      <point x="401,902" y="427,762"/>
      <point x="401,902" y="354,375" type="qcurve"/>
      <point x="401,965" y="177,188" type="line" smooth="yes"/>
      <point x="401,902" y="103,796"/>
      <point x="298,197" y="0"/>
      <point x="151,477" y="0"/>
      <point x="47,7148" y="103,802"/>
      <point x="47,7148" y="177,188" type="qcurve" smooth="yes"/>
      <point x="47,7148" y="353,875" type="line" smooth="yes"/>
      <point x="47,7148" y="427,564"/>
      <point x="151,439" y="531,5"/>
    </contour>
    <contour>
      <point x="188,161" y="442,938"/>
      <point x="136,277" y="391,06"/>
      <point x="136,277" y="354,375" type="qcurve" smooth="yes"/>
      <point x="136,277" y="177,188" type="line" smooth="yes"/>
      <point x="136,277" y="140,503"/>
      <point x="188,161" y="88,625"/>
      <point x="261,521" y="88,625"/>
      <point x="313,402" y="140,503"/>
      <point x="313,402" y="177,188" type="qcurve" smooth="yes"/>
      <point x="313,402" y="178,125" type="line"/>
      <point x="313,402" y="354,375" type="line" smooth="yes"/>
      <point x="313,402" y="391,06"/>
      <point x="261,521" y="442,938"/>
    </contour>
  </outline>
</glyph>
<glyph name="p" format="1">
  <advance width="450"/>
  <unicode hex="0070"/>
  <outline>
    <contour>
      <point x="47,7158" y="-177,188" type="line"/>
      <point x="47,7158" y="177,125" type="line"/>
      <point x="47,7158" y="354,312" type="line"/>
      <point x="47,7158" y="531,5" type="line"/>
      <point x="136,278" y="531,5" type="line"/>
      <point x="136,278" y="507,75" type="line"/>
      <point x="177,301" y="531,5"/>
      <point x="224,841" y="531,5" type="qcurve" smooth="yes"/>
      <point x="298,241" y="531,5"/>
      <point x="401,966" y="427,564"/>
      <point x="401,966" y="353,875" type="qcurve" smooth="yes"/>
      <point x="401,966" y="177,125" type="line" smooth="yes"/>
      <point x="401,966" y="103,745"/>
      <point x="298,21" y="0"/>
      <point x="224,841" y="0" type="qcurve" smooth="yes"/>
      <point x="177,192" y="0"/>
      <point x="136,278" y="23,6875" type="qcurve"/>
      <point x="136,278" y="-177,188" type="line"/>
    </contour>
    <contour>
      <point x="261,514" y="88,5625"/>
      <point x="313,341" y="140,435"/>
      <point x="313,341" y="177,125" type="qcurve" smooth="yes"/>
      <point x="313,341" y="354,312" type="line" smooth="yes"/>
      <point x="313,341" y="391,003"/>
      <point x="261,514" y="442,875"/>
      <point x="188,16" y="442,875"/>
      <point x="136,278" y="390,997"/>
      <point x="136,278" y="354,312" type="qcurve" smooth="yes"/>
      <point x="136,278" y="177,125" type="line" smooth="yes"/>
      <point x="136,278" y="140,44"/>
      <point x="188,16" y="88,5625"/>
    </contour>
  </outline>
</glyph>
<glyph name="q" format="1">
  <advance width="450"/>
  <unicode hex="0071"/>
  <outline>
    <contour>
      <point x="402" y="-177,188" type="line"/>
      <point x="313,438" y="-177,186" type="line"/>
      <point x="313,438" y="23,6875" type="line"/>
      <point x="272,523" y="0"/>
      <point x="224,875" y="0" type="qcurve" smooth="yes"/>
      <point x="151,506" y="0"/>
      <point x="47,75" y="103,745"/>
      <point x="47,75" y="177,125" type="qcurve" smooth="yes"/>
      <point x="47,75" y="353,875" type="line" smooth="yes"/>
      <point x="47,75" y="427,564"/>
      <point x="151,475" y="531,5"/>
      <point x="224,875" y="531,5" type="qcurve" smooth="yes"/>
      <point x="272,415" y="531,5"/>
      <point x="313,438" y="507,75" type="qcurve"/>
      <point x="313,438" y="531,5" type="line"/>
      <point x="402" y="531,5" type="line"/>
      <point x="402" y="354,312" type="line"/>
      <point x="402" y="177,125" type="line"/>
    </contour>
    <contour>
      <point x="261,554" y="88,5625"/>
      <point x="313,438" y="140,44"/>
      <point x="313,438" y="177,125" type="qcurve" smooth="yes"/>
      <point x="313,438" y="354,312" type="line" smooth="yes"/>
      <point x="313,438" y="390,998"/>
      <point x="261,555" y="442,875"/>
      <point x="188,2" y="442,875"/>
      <point x="136,375" y="391,005"/>
      <point x="136,375" y="354,312" type="qcurve" smooth="yes"/>
      <point x="136,375" y="177,125" type="line" smooth="yes"/>
      <point x="136,375" y="140,435"/>
      <point x="188,201" y="88,5625"/>
    </contour>
  </outline>
</glyph>
<glyph name="r" format="1">
  <advance width="359"/>
  <unicode hex="0072"/>
  <outline>
    <contour>
      <point x="46" y="531,5" type="line"/>
      <point x="134,562" y="531,5" type="line"/>
      <point x="134,562" y="507,812" type="line"/>
      <point x="175,535" y="531,5"/>
      <point x="223,125" y="531,5" type="qcurve" smooth="yes"/>
      <point x="311,688" y="531,5" type="line"/>
      <point x="311,688" y="398,688" type="line"/>
      <point x="223,125" y="398,688" type="line"/>
      <point x="223,125" y="442,875" type="line"/>
      <point x="186,465" y="442,875"/>
      <point x="134,589" y="391,032"/>
      <point x="134,562" y="354,375" type="qcurve" smooth="yes"/>
      <point x="134,562" y="201" type="line"/>
      <point x="134,562" y="0" type="line"/>
      <point x="46" y="0" type="line"/>
      <point x="46" y="354,438" type="line"/>
    </contour>
  </outline>
</glyph>
<glyph name="s" format="1">
  <advance width="404"/>
  <unicode hex="0073"/>
  <outline>
    <contour>
      <point x="202,34" y="530,75" type="qcurve" smooth="yes"/>
      <point x="202,402" y="530,688" type="line"/>
      <point x="266,425" y="530,661"/>
      <point x="356,965" y="440,139"/>
      <point x="356,965" y="376,125" type="qcurve" smooth="yes"/>
      <point x="356,965" y="353,938" type="line"/>
      <point x="268,777" y="353,938" type="line"/>
      <point x="268,777" y="376,062" type="line" smooth="yes"/>
      <point x="268,777" y="403,629"/>
      <point x="229,903" y="442,536"/>
      <point x="174,835" y="442,562"/>
      <point x="135,927" y="403,688"/>
      <point x="135,902" y="348,619"/>
      <point x="174,775" y="309,713"/>
      <point x="202,277" y="309,688" type="qcurve" smooth="yes"/>
      <point x="266,3" y="309,661"/>
      <point x="356,84" y="219,139"/>
      <point x="356,84" y="155,125" type="qcurve" smooth="yes"/>
      <point x="356,84" y="155" type="line" smooth="yes"/>
      <point x="356,84" y="90,9863"/>
      <point x="266,3" y="0,462891"/>
      <point x="138,255" y="0,462891"/>
      <point x="47,7148" y="90,9863"/>
      <point x="47,7148" y="155" type="qcurve" smooth="yes"/>
      <point x="47,7148" y="177,188" type="line"/>
      <point x="135,902" y="177,188" type="line"/>
      <point x="135,902" y="155,062" type="line" smooth="yes"/>
      <point x="135,902" y="127,494"/>
      <point x="174,775" y="88,5879"/>
      <point x="229,778" y="88,5879"/>
      <point x="268,652" y="127,494"/>
      <point x="268,652" y="155" type="qcurve" smooth="yes"/>
      <point x="268,652" y="155,125" type="line" smooth="yes"/>
      <point x="268,652" y="182,629"/>
      <point x="229,778" y="221,536"/>
      <point x="202,277" y="221,562" type="qcurve" smooth="yes"/>
      <point x="138,255" y="221,588"/>
      <point x="47,7148" y="312,11"/>
      <point x="47,7148" y="376,125" type="qcurve" smooth="yes"/>
      <point x="47,7773" y="376,188" type="line"/>
      <point x="47,8018" y="440,21"/>
      <point x="138,325" y="530,75"/>
    </contour>
  </outline>
</glyph>
<glyph name="t" format="1">
  <advance width="272"/>
  <unicode hex="0074"/>
  <outline>
    <contour>
      <point x="69,9336" y="708,688" type="line"/>
      <point x="158,496" y="708,688" type="line"/>
      <point x="158,496" y="531,5" type="line"/>
      <point x="246,996" y="531,5" type="line"/>
      <point x="246,996" y="442,938" type="line"/>
      <point x="158,496" y="442,938" type="line"/>
      <point x="158,496" y="132,875" type="line" smooth="yes"/>
      <point x="158,496" y="114,543"/>
      <point x="184,415" y="88,625"/>
      <point x="202,746" y="88,625" type="qcurve" smooth="yes"/>
      <point x="246,996" y="88,625" type="line"/>
      <point x="246,996" y="0" type="line"/>
      <point x="202,809" y="0" type="line" smooth="yes"/>
      <point x="147,729" y="0"/>
      <point x="69,9336" y="77,8447"/>
      <point x="69,9336" y="132,875" type="qcurve" smooth="yes"/>
      <point x="69,9336" y="442,938" type="line"/>
      <point x="25,6211" y="442,938" type="line"/>
      <point x="25,6211" y="531,5" type="line"/>
      <point x="69,9336" y="531,5" type="line"/>
    </contour>
  </outline>
</glyph>
<glyph name="u" format="1">
  <advance width="450"/>
  <unicode hex="0075"/>
  <outline>
    <contour>
      <point x="402" y="0" type="line"/>
      <point x="313,439" y="0,00195312" type="line"/>
      <point x="313,439" y="23,6895" type="line"/>
      <point x="272,462" y="0,00195312"/>
      <point x="224,877" y="0,00195312" type="qcurve" smooth="yes"/>
      <point x="151,506" y="0,00195312"/>
      <point x="47,752" y="103,706"/>
      <point x="47,752" y="177,064" type="qcurve" smooth="yes"/>
      <point x="47,752" y="531,502" type="line"/>
      <point x="136,314" y="531,502" type="line"/>
      <point x="136,314" y="330,502" type="line"/>
      <point x="136,314" y="177,127" type="line" smooth="yes"/>
      <point x="136,402" y="140,464"/>
      <point x="188,222" y="88,627"/>
      <point x="261,536" y="88,627"/>
      <point x="313,413" y="140,47"/>
      <point x="313,438" y="177,127" type="qcurve" smooth="yes"/>
      <point x="313,438" y="330,5" type="line"/>
      <point x="313,438" y="531,5" type="line"/>
      <point x="402" y="531,5" type="line"/>
      <point x="402" y="177,062" type="line"/>
    </contour>
  </outline>
</glyph>
<glyph name="v" format="1">
  <advance width="450"/>
  <unicode hex="0076"/>
  <outline>
    <contour>
      <point x="48,0635" y="531,5" type="line"/>
      <point x="136,626" y="531,5" type="line"/>
      <point x="225,188" y="88,625" type="line"/>
      <point x="313,751" y="531,5" type="line"/>
      <point x="402,313" y="531,5" type="line"/>
      <point x="296,001" y="0" type="line"/>
      <point x="225,188" y="0" type="line"/>
      <point x="154,376" y="0" type="line"/>
    </contour>
  </outline>
</glyph>
<glyph name="w" format="1">
  <advance width="712"/>
  <unicode hex="0077"/>
  <outline>
    <contour>
      <point x="46,0625" y="531,5" type="line"/>
      <point x="134,625" y="531,5" type="line"/>
      <point x="223,188" y="88,625" type="line"/>
      <point x="311,75" y="531,5" type="line"/>
      <point x="400,312" y="531,5" type="line"/>
      <point x="488,875" y="88,625" type="line"/>
      <point x="577,438" y="531,5" type="line"/>
      <point x="666" y="531,5" type="line"/>
      <point x="559,688" y="0" type="line"/>
      <point x="488,875" y="0" type="line"/>
      <point x="418,062" y="0" type="line"/>
      <point x="356,062" y="310,125" type="line"/>
      <point x="294" y="0" type="line"/>
      <point x="223,188" y="0" type="line"/>
      <point x="152,375" y="0" type="line"/>
    </contour>
  </outline>
</glyph>
<glyph name="x" format="1">
  <advance width="450"/>
  <unicode hex="0078"/>
  <outline>
    <contour>
      <point x="47,7529" y="531,502" type="line"/>
      <point x="136,315" y="531,502" type="line"/>
      <point x="224,878" y="354,314" type="line"/>
      <point x="313,44" y="531,502" type="line"/>
      <point x="402,003" y="531,502" type="line"/>
      <point x="269,128" y="265,752" type="line"/>
      <point x="402,003" y="0" type="line"/>
      <point x="313,44" y="0" type="line"/>
      <point x="224,878" y="177,188" type="line"/>
      <point x="136,315" y="0" type="line"/>
      <point x="47,7529" y="0" type="line"/>
      <point x="180,628" y="265,752" type="line"/>
    </contour>
  </outline>
</glyph>
<glyph name="y" format="1">
  <advance width="450"/>
  <unicode hex="0079"/>
  <outline>
    <contour>
      <point x="83,0645" y="531,5" type="line"/>
      <point x="171,625" y="531,5" type="line"/>
      <point x="242" y="179,812" type="line"/>
      <point x="310" y="531,5" type="line"/>
      <point x="402" y="531,5" type="line"/>
      <point x="281,875" y="-69,377" type="line" smooth="yes"/>
      <point x="272,647" y="-116,856"/>
      <point x="200,226" y="-177,193"/>
      <point x="153,25" y="-177,127" type="qcurve" smooth="yes"/>
      <point x="140,378" y="-177,106"/>
      <point x="127,938" y="-174,689" type="qcurve" smooth="yes"/>
      <point x="78,335" y="-165,049"/>
      <point x="47,7363" y="-124,875" type="qcurve"/>
      <point x="112,102" y="-60,5352" type="line"/>
      <point x="121,125" y="-83,1211"/>
      <point x="144,938" y="-87,752" type="qcurve" smooth="yes"/>
      <point x="162,962" y="-91,2549"/>
      <point x="193,424" y="-70,7627"/>
      <point x="197" y="-52,752" type="qcurve" smooth="yes"/>
      <point x="198,625" y="-44,252" type="line"/>
    </contour>
  </outline>
</glyph>
<glyph name="z" format="1">
  <advance width="450"/>
  <unicode hex="007A"/>
  <outline>
    <contour>
      <point x="47,7402" y="531,496" type="line"/>
      <point x="402" y="531,496" type="line"/>
      <point x="402" y="442,914" type="line"/>
      <point x="158,469" y="88,584" type="line"/>
      <point x="402" y="88,584" type="line"/>
      <point x="402" y="0" type="line"/>
      <point x="47,7402" y="-0,0410156" type="line"/>
      <point x="47,7402" y="88,584" type="line"/>
      <point x="291,271" y="442,914" type="line"/>
      <point x="47,7402" y="442,914" type="line"/>
    </contour>
  </outline>
</glyph>
<glyph name="braceleft" format="1">
  <advance width="450"/>
  <unicode hex="007B"/>
  <outline>
    <contour>
      <point x="341" y="-84" type="qcurve" smooth="yes"/>
      <point x="346" y="-84"/>
      <point x="346" y="-79" type="qcurve" smooth="yes"/>
      <point x="346" y="-9" type="line" smooth="yes"/>
      <point x="346" y="-4"/>
      <point x="341" y="-4" type="qcurve" smooth="yes"/>
      <point x="311" y="-2"/>
      <point x="266" y="46"/>
      <point x="266" y="77" type="qcurve" smooth="yes"/>
      <point x="266" y="197" type="line" smooth="yes"/>
      <point x="266" y="247"/>
      <point x="195" y="318"/>
      <point x="145" y="318" type="qcurve"/>
      <point x="195" y="318"/>
      <point x="266" y="389"/>
      <point x="266" y="439" type="qcurve" smooth="yes"/>
      <point x="266" y="559" type="line" smooth="yes"/>
      <point x="266" y="590"/>
      <point x="311" y="638"/>
      <point x="341" y="640" type="qcurve" smooth="yes"/>
      <point x="346" y="640"/>
      <point x="346" y="645" type="qcurve" smooth="yes"/>
      <point x="346" y="715" type="line" smooth="yes"/>
      <point x="346" y="720"/>
      <point x="341" y="720" type="qcurve" smooth="yes"/>
      <point x="276" y="718"/>
      <point x="185" y="625"/>
      <point x="185" y="559" type="qcurve" smooth="yes"/>
      <point x="185" y="439" type="line" smooth="yes"/>
      <point x="185" y="408"/>
      <point x="140" y="360"/>
      <point x="109" y="358" type="qcurve" smooth="yes"/>
      <point x="105" y="358"/>
      <point x="105" y="354" type="qcurve" smooth="yes"/>
      <point x="105" y="282" type="line" smooth="yes"/>
      <point x="105" y="278"/>
      <point x="109" y="278" type="qcurve" smooth="yes"/>
      <point x="140" y="276"/>
      <point x="185" y="228"/>
      <point x="185" y="197" type="qcurve" smooth="yes"/>
      <point x="185" y="77" type="line" smooth="yes"/>
      <point x="185" y="11"/>
      <point x="276" y="-82"/>
    </contour>
  </outline>
</glyph>
<glyph name="bar" format="1">
  <advance width="450"/>
  <unicode hex="007C"/>
  <outline>
    <contour>
      <point x="182" y="783" type="line" smooth="yes"/>
      <point x="182" y="788"/>
      <point x="188" y="788" type="qcurve" smooth="yes"/>
      <point x="263" y="788" type="line" smooth="yes"/>
      <point x="269" y="788"/>
      <point x="269" y="783" type="qcurve" smooth="yes"/>
      <point x="269" y="-88" type="line" smooth="yes"/>
      <point x="269" y="-94"/>
      <point x="263" y="-94" type="qcurve" smooth="yes"/>
      <point x="188" y="-94" type="line" smooth="yes"/>
      <point x="182" y="-94"/>
      <point x="182" y="-88" type="qcurve" smooth="yes"/>
    </contour>
  </outline>
</glyph>
<glyph name="braceright" format="1">
  <advance width="450"/>
  <unicode hex="007D"/>
  <outline>
    <contour>
      <point x="109" y="-84" type="qcurve" smooth="yes"/>
      <point x="104" y="-84"/>
      <point x="104" y="-79" type="qcurve" smooth="yes"/>
      <point x="104" y="-9" type="line" smooth="yes"/>
      <point x="104" y="-4"/>
      <point x="109" y="-4" type="qcurve" smooth="yes"/>
      <point x="139" y="-2"/>
      <point x="184" y="46"/>
      <point x="184" y="77" type="qcurve" smooth="yes"/>
      <point x="184" y="197" type="line" smooth="yes"/>
      <point x="184" y="247"/>
      <point x="255" y="318"/>
      <point x="305" y="318" type="qcurve"/>
      <point x="255" y="318"/>
      <point x="184" y="389"/>
      <point x="184" y="439" type="qcurve" smooth="yes"/>
      <point x="184" y="559" type="line" smooth="yes"/>
      <point x="184" y="590"/>
      <point x="139" y="638"/>
      <point x="109" y="640" type="qcurve" smooth="yes"/>
      <point x="104" y="640"/>
      <point x="104" y="645" type="qcurve" smooth="yes"/>
      <point x="104" y="715" type="line" smooth="yes"/>
      <point x="104" y="720"/>
      <point x="109" y="720" type="qcurve" smooth="yes"/>
      <point x="174" y="718"/>
      <point x="265" y="625"/>
      <point x="265" y="559" type="qcurve" smooth="yes"/>
      <point x="265" y="439" type="line" smooth="yes"/>
      <point x="265" y="408"/>
      <point x="310" y="360"/>
      <point x="341" y="358" type="qcurve" smooth="yes"/>
      <point x="345" y="358"/>
      <point x="345" y="354" type="qcurve" smooth="yes"/>
      <point x="345" y="282" type="line" smooth="yes"/>
      <point x="345" y="278"/>
      <point x="341" y="278" type="qcurve" smooth="yes"/>
      <point x="310" y="276"/>
      <point x="265" y="228"/>
      <point x="265" y="197" type="qcurve" smooth="yes"/>
      <point x="265" y="77" type="line" smooth="yes"/>
      <point x="265" y="11"/>
      <point x="174" y="-82"/>
    </contour>
  </outline>
</glyph>
<glyph name="asciitilde" format="1">
  <advance width="450"/>
  <unicode hex="007E"/>
  <outline>
    <contour>
      <point x="31,6816" y="308,53" type="qcurve"/>
      <point x="117,389" y="331,085" type="line"/>
      <point x="122,059" y="313,338"/>
      <point x="153,723" y="294,825"/>
      <point x="171,459" y="299,492" type="qcurve" smooth="yes"/>
      <point x="240,242" y="317,594" type="line"/>
      <point x="257,105" y="322,031" type="line" smooth="yes"/>
      <point x="310,331" y="336,038"/>
      <point x="405,414" y="280,573"/>
      <point x="419,421" y="227,347" type="qcurve"/>
      <point x="333,714" y="204,792" type="line"/>
      <point x="329,043" y="222,542"/>
      <point x="297,381" y="241,052"/>
      <point x="279,644" y="236,385" type="qcurve" smooth="yes"/>
      <point x="210,86" y="218,284" type="line"/>
      <point x="193,997" y="213,846" type="line" smooth="yes"/>
      <point x="140,772" y="199,84"/>
      <point x="45,6875" y="255,306"/>
    </contour>
  </outline>
</glyph>
<glyph name="sterling" format="1">
  <advance width="450"/>
  <unicode hex="00A3"/>
  <outline>
    <contour>
      <point x="246,938" y="708,688" type="qcurve" smooth="yes"/>
      <point x="247,062" y="708,688" type="line" smooth="yes"/>
      <point x="311,243" y="708,688"/>
      <point x="402" y="617,88"/>
      <point x="402" y="553,688" type="qcurve"/>
      <point x="313,438" y="553,688" type="line"/>
      <point x="313,438" y="581,216"/>
      <point x="274,528" y="620,125"/>
      <point x="219,479" y="620,125"/>
      <point x="180,625" y="581,222"/>
      <point x="180,625" y="553,688" type="qcurve" smooth="yes"/>
      <point x="180,625" y="398,625" type="line"/>
      <point x="291,312" y="398,625" type="line"/>
      <point x="291,312" y="310,062" type="line"/>
      <point x="180,625" y="310,062" type="line"/>
      <point x="180,625" y="132,875" type="line" smooth="yes"/>
      <point x="180,625" y="110,044"/>
      <point x="173,062" y="88,625" type="qcurve"/>
      <point x="402" y="88,625" type="line"/>
      <point x="402" y="0" type="line"/>
      <point x="47,75" y="0" type="line"/>
      <point x="47,75" y="88,625" type="line"/>
      <point x="66,1025" y="88,625"/>
      <point x="92,0625" y="114,535"/>
      <point x="92,0625" y="132,875" type="qcurve" smooth="yes"/>
      <point x="92,0625" y="310,062" type="line"/>
      <point x="47,75" y="310,062" type="line"/>
      <point x="47,75" y="398,625" type="line"/>
      <point x="92" y="398,625" type="line"/>
      <point x="92" y="553,688" type="line" smooth="yes"/>
      <point x="92" y="617,88"/>
      <point x="182,758" y="708,688"/>
    </contour>
  </outline>
</glyph>
<glyph name="section" format="1">
  <advance width="812"/>
  <unicode hex="00A7"/>
  <outline>
    <contour>
      <point x="252,625" y="531,438" type="line"/>
      <point x="354,875" y="531,438" type="line"/>
      <point x="310,562" y="454,75" type="line"/>
      <point x="417,625" y="269,312" type="line"/>
      <point x="419,75" y="265,75" type="line"/>
      <point x="573,188" y="531,438" type="line"/>
      <point x="675,438" y="531,438" type="line"/>
      <point x="631,125" y="454,75" type="line"/>
      <point x="738,188" y="269,312" type="line" smooth="yes"/>
      <point x="764" y="226,887"/>
      <point x="764" y="177,188" type="qcurve" smooth="yes"/>
      <point x="764" y="103,818"/>
      <point x="660,244" y="0,0625"/>
      <point x="586,875" y="0,0625" type="qcurve" smooth="yes"/>
      <point x="534,736" y="0,0625"/>
      <point x="448,58" y="55,4961"/>
      <point x="426,875" y="101" type="qcurve"/>
      <point x="420,812" y="90,5625" type="line" smooth="yes"/>
      <point x="397,271" y="48,9707"/>
      <point x="315,098" y="0,0625"/>
      <point x="266,312" y="0,0625" type="qcurve" smooth="yes"/>
      <point x="214,174" y="0,0625"/>
      <point x="128,018" y="55,4961"/>
      <point x="106,312" y="101" type="qcurve"/>
      <point x="48" y="0" type="line"/>
      <point x="48" y="177,125" type="line"/>
    </contour>
    <contour>
      <point x="259,5" y="366,188" type="line"/>
      <point x="177,75" y="224,625" type="line"/>
      <point x="177,75" y="177,125" type="line" smooth="yes"/>
      <point x="177,75" y="140,439"/>
      <point x="229,627" y="88,5625"/>
      <point x="302,998" y="88,5625"/>
      <point x="354,875" y="140,439"/>
      <point x="354,875" y="177,125" type="qcurve" smooth="yes"/>
      <point x="354,875" y="200,938"/>
      <point x="343" y="221,438" type="qcurve"/>
    </contour>
    <contour>
      <point x="580,062" y="366,188" type="line"/>
      <point x="498,312" y="224,625" type="line"/>
      <point x="498,312" y="177,125" type="line" smooth="yes"/>
      <point x="498,312" y="140,439"/>
      <point x="550,189" y="88,5625"/>
      <point x="623,561" y="88,5625"/>
      <point x="675,438" y="140,439"/>
      <point x="675,438" y="177,125" type="qcurve" smooth="yes"/>
      <point x="675,438" y="200,938"/>
      <point x="663,562" y="221,438" type="qcurve"/>
      <point x="663,625" y="221,438" type="line"/>
    </contour>
  </outline>
</glyph>
<glyph name="copyright" format="1">
  <advance width="716"/>
  <unicode hex="00A9"/>
  <outline>
    <contour>
      <point x="486,388" y="707,062"/>
      <point x="667,938" y="525,462"/>
      <point x="667,938" y="397,062" type="qcurve" smooth="yes"/>
      <point x="667,938" y="310" type="line" smooth="yes"/>
      <point x="667,938" y="181,601"/>
      <point x="486,388" y="0"/>
      <point x="229,622" y="0"/>
      <point x="48,0244" y="181,564"/>
      <point x="48" y="309,938" type="qcurve"/>
      <point x="47,875" y="309,938" type="line"/>
      <point x="47,875" y="397,125" type="line"/>
      <point x="48" y="397,125" type="line"/>
      <point x="48,0244" y="525,498"/>
      <point x="229,622" y="707,062"/>
    </contour>
    <contour>
      <point x="266,286" y="618,562"/>
      <point x="136,524" y="488,836"/>
      <point x="136,5" y="397,125" type="qcurve" smooth="yes"/>
      <point x="136,5" y="309,938" type="line" smooth="yes"/>
      <point x="136,524" y="218,229"/>
      <point x="266,286" y="88,5"/>
      <point x="449,724" y="88,5"/>
      <point x="579,438" y="218,264"/>
      <point x="579,438" y="310" type="qcurve"/>
      <point x="579,438" y="397,062" type="line" smooth="yes"/>
      <point x="579,438" y="488,799"/>
      <point x="449,724" y="618,562"/>
    </contour>
    <contour>
      <point x="357,938" y="553,625" type="qcurve" smooth="yes"/>
      <point x="421,299" y="553,6"/>
      <point x="512,938" y="461,831"/>
      <point x="512,938" y="398,625" type="qcurve" smooth="yes"/>
      <point x="512,998" y="310" type="line" smooth="yes"/>
      <point x="512,998" y="246,884"/>
      <point x="421,422" y="155,132"/>
      <point x="358,248" y="155" type="qcurve" smooth="yes"/>
      <point x="357,873" y="155" type="line" smooth="yes"/>
      <point x="293,461" y="155,178"/>
      <point x="202,998" y="245,926"/>
      <point x="202,998" y="310" type="qcurve"/>
      <point x="291,561" y="310" type="line"/>
      <point x="291,561" y="282,473"/>
      <point x="330,471" y="243,562"/>
      <point x="385,521" y="243,562"/>
      <point x="424,373" y="282,467"/>
      <point x="424,373" y="310" type="qcurve" smooth="yes"/>
      <point x="424,312" y="398,625" type="line" smooth="yes"/>
      <point x="424,312" y="426,158"/>
      <point x="385,459" y="465,062"/>
      <point x="330,41" y="465,062"/>
      <point x="291,5" y="426,152"/>
      <point x="291,5" y="398,625" type="qcurve"/>
      <point x="202,938" y="398,625" type="line"/>
      <point x="202,938" y="462,812"/>
      <point x="293,751" y="553,625"/>
    </contour>
  </outline>
</glyph>
<glyph name="guillemotleft" format="1">
  <advance width="450"/>
  <unicode hex="00AB"/>
  <outline>
    <contour>
      <point x="224" y="377" type="line" smooth="yes"/>
      <point x="224" y="379"/>
      <point x="226" y="381" type="qcurve" smooth="yes"/>
      <point x="389" y="510" type="line" smooth="yes"/>
      <point x="391" y="512"/>
      <point x="396" y="509"/>
      <point x="396" y="506" type="qcurve" smooth="yes"/>
      <point x="396" y="429" type="line" smooth="yes"/>
      <point x="396" y="427"/>
      <point x="394" y="426" type="qcurve" smooth="yes"/>
      <point x="279" y="332" type="line"/>
      <point x="394" y="237" type="line"/>
      <point x="396" y="233" type="line"/>
      <point x="396" y="156" type="line" smooth="yes"/>
      <point x="396" y="153"/>
      <point x="391" y="151"/>
      <point x="389" y="152" type="qcurve" smooth="yes"/>
      <point x="226" y="284" type="line" smooth="yes"/>
      <point x="224" y="285"/>
      <point x="224" y="287" type="qcurve" smooth="yes"/>
    </contour>
    <contour>
      <point x="54" y="377" type="line" smooth="yes"/>
      <point x="54" y="379"/>
      <point x="56" y="381" type="qcurve" smooth="yes"/>
      <point x="219" y="510" type="line" smooth="yes"/>
      <point x="221" y="512"/>
      <point x="226" y="509"/>
      <point x="226" y="506" type="qcurve" smooth="yes"/>
      <point x="226" y="429" type="line" smooth="yes"/>
      <point x="226" y="427"/>
      <point x="224" y="426" type="qcurve" smooth="yes"/>
      <point x="109" y="332" type="line"/>
      <point x="224" y="237" type="line"/>
      <point x="226" y="233" type="line"/>
      <point x="226" y="156" type="line" smooth="yes"/>
      <point x="226" y="153"/>
      <point x="221" y="151"/>
      <point x="219" y="152" type="qcurve" smooth="yes"/>
      <point x="56" y="284" type="line" smooth="yes"/>
      <point x="54" y="285"/>
      <point x="54" y="287" type="qcurve" smooth="yes"/>
    </contour>
  </outline>
</glyph>
<glyph name="degree" format="1">
  <advance width="260"/>
  <unicode hex="00B0"/>
  <outline>
    <contour>
      <point x="128" y="800" type="qcurve" smooth="yes"/>
      <point x="130" y="800" type="line" smooth="yes"/>
      <point x="162,1" y="800"/>
      <point x="207,469" y="754,631"/>
      <point x="207,469" y="690,43"/>
      <point x="162,096" y="645,031"/>
      <point x="97,9014" y="645,031"/>
      <point x="52,5" y="690,433"/>
      <point x="52,5" y="722,531" type="qcurve" smooth="yes"/>
      <point x="52,5" y="754,09"/>
      <point x="96,5557" y="799,203"/>
    </contour>
    <contour>
      <point x="117,154" y="753,531"/>
      <point x="98,9688" y="735,372"/>
      <point x="98,9688" y="709,688"/>
      <point x="117,157" y="691,5"/>
      <point x="142,841" y="691,5"/>
      <point x="161" y="709,686"/>
      <point x="161" y="735,375"/>
      <point x="142,844" y="753,531"/>
    </contour>
  </outline>
</glyph>
<glyph name="uni00B5" format="1">
  <advance width="450"/>
  <unicode hex="00B5"/>
  <outline>
    <contour>
      <point x="47,752" y="531,5" type="line"/>
      <point x="136,314" y="531,502" type="line"/>
      <point x="136,314" y="330,502" type="line"/>
      <point x="136,314" y="221,502" type="line"/>
      <point x="136,314" y="177,127" type="line" smooth="yes"/>
      <point x="136,403" y="140,463"/>
      <point x="188,223" y="88,627"/>
      <point x="261,538" y="88,627"/>
      <point x="313,415" y="140,47"/>
      <point x="313,439" y="177,127" type="qcurve" smooth="yes"/>
      <point x="313,439" y="330,5" type="line"/>
      <point x="313,439" y="531,5" type="line"/>
      <point x="402,002" y="531,5" type="line"/>
      <point x="402,002" y="177,062" type="line"/>
      <point x="402,002" y="0" type="line"/>
      <point x="313,439" y="0" type="line"/>
      <point x="313,439" y="23,6875" type="line"/>
      <point x="272,461" y="0"/>
      <point x="177,372" y="0"/>
      <point x="136,314" y="23,75" type="qcurve"/>
      <point x="136,314" y="-132,873" type="line"/>
      <point x="47,752" y="-132,873" type="line"/>
      <point x="47,752" y="177,062" type="line"/>
      <point x="47,752" y="221,5" type="line"/>
    </contour>
  </outline>
</glyph>
<glyph name="guillemotright" format="1">
  <advance width="450"/>
  <unicode hex="00BB"/>
  <outline>
    <contour>
      <point x="226" y="285" type="line" smooth="yes"/>
      <point x="226" y="283"/>
      <point x="224" y="282" type="qcurve" smooth="yes"/>
      <point x="61" y="152" type="line" smooth="yes"/>
      <point x="59" y="151"/>
      <point x="54" y="153"/>
      <point x="54" y="156" type="qcurve" smooth="yes"/>
      <point x="54" y="233" type="line" smooth="yes"/>
      <point x="54" y="236"/>
      <point x="56" y="237" type="qcurve" smooth="yes"/>
      <point x="171" y="330" type="line"/>
      <point x="56" y="426" type="line"/>
      <point x="54" y="429" type="line"/>
      <point x="54" y="506" type="line" smooth="yes"/>
      <point x="54" y="509"/>
      <point x="59" y="512"/>
      <point x="61" y="510" type="qcurve" smooth="yes"/>
      <point x="224" y="379" type="line" smooth="yes"/>
      <point x="226" y="377"/>
      <point x="226" y="375" type="qcurve" smooth="yes"/>
    </contour>
    <contour>
      <point x="396" y="285" type="line" smooth="yes"/>
      <point x="396" y="283"/>
      <point x="394" y="282" type="qcurve" smooth="yes"/>
      <point x="231" y="152" type="line" smooth="yes"/>
      <point x="229" y="151"/>
      <point x="224" y="153"/>
      <point x="224" y="156" type="qcurve" smooth="yes"/>
      <point x="224" y="233" type="line" smooth="yes"/>
      <point x="224" y="236"/>
      <point x="226" y="237" type="qcurve" smooth="yes"/>
      <point x="341" y="330" type="line"/>
      <point x="226" y="426" type="line"/>
      <point x="224" y="429" type="line"/>
      <point x="224" y="506" type="line" smooth="yes"/>
      <point x="224" y="509"/>
      <point x="229" y="512"/>
      <point x="231" y="510" type="qcurve" smooth="yes"/>
      <point x="394" y="379" type="line" smooth="yes"/>
      <point x="396" y="377"/>
      <point x="396" y="375" type="qcurve" smooth="yes"/>
    </contour>
  </outline>
</glyph>
<glyph name="Agrave" format="1">
  <advance width="450"/>
  <unicode hex="00C0"/>
  <outline>
    <contour>
      <point x="143,5" y="848" type="line"/>
      <point x="232" y="848" type="line"/>
      <point x="320,562" y="715,125" type="line"/>
      <point x="254,125" y="715,125" type="line"/>
    </contour>
    <contour>
      <point x="399" y="6" type="line"/>
      <point x="399" y="5" type="line" smooth="yes"/>
      <point x="399" y="0"/>
      <point x="394" y="0" type="qcurve" smooth="yes"/>
      <point x="317" y="0" type="line" smooth="yes"/>
      <point x="312" y="0"/>
      <point x="312" y="4" type="qcurve" smooth="yes"/>
      <point x="289" y="127" type="line" smooth="yes"/>
      <point x="288" y="131"/>
      <point x="284" y="131" type="qcurve" smooth="yes"/>
      <point x="167" y="131" type="line" smooth="yes"/>
      <point x="162" y="131"/>
      <point x="161" y="127" type="qcurve" smooth="yes"/>
      <point x="138" y="4" type="line" smooth="yes"/>
      <point x="138" y="0"/>
      <point x="133" y="0" type="qcurve" smooth="yes"/>
      <point x="56" y="0" type="line"/>
      <point x="56" y="0" type="line"/>
      <point x="50" y="1"/>
      <point x="51" y="6" type="qcurve" smooth="yes"/>
      <point x="181" y="695" type="line" smooth="yes"/>
      <point x="181" y="699"/>
      <point x="186" y="699" type="qcurve" smooth="yes"/>
      <point x="264" y="699" type="line" smooth="yes"/>
      <point x="269" y="699"/>
      <point x="270" y="695" type="qcurve" smooth="yes"/>
    </contour>
    <contour>
      <point x="265" y="219" type="line" smooth="yes"/>
      <point x="270" y="219"/>
      <point x="270" y="224" type="qcurve" smooth="yes"/>
      <point x="270" y="225" type="line" smooth="yes"/>
      <point x="230" y="439" type="line" smooth="yes"/>
      <point x="229" y="444"/>
      <point x="224" y="443" type="qcurve" smooth="yes"/>
      <point x="221" y="442"/>
      <point x="220" y="439" type="qcurve" smooth="yes"/>
      <point x="180" y="225" type="line" smooth="yes"/>
      <point x="179" y="220"/>
      <point x="184" y="219" type="qcurve"/>
      <point x="185" y="219" type="line" smooth="yes"/>
    </contour>
  </outline>
</glyph>
<glyph name="Acircumflex" format="1">
  <advance width="450"/>
  <unicode hex="00C2"/>
  <outline>
    <contour>
      <point x="180,527" y="848" type="line"/>
      <point x="269,09" y="848" type="line"/>
      <point x="357,715" y="715,125" type="line"/>
      <point x="291,215" y="715,125" type="line"/>
      <point x="224,84" y="794,875" type="line"/>
      <point x="158,402" y="715,125" type="line"/>
      <point x="91,9648" y="715,125" type="line"/>
    </contour>
    <contour>
      <point x="399" y="6" type="line"/>
      <point x="399" y="5" type="line" smooth="yes"/>
      <point x="399" y="0"/>
      <point x="394" y="0" type="qcurve" smooth="yes"/>
      <point x="317" y="0" type="line" smooth="yes"/>
      <point x="312" y="0"/>
      <point x="312" y="4" type="qcurve" smooth="yes"/>
      <point x="289" y="127" type="line" smooth="yes"/>
      <point x="288" y="131"/>
      <point x="284" y="131" type="qcurve" smooth="yes"/>
      <point x="167" y="131" type="line" smooth="yes"/>
      <point x="162" y="131"/>
      <point x="161" y="127" type="qcurve" smooth="yes"/>
      <point x="138" y="4" type="line" smooth="yes"/>
      <point x="138" y="0"/>
      <point x="133" y="0" type="qcurve" smooth="yes"/>
      <point x="56" y="0" type="line"/>
      <point x="56" y="0" type="line"/>
      <point x="50" y="1"/>
      <point x="51" y="6" type="qcurve" smooth="yes"/>
      <point x="181" y="695" type="line" smooth="yes"/>
      <point x="181" y="699"/>
      <point x="186" y="699" type="qcurve" smooth="yes"/>
      <point x="264" y="699" type="line" smooth="yes"/>
      <point x="269" y="699"/>
      <point x="270" y="695" type="qcurve" smooth="yes"/>
    </contour>
    <contour>
      <point x="265" y="219" type="line" smooth="yes"/>
      <point x="270" y="219"/>
      <point x="270" y="224" type="qcurve" smooth="yes"/>
      <point x="270" y="225" type="line" smooth="yes"/>
      <point x="230" y="439" type="line" smooth="yes"/>
      <point x="229" y="444"/>
      <point x="224" y="443" type="qcurve" smooth="yes"/>
      <point x="221" y="442"/>
      <point x="220" y="439" type="qcurve" smooth="yes"/>
      <point x="180" y="225" type="line" smooth="yes"/>
      <point x="179" y="220"/>
      <point x="184" y="219" type="qcurve"/>
      <point x="185" y="219" type="line" smooth="yes"/>
    </contour>
  </outline>
</glyph>
<glyph name="Adieresis" format="1">
  <advance width="450"/>
  <unicode hex="00C4"/>
  <outline>
    <contour>
      <point x="188,346" y="848"/>
      <point x="214,312" y="822,034"/>
      <point x="214,312" y="803,688" type="qcurve" smooth="yes"/>
      <point x="214,312" y="799,214"/>
      <point x="213,438" y="794,875" type="qcurve" smooth="yes"/>
      <point x="210,348" y="779,571"/>
      <point x="185,956" y="759,438"/>
      <point x="170" y="759,438" type="qcurve" smooth="yes"/>
      <point x="151,654" y="759,438"/>
      <point x="125,75" y="785,342"/>
      <point x="125,75" y="822,04"/>
      <point x="151,66" y="848"/>
    </contour>
    <contour>
      <point x="299,033" y="848"/>
      <point x="325" y="822,034"/>
      <point x="325" y="803,688" type="qcurve" smooth="yes"/>
      <point x="325" y="799,214"/>
      <point x="324,125" y="794,875" type="qcurve" smooth="yes"/>
      <point x="321,035" y="779,571"/>
      <point x="296,644" y="759,438"/>
      <point x="280,688" y="759,438" type="qcurve" smooth="yes"/>
      <point x="262,342" y="759,438"/>
      <point x="236,438" y="785,342"/>
      <point x="236,438" y="822,04"/>
      <point x="262,348" y="848"/>
    </contour>
    <contour>
      <point x="399" y="6" type="line"/>
      <point x="399" y="5" type="line" smooth="yes"/>
      <point x="399" y="0"/>
      <point x="394" y="0" type="qcurve" smooth="yes"/>
      <point x="317" y="0" type="line" smooth="yes"/>
      <point x="312" y="0"/>
      <point x="312" y="4" type="qcurve" smooth="yes"/>
      <point x="289" y="127" type="line" smooth="yes"/>
      <point x="288" y="131"/>
      <point x="284" y="131" type="qcurve" smooth="yes"/>
      <point x="167" y="131" type="line" smooth="yes"/>
      <point x="162" y="131"/>
      <point x="161" y="127" type="qcurve" smooth="yes"/>
      <point x="138" y="4" type="line" smooth="yes"/>
      <point x="138" y="0"/>
      <point x="133" y="0" type="qcurve" smooth="yes"/>
      <point x="56" y="0" type="line"/>
      <point x="56" y="0" type="line"/>
      <point x="50" y="1"/>
      <point x="51" y="6" type="qcurve" smooth="yes"/>
      <point x="181" y="695" type="line" smooth="yes"/>
      <point x="181" y="699"/>
      <point x="186" y="699" type="qcurve" smooth="yes"/>
      <point x="264" y="699" type="line" smooth="yes"/>
      <point x="269" y="699"/>
      <point x="270" y="695" type="qcurve" smooth="yes"/>
    </contour>
    <contour>
      <point x="265" y="219" type="line" smooth="yes"/>
      <point x="270" y="219"/>
      <point x="270" y="224" type="qcurve" smooth="yes"/>
      <point x="270" y="225" type="line" smooth="yes"/>
      <point x="230" y="439" type="line" smooth="yes"/>
      <point x="229" y="444"/>
      <point x="224" y="443" type="qcurve" smooth="yes"/>
      <point x="221" y="442"/>
      <point x="220" y="439" type="qcurve" smooth="yes"/>
      <point x="180" y="225" type="line" smooth="yes"/>
      <point x="179" y="220"/>
      <point x="184" y="219" type="qcurve"/>
      <point x="185" y="219" type="line" smooth="yes"/>
    </contour>
  </outline>
</glyph>
<glyph name="AE" format="1">
  <advance width="450"/>
  <unicode hex="00C6"/>
  <outline>
    <contour>
      <point x="176" y="699" type="line"/>
      <point x="524" y="699" type="line"/>
      <point x="524" y="600" type="line"/>
      <point x="324" y="600" type="line"/>
      <point x="324" y="399" type="line"/>
      <point x="474" y="399" type="line"/>
      <point x="474" y="300" type="line"/>
      <point x="324" y="300" type="line"/>
      <point x="324" y="99" type="line"/>
      <point x="524" y="99" type="line"/>
      <point x="524" y="0" type="line"/>
      <point x="226" y="0" type="line"/>
      <point x="226" y="149" type="line"/>
      <point x="74" y="150" type="line"/>
      <point x="24" y="0" type="line"/>
      <point x="-74" y="0" type="line"/>
    </contour>
    <contour>
      <point x="212" y="550" type="line"/>
      <point x="112" y="249" type="line"/>
      <point x="226" y="249" type="line"/>
      <point x="226" y="550" type="line"/>
    </contour>
  </outline>
</glyph>
<glyph name="Egrave" format="1">
  <advance width="450"/>
  <unicode hex="00C8"/>
  <outline>
    <contour>
      <point x="143,5" y="848" type="line"/>
      <point x="232" y="848" type="line"/>
      <point x="320,562" y="715,125" type="line"/>
      <point x="254,125" y="715,125" type="line"/>
    </contour>
    <contour>
      <point x="400" y="694" type="qcurve" smooth="yes"/>
      <point x="400" y="617" type="line" smooth="yes"/>
      <point x="400" y="612"/>
      <point x="395" y="612" type="qcurve" smooth="yes"/>
      <point x="143" y="612" type="line" smooth="yes"/>
      <point x="138" y="612"/>
      <point x="138" y="607" type="qcurve" smooth="yes"/>
      <point x="138" y="399" type="line" smooth="yes"/>
      <point x="138" y="393"/>
      <point x="143" y="393" type="qcurve" smooth="yes"/>
      <point x="307" y="393" type="line" smooth="yes"/>
      <point x="312" y="393"/>
      <point x="312" y="388" type="qcurve" smooth="yes"/>
      <point x="312" y="311" type="line" smooth="yes"/>
      <point x="312" y="306"/>
      <point x="307" y="306" type="qcurve" smooth="yes"/>
      <point x="143" y="306" type="line" smooth="yes"/>
      <point x="138" y="306"/>
      <point x="138" y="301" type="qcurve" smooth="yes"/>
      <point x="138" y="93" type="line" smooth="yes"/>
      <point x="138" y="87"/>
      <point x="143" y="87" type="qcurve" smooth="yes"/>
      <point x="395" y="87" type="line" smooth="yes"/>
      <point x="400" y="87"/>
      <point x="400" y="82" type="qcurve" smooth="yes"/>
      <point x="400" y="5" type="line" smooth="yes"/>
      <point x="400" y="0"/>
      <point x="395" y="0" type="qcurve" smooth="yes"/>
      <point x="55" y="0" type="line" smooth="yes"/>
      <point x="50" y="0"/>
      <point x="50" y="5" type="qcurve" smooth="yes"/>
      <point x="50" y="694" type="line" smooth="yes"/>
      <point x="50" y="699"/>
      <point x="55" y="699" type="qcurve" smooth="yes"/>
      <point x="395" y="699" type="line" smooth="yes"/>
      <point x="400" y="699"/>
    </contour>
  </outline>
</glyph>
<glyph name="Ecircumflex" format="1">
  <advance width="450"/>
  <unicode hex="00CA"/>
  <outline>
    <contour>
      <point x="180,527" y="848" type="line"/>
      <point x="269,09" y="848" type="line"/>
      <point x="357,715" y="715,125" type="line"/>
      <point x="291,215" y="715,125" type="line"/>
      <point x="224,84" y="794,875" type="line"/>
      <point x="158,402" y="715,125" type="line"/>
      <point x="91,9648" y="715,125" type="line"/>
    </contour>
    <contour>
      <point x="400" y="694" type="qcurve" smooth="yes"/>
      <point x="400" y="617" type="line" smooth="yes"/>
      <point x="400" y="612"/>
      <point x="395" y="612" type="qcurve" smooth="yes"/>
      <point x="143" y="612" type="line" smooth="yes"/>
      <point x="138" y="612"/>
      <point x="138" y="607" type="qcurve" smooth="yes"/>
      <point x="138" y="399" type="line" smooth="yes"/>
      <point x="138" y="393"/>
      <point x="143" y="393" type="qcurve" smooth="yes"/>
      <point x="307" y="393" type="line" smooth="yes"/>
      <point x="312" y="393"/>
      <point x="312" y="388" type="qcurve" smooth="yes"/>
      <point x="312" y="311" type="line" smooth="yes"/>
      <point x="312" y="306"/>
      <point x="307" y="306" type="qcurve" smooth="yes"/>
      <point x="143" y="306" type="line" smooth="yes"/>
      <point x="138" y="306"/>
      <point x="138" y="301" type="qcurve" smooth="yes"/>
      <point x="138" y="93" type="line" smooth="yes"/>
      <point x="138" y="87"/>
      <point x="143" y="87" type="qcurve" smooth="yes"/>
      <point x="395" y="87" type="line" smooth="yes"/>
      <point x="400" y="87"/>
      <point x="400" y="82" type="qcurve" smooth="yes"/>
      <point x="400" y="5" type="line" smooth="yes"/>
      <point x="400" y="0"/>
      <point x="395" y="0" type="qcurve" smooth="yes"/>
      <point x="55" y="0" type="line" smooth="yes"/>
      <point x="50" y="0"/>
      <point x="50" y="5" type="qcurve" smooth="yes"/>
      <point x="50" y="694" type="line" smooth="yes"/>
      <point x="50" y="699"/>
      <point x="55" y="699" type="qcurve" smooth="yes"/>
      <point x="395" y="699" type="line" smooth="yes"/>
      <point x="400" y="699"/>
    </contour>
  </outline>
</glyph>
<glyph name="Edieresis" format="1">
  <advance width="450"/>
  <unicode hex="00CB"/>
  <outline>
    <contour>
      <point x="188,346" y="848"/>
      <point x="214,312" y="822,034"/>
      <point x="214,312" y="803,688" type="qcurve" smooth="yes"/>
      <point x="214,312" y="799,214"/>
      <point x="213,438" y="794,875" type="qcurve" smooth="yes"/>
      <point x="210,348" y="779,571"/>
      <point x="185,956" y="759,438"/>
      <point x="170" y="759,438" type="qcurve" smooth="yes"/>
      <point x="151,654" y="759,438"/>
      <point x="125,75" y="785,342"/>
      <point x="125,75" y="822,04"/>
      <point x="151,66" y="848"/>
    </contour>
    <contour>
      <point x="299,033" y="848"/>
      <point x="325" y="822,034"/>
      <point x="325" y="803,688" type="qcurve" smooth="yes"/>
      <point x="325" y="799,214"/>
      <point x="324,125" y="794,875" type="qcurve" smooth="yes"/>
      <point x="321,035" y="779,571"/>
      <point x="296,644" y="759,438"/>
      <point x="280,688" y="759,438" type="qcurve" smooth="yes"/>
      <point x="262,342" y="759,438"/>
      <point x="236,438" y="785,342"/>
      <point x="236,438" y="822,04"/>
      <point x="262,348" y="848"/>
    </contour>
    <contour>
      <point x="400" y="694" type="qcurve" smooth="yes"/>
      <point x="400" y="617" type="line" smooth="yes"/>
      <point x="400" y="612"/>
      <point x="395" y="612" type="qcurve" smooth="yes"/>
      <point x="143" y="612" type="line" smooth="yes"/>
      <point x="138" y="612"/>
      <point x="138" y="607" type="qcurve" smooth="yes"/>
      <point x="138" y="399" type="line" smooth="yes"/>
      <point x="138" y="393"/>
      <point x="143" y="393" type="qcurve" smooth="yes"/>
      <point x="307" y="393" type="line" smooth="yes"/>
      <point x="312" y="393"/>
      <point x="312" y="388" type="qcurve" smooth="yes"/>
      <point x="312" y="311" type="line" smooth="yes"/>
      <point x="312" y="306"/>
      <point x="307" y="306" type="qcurve" smooth="yes"/>
      <point x="143" y="306" type="line" smooth="yes"/>
      <point x="138" y="306"/>
      <point x="138" y="301" type="qcurve" smooth="yes"/>
      <point x="138" y="93" type="line" smooth="yes"/>
      <point x="138" y="87"/>
      <point x="143" y="87" type="qcurve" smooth="yes"/>
      <point x="395" y="87" type="line" smooth="yes"/>
      <point x="400" y="87"/>
      <point x="400" y="82" type="qcurve" smooth="yes"/>
      <point x="400" y="5" type="line" smooth="yes"/>
      <point x="400" y="0"/>
      <point x="395" y="0" type="qcurve" smooth="yes"/>
      <point x="55" y="0" type="line" smooth="yes"/>
      <point x="50" y="0"/>
      <point x="50" y="5" type="qcurve" smooth="yes"/>
      <point x="50" y="694" type="line" smooth="yes"/>
      <point x="50" y="699"/>
      <point x="55" y="699" type="qcurve" smooth="yes"/>
      <point x="395" y="699" type="line" smooth="yes"/>
      <point x="400" y="699"/>
    </contour>
  </outline>
</glyph>
<glyph name="Igrave" format="1">
  <advance width="450"/>
  <unicode hex="00CC"/>
  <outline>
    <contour>
      <point x="143,5" y="848" type="line"/>
      <point x="232" y="848" type="line"/>
      <point x="320,562" y="715,125" type="line"/>
      <point x="254,125" y="715,125" type="line"/>
    </contour>
    <contour>
      <point x="180" y="694" type="line" smooth="yes"/>
      <point x="180" y="699"/>
      <point x="185" y="699" type="qcurve" smooth="yes"/>
      <point x="262" y="699" type="line" smooth="yes"/>
      <point x="267" y="699"/>
      <point x="267" y="694" type="qcurve" smooth="yes"/>
      <point x="267" y="5" type="line" smooth="yes"/>
      <point x="267" y="0"/>
      <point x="262" y="0" type="qcurve" smooth="yes"/>
      <point x="185" y="0" type="line" smooth="yes"/>
      <point x="180" y="0"/>
      <point x="180" y="5" type="qcurve" smooth="yes"/>
    </contour>
  </outline>
</glyph>
<glyph name="Iacute" format="1">
  <advance width="450"/>
  <unicode hex="00CD"/>
  <outline>
    <contour>
      <point x="233,5" y="848" type="line"/>
      <point x="322" y="848" type="line"/>
      <point x="211,375" y="715,125" type="line"/>
      <point x="144,875" y="715,125" type="line"/>
    </contour>
    <contour>
      <point x="180" y="694" type="line" smooth="yes"/>
      <point x="180" y="699"/>
      <point x="185" y="699" type="qcurve" smooth="yes"/>
      <point x="262" y="699" type="line" smooth="yes"/>
      <point x="267" y="699"/>
      <point x="267" y="694" type="qcurve" smooth="yes"/>
      <point x="267" y="5" type="line" smooth="yes"/>
      <point x="267" y="0"/>
      <point x="262" y="0" type="qcurve" smooth="yes"/>
      <point x="185" y="0" type="line" smooth="yes"/>
      <point x="180" y="0"/>
      <point x="180" y="5" type="qcurve" smooth="yes"/>
    </contour>
  </outline>
</glyph>
<glyph name="Icircumflex" format="1">
  <advance width="450"/>
  <unicode hex="00CE"/>
  <outline>
    <contour>
      <point x="180,527" y="848" type="line"/>
      <point x="269,09" y="848" type="line"/>
      <point x="357,715" y="715,125" type="line"/>
      <point x="291,215" y="715,125" type="line"/>
      <point x="224,84" y="794,875" type="line"/>
      <point x="158,402" y="715,125" type="line"/>
      <point x="91,9648" y="715,125" type="line"/>
    </contour>
    <contour>
      <point x="180" y="694" type="line" smooth="yes"/>
      <point x="180" y="699"/>
      <point x="185" y="699" type="qcurve" smooth="yes"/>
      <point x="262" y="699" type="line" smooth="yes"/>
      <point x="267" y="699"/>
      <point x="267" y="694" type="qcurve" smooth="yes"/>
      <point x="267" y="5" type="line" smooth="yes"/>
      <point x="267" y="0"/>
      <point x="262" y="0" type="qcurve" smooth="yes"/>
      <point x="185" y="0" type="line" smooth="yes"/>
      <point x="180" y="0"/>
      <point x="180" y="5" type="qcurve" smooth="yes"/>
    </contour>
  </outline>
</glyph>
<glyph name="Idieresis" format="1">
  <advance width="450"/>
  <unicode hex="00CF"/>
  <outline>
    <contour>
      <point x="188,346" y="848"/>
      <point x="214,312" y="822,034"/>
      <point x="214,312" y="803,688" type="qcurve" smooth="yes"/>
      <point x="214,312" y="799,214"/>
      <point x="213,438" y="794,875" type="qcurve" smooth="yes"/>
      <point x="210,348" y="779,571"/>
      <point x="185,956" y="759,438"/>
      <point x="170" y="759,438" type="qcurve" smooth="yes"/>
      <point x="151,654" y="759,438"/>
      <point x="125,75" y="785,342"/>
      <point x="125,75" y="822,04"/>
      <point x="151,66" y="848"/>
    </contour>
    <contour>
      <point x="299,033" y="848"/>
      <point x="325" y="822,034"/>
      <point x="325" y="803,688" type="qcurve" smooth="yes"/>
      <point x="325" y="799,214"/>
      <point x="324,125" y="794,875" type="qcurve" smooth="yes"/>
      <point x="321,035" y="779,571"/>
      <point x="296,644" y="759,438"/>
      <point x="280,688" y="759,438" type="qcurve" smooth="yes"/>
      <point x="262,342" y="759,438"/>
      <point x="236,438" y="785,342"/>
      <point x="236,438" y="822,04"/>
      <point x="262,348" y="848"/>
    </contour>
    <contour>
      <point x="180" y="694" type="line" smooth="yes"/>
      <point x="180" y="699"/>
      <point x="185" y="699" type="qcurve" smooth="yes"/>
      <point x="262" y="699" type="line" smooth="yes"/>
      <point x="267" y="699"/>
      <point x="267" y="694" type="qcurve" smooth="yes"/>
      <point x="267" y="5" type="line" smooth="yes"/>
      <point x="267" y="0"/>
      <point x="262" y="0" type="qcurve" smooth="yes"/>
      <point x="185" y="0" type="line" smooth="yes"/>
      <point x="180" y="0"/>
      <point x="180" y="5" type="qcurve" smooth="yes"/>
    </contour>
  </outline>
</glyph>
<glyph name="Ocircumflex" format="1">
  <advance width="450"/>
  <unicode hex="00D4"/>
  <outline>
    <contour>
      <point x="180,527" y="848" type="line"/>
      <point x="269,09" y="848" type="line"/>
      <point x="357,715" y="715,125" type="line"/>
      <point x="291,215" y="715,125" type="line"/>
      <point x="224,84" y="794,875" type="line"/>
      <point x="158,402" y="715,125" type="line"/>
      <point x="91,9648" y="715,125" type="line"/>
    </contour>
    <contour>
      <point x="297" y="699"/>
      <point x="400" y="597"/>
      <point x="400" y="525" type="qcurve" smooth="yes"/>
      <point x="400" y="175" type="line" smooth="yes"/>
      <point x="400" y="102"/>
      <point x="297" y="0"/>
      <point x="153" y="0"/>
      <point x="50" y="102"/>
      <point x="50" y="175" type="qcurve" smooth="yes"/>
      <point x="50" y="525" type="line" smooth="yes"/>
      <point x="50" y="597"/>
      <point x="153" y="699"/>
    </contour>
    <contour>
      <point x="189" y="612"/>
      <point x="138" y="561"/>
      <point x="138" y="525" type="qcurve" smooth="yes"/>
      <point x="138" y="175" type="line" smooth="yes"/>
      <point x="138" y="139"/>
      <point x="189" y="87"/>
      <point x="261" y="87"/>
      <point x="312" y="139"/>
      <point x="312" y="175" type="qcurve" smooth="yes"/>
      <point x="312" y="525" type="line" smooth="yes"/>
      <point x="312" y="561"/>
      <point x="261" y="612"/>
    </contour>
    <contour>
      <point x="180,527" y="848" type="line"/>
      <point x="269,09" y="848" type="line"/>
      <point x="357,715" y="715,125" type="line"/>
      <point x="291,215" y="715,125" type="line"/>
      <point x="224,84" y="794,875" type="line"/>
      <point x="158,402" y="715,125" type="line"/>
      <point x="91,9648" y="715,125" type="line"/>
    </contour>
  </outline>
</glyph>
<glyph name="Otilde" format="1">
  <advance width="450"/>
  <unicode hex="00D5"/>
  <outline>
    <contour>
      <point x="297" y="699"/>
      <point x="400" y="597"/>
      <point x="400" y="525" type="qcurve" smooth="yes"/>
      <point x="400" y="175" type="line" smooth="yes"/>
      <point x="400" y="102"/>
      <point x="297" y="0"/>
      <point x="153" y="0"/>
      <point x="50" y="102"/>
      <point x="50" y="175" type="qcurve" smooth="yes"/>
      <point x="50" y="525" type="line" smooth="yes"/>
      <point x="50" y="597"/>
      <point x="153" y="699"/>
    </contour>
    <contour>
      <point x="189" y="612"/>
      <point x="138" y="561"/>
      <point x="138" y="525" type="qcurve" smooth="yes"/>
      <point x="138" y="175" type="line" smooth="yes"/>
      <point x="138" y="139"/>
      <point x="189" y="87"/>
      <point x="261" y="87"/>
      <point x="312" y="139"/>
      <point x="312" y="175" type="qcurve" smooth="yes"/>
      <point x="312" y="525" type="line" smooth="yes"/>
      <point x="312" y="561"/>
      <point x="261" y="612"/>
    </contour>
  </outline>
</glyph>
<glyph name="Odieresis" format="1">
  <advance width="450"/>
  <unicode hex="00D6"/>
  <outline>
    <contour>
      <point x="188,346" y="848"/>
      <point x="214,312" y="822,034"/>
      <point x="214,312" y="803,688" type="qcurve" smooth="yes"/>
      <point x="214,312" y="799,214"/>
      <point x="213,438" y="794,875" type="qcurve" smooth="yes"/>
      <point x="210,348" y="779,571"/>
      <point x="185,956" y="759,438"/>
      <point x="170" y="759,438" type="qcurve" smooth="yes"/>
      <point x="151,654" y="759,438"/>
      <point x="125,75" y="785,342"/>
      <point x="125,75" y="822,04"/>
      <point x="151,66" y="848"/>
    </contour>
    <contour>
      <point x="299,033" y="848"/>
      <point x="325" y="822,034"/>
      <point x="325" y="803,688" type="qcurve" smooth="yes"/>
      <point x="325" y="799,214"/>
      <point x="324,125" y="794,875" type="qcurve" smooth="yes"/>
      <point x="321,035" y="779,571"/>
      <point x="296,644" y="759,438"/>
      <point x="280,688" y="759,438" type="qcurve" smooth="yes"/>
      <point x="262,342" y="759,438"/>
      <point x="236,438" y="785,342"/>
      <point x="236,438" y="822,04"/>
      <point x="262,348" y="848"/>
    </contour>
    <contour>
      <point x="297" y="699"/>
      <point x="400" y="597"/>
      <point x="400" y="525" type="qcurve" smooth="yes"/>
      <point x="400" y="175" type="line" smooth="yes"/>
      <point x="400" y="102"/>
      <point x="297" y="0"/>
      <point x="153" y="0"/>
      <point x="50" y="102"/>
      <point x="50" y="175" type="qcurve" smooth="yes"/>
      <point x="50" y="525" type="line" smooth="yes"/>
      <point x="50" y="597"/>
      <point x="153" y="699"/>
    </contour>
    <contour>
      <point x="189" y="612"/>
      <point x="138" y="561"/>
      <point x="138" y="525" type="qcurve" smooth="yes"/>
      <point x="138" y="175" type="line" smooth="yes"/>
      <point x="138" y="139"/>
      <point x="189" y="87"/>
      <point x="261" y="87"/>
      <point x="312" y="139"/>
      <point x="312" y="175" type="qcurve" smooth="yes"/>
      <point x="312" y="525" type="line" smooth="yes"/>
      <point x="312" y="561"/>
      <point x="261" y="612"/>
    </contour>
  </outline>
</glyph>
<glyph name="Ugrave" format="1">
  <advance width="450"/>
  <unicode hex="00D9"/>
  <outline>
    <contour>
      <point x="143,5" y="848" type="line"/>
      <point x="232" y="848" type="line"/>
      <point x="320,562" y="715,125" type="line"/>
      <point x="254,125" y="715,125" type="line"/>
    </contour>
    <contour>
      <point x="400" y="175" type="line" smooth="yes"/>
      <point x="400" y="102"/>
      <point x="297" y="0"/>
      <point x="153" y="0"/>
      <point x="50" y="102"/>
      <point x="50" y="175" type="qcurve" smooth="yes"/>
      <point x="50" y="694" type="line" smooth="yes"/>
      <point x="50" y="699"/>
      <point x="55" y="699" type="qcurve" smooth="yes"/>
      <point x="132" y="699" type="line" smooth="yes"/>
      <point x="138" y="699"/>
      <point x="138" y="694" type="qcurve" smooth="yes"/>
      <point x="138" y="175" type="line" smooth="yes"/>
      <point x="138" y="139"/>
      <point x="189" y="87"/>
      <point x="261" y="87"/>
      <point x="312" y="139"/>
      <point x="312" y="175" type="qcurve" smooth="yes"/>
      <point x="312" y="694" type="line" smooth="yes"/>
      <point x="312" y="699"/>
      <point x="318" y="699" type="qcurve" smooth="yes"/>
      <point x="395" y="699" type="line" smooth="yes"/>
      <point x="400" y="699"/>
      <point x="400" y="694" type="qcurve" smooth="yes"/>
    </contour>
  </outline>
</glyph>
<glyph name="Uacute" format="1">
  <advance width="450"/>
  <unicode hex="00DA"/>
  <outline>
    <contour>
      <point x="233,5" y="848" type="line"/>
      <point x="322" y="848" type="line"/>
      <point x="211,375" y="715,125" type="line"/>
      <point x="144,875" y="715,125" type="line"/>
    </contour>
    <contour>
      <point x="400" y="175" type="line" smooth="yes"/>
      <point x="400" y="102"/>
      <point x="297" y="0"/>
      <point x="153" y="0"/>
      <point x="50" y="102"/>
      <point x="50" y="175" type="qcurve" smooth="yes"/>
      <point x="50" y="694" type="line" smooth="yes"/>
      <point x="50" y="699"/>
      <point x="55" y="699" type="qcurve" smooth="yes"/>
      <point x="132" y="699" type="line" smooth="yes"/>
      <point x="138" y="699"/>
      <point x="138" y="694" type="qcurve" smooth="yes"/>
      <point x="138" y="175" type="line" smooth="yes"/>
      <point x="138" y="139"/>
      <point x="189" y="87"/>
      <point x="261" y="87"/>
      <point x="312" y="139"/>
      <point x="312" y="175" type="qcurve" smooth="yes"/>
      <point x="312" y="694" type="line" smooth="yes"/>
      <point x="312" y="699"/>
      <point x="318" y="699" type="qcurve" smooth="yes"/>
      <point x="395" y="699" type="line" smooth="yes"/>
      <point x="400" y="699"/>
      <point x="400" y="694" type="qcurve" smooth="yes"/>
    </contour>
  </outline>
</glyph>
<glyph name="germandbls" format="1">
  <advance width="450"/>
  <unicode hex="00DF"/>
  <outline>
    <contour>
      <point x="267,565" y="708,656"/>
      <point x="358,562" y="617,676"/>
      <point x="358,562" y="553,369" type="qcurve" smooth="yes"/>
      <point x="358,562" y="553,244" type="line" smooth="yes"/>
      <point x="358,562" y="498,648"/>
      <point x="324,312" y="456,057" type="qcurve"/>
      <point x="401,999" y="403,27"/>
      <point x="401,999" y="309,432" type="qcurve" smooth="yes"/>
      <point x="401,999" y="177,248" type="line" smooth="yes"/>
      <point x="401,999" y="103,842"/>
      <point x="298,327" y="0,0869141"/>
      <point x="224,999" y="0,0605469" type="qcurve" smooth="yes"/>
      <point x="180,874" y="0,0605469" type="line"/>
      <point x="180,874" y="88,623" type="line"/>
      <point x="224,999" y="88,623" type="line" smooth="yes"/>
      <point x="261,669" y="88,623"/>
      <point x="313,538" y="140,508"/>
      <point x="313,562" y="177,186" type="qcurve" smooth="yes"/>
      <point x="313,562" y="309,432" type="line" smooth="yes"/>
      <point x="313,538" y="346,109"/>
      <point x="261,669" y="397,994"/>
      <point x="224,999" y="397,994" type="qcurve" smooth="yes"/>
      <point x="180,874" y="397,994" type="line"/>
      <point x="180,874" y="486,494" type="line"/>
      <point x="203,249" y="486,494" type="line" smooth="yes"/>
      <point x="230,876" y="486,52"/>
      <point x="269,937" y="525,613"/>
      <point x="269,937" y="553,244" type="qcurve" smooth="yes"/>
      <point x="269,937" y="553,369" type="line" smooth="yes"/>
      <point x="269,937" y="581"/>
      <point x="230,876" y="620,094"/>
      <point x="175,622" y="620,094"/>
      <point x="136,562" y="581"/>
      <point x="136,562" y="553,369" type="qcurve" smooth="yes"/>
      <point x="136,562" y="-0,00195312" type="line"/>
      <point x="47,999" y="-0,00195312" type="line"/>
      <point x="47,999" y="553,307" type="line" smooth="yes"/>
      <point x="47,999" y="617,682"/>
      <point x="138,94" y="708,656"/>
    </contour>
  </outline>
</glyph>
<glyph name="agrave" format="1">
  <advance width="492"/>
  <unicode hex="00E0"/>
  <outline>
    <contour>
      <point x="219,81" y="531,502" type="qcurve" smooth="yes"/>
      <point x="245,997" y="531,5" type="line" smooth="yes"/>
      <point x="310,179" y="531,451"/>
      <point x="400,935" y="440,664"/>
      <point x="400,935" y="376,5" type="qcurve" smooth="yes"/>
      <point x="400,935" y="354,188" type="line" smooth="yes"/>
      <point x="400,997" y="353,771"/>
      <point x="400,969" y="353,011" type="qcurve" smooth="yes"/>
      <point x="400,935" y="132,875" type="line" smooth="yes"/>
      <point x="400,935" y="114,529"/>
      <point x="426,838" y="88,625"/>
      <point x="445,185" y="88,625" type="qcurve"/>
      <point x="445,185" y="0" type="line"/>
      <point x="389,229" y="0"/>
      <point x="350,06" y="40,1875" type="qcurve"/>
      <point x="305,799" y="0"/>
      <point x="245,997" y="0" type="qcurve" smooth="yes"/>
      <point x="201,685" y="0" type="line" smooth="yes"/>
      <point x="137,509" y="0"/>
      <point x="46,7471" y="90,8125"/>
      <point x="46,7471" y="219,183"/>
      <point x="137,502" y="309,938"/>
      <point x="201,685" y="309,938" type="qcurve" smooth="yes"/>
      <point x="268,122" y="309,938" type="line" smooth="yes"/>
      <point x="286,468" y="309,938"/>
      <point x="312,372" y="335,842"/>
      <point x="312,372" y="354,188" type="qcurve" smooth="yes"/>
      <point x="312,372" y="376,5" type="line" smooth="yes"/>
      <point x="312,372" y="403,993"/>
      <point x="273,47" y="442,913"/>
      <point x="245,997" y="442,938" type="qcurve" smooth="yes"/>
      <point x="223,747" y="442,938" type="line" smooth="yes"/>
      <point x="196,266" y="442,938"/>
      <point x="157,435" y="404,107"/>
      <point x="157,435" y="376,625" type="qcurve" smooth="yes"/>
      <point x="157,435" y="354,377" type="line"/>
      <point x="68,8096" y="354,377" type="line"/>
      <point x="68,8096" y="376,564" type="line" smooth="yes"/>
      <point x="68,8096" y="439,667"/>
      <point x="156,935" y="529,91"/>
    </contour>
    <contour>
      <point x="312,372" y="228,877" type="line"/>
      <point x="290,965" y="221,314"/>
      <point x="268,122" y="221,314" type="qcurve" smooth="yes"/>
      <point x="201,685" y="221,314" type="line" smooth="yes"/>
      <point x="174,146" y="221,314"/>
      <point x="135,31" y="182,427"/>
      <point x="135,31" y="127,458"/>
      <point x="174,141" y="88,627"/>
      <point x="201,622" y="88,627" type="qcurve" smooth="yes"/>
      <point x="246,06" y="88,627" type="line" smooth="yes"/>
      <point x="273,54" y="88,627"/>
      <point x="312,372" y="127,458"/>
      <point x="312,372" y="154,939" type="qcurve" smooth="yes"/>
    </contour>
    <contour>
      <point x="136,312" y="708,688" type="line"/>
      <point x="224,875" y="708,688" type="line"/>
      <point x="313,438" y="575,812" type="line"/>
      <point x="247" y="575,812" type="line"/>
    </contour>
  </outline>
</glyph>
<glyph name="adieresis" format="1">
  <advance width="492"/>
  <unicode hex="00E4"/>
  <outline>
    <contour>
      <point x="219,81" y="531,502" type="qcurve" smooth="yes"/>
      <point x="245,997" y="531,5" type="line" smooth="yes"/>
      <point x="310,179" y="531,451"/>
      <point x="400,935" y="440,664"/>
      <point x="400,935" y="376,5" type="qcurve" smooth="yes"/>
      <point x="400,935" y="354,188" type="line" smooth="yes"/>
      <point x="400,997" y="353,771"/>
      <point x="400,969" y="353,011" type="qcurve" smooth="yes"/>
      <point x="400,935" y="132,875" type="line" smooth="yes"/>
      <point x="400,935" y="114,529"/>
      <point x="426,838" y="88,625"/>
      <point x="445,185" y="88,625" type="qcurve"/>
      <point x="445,185" y="0" type="line"/>
      <point x="389,229" y="0"/>
      <point x="350,06" y="40,1875" type="qcurve"/>
      <point x="305,799" y="0"/>
      <point x="245,997" y="0" type="qcurve" smooth="yes"/>
      <point x="201,685" y="0" type="line" smooth="yes"/>
      <point x="137,509" y="0"/>
      <point x="46,7471" y="90,8125"/>
      <point x="46,7471" y="219,183"/>
      <point x="137,502" y="309,938"/>
      <point x="201,685" y="309,938" type="qcurve" smooth="yes"/>
      <point x="268,122" y="309,938" type="line" smooth="yes"/>
      <point x="286,468" y="309,938"/>
      <point x="312,372" y="335,842"/>
      <point x="312,372" y="354,188" type="qcurve" smooth="yes"/>
      <point x="312,372" y="376,5" type="line" smooth="yes"/>
      <point x="312,372" y="403,993"/>
      <point x="273,47" y="442,913"/>
      <point x="245,997" y="442,938" type="qcurve" smooth="yes"/>
      <point x="223,747" y="442,938" type="line" smooth="yes"/>
      <point x="196,266" y="442,938"/>
      <point x="157,435" y="404,107"/>
      <point x="157,435" y="376,625" type="qcurve" smooth="yes"/>
      <point x="157,435" y="354,377" type="line"/>
      <point x="68,8096" y="354,377" type="line"/>
      <point x="68,8096" y="376,564" type="line" smooth="yes"/>
      <point x="68,8096" y="439,667"/>
      <point x="156,935" y="529,91"/>
    </contour>
    <contour>
      <point x="312,372" y="228,877" type="line"/>
      <point x="290,965" y="221,314"/>
      <point x="268,122" y="221,314" type="qcurve" smooth="yes"/>
      <point x="201,685" y="221,314" type="line" smooth="yes"/>
      <point x="174,146" y="221,314"/>
      <point x="135,31" y="182,427"/>
      <point x="135,31" y="127,458"/>
      <point x="174,141" y="88,627"/>
      <point x="201,622" y="88,627" type="qcurve" smooth="yes"/>
      <point x="246,06" y="88,627" type="line" smooth="yes"/>
      <point x="273,54" y="88,627"/>
      <point x="312,372" y="127,458"/>
      <point x="312,372" y="154,939" type="qcurve" smooth="yes"/>
    </contour>
    <contour>
      <point x="185,346" y="682,312"/>
      <point x="211,311" y="656,346"/>
      <point x="211,311" y="638" type="qcurve" smooth="yes"/>
      <point x="211,311" y="633,512"/>
      <point x="210,436" y="629,188" type="qcurve" smooth="yes"/>
      <point x="207,348" y="613,883"/>
      <point x="182,957" y="593,75"/>
      <point x="167" y="593,75" type="qcurve" smooth="yes"/>
      <point x="148,653" y="593,75"/>
      <point x="122,75" y="619,654"/>
      <point x="122,75" y="656,352"/>
      <point x="148,659" y="682,312"/>
    </contour>
    <contour>
      <point x="296,032" y="682,312"/>
      <point x="322" y="656,346"/>
      <point x="322" y="638" type="qcurve" smooth="yes"/>
      <point x="322" y="633,526"/>
      <point x="321,125" y="629,188" type="qcurve" smooth="yes"/>
      <point x="318,035" y="613,883"/>
      <point x="293,644" y="593,75"/>
      <point x="277,686" y="593,75" type="qcurve" smooth="yes"/>
      <point x="259,34" y="593,75"/>
      <point x="233,436" y="619,654"/>
      <point x="233,436" y="656,352"/>
      <point x="259,346" y="682,312"/>
    </contour>
  </outline>
</glyph>
<glyph name="ae" format="1">
  <advance width="626"/>
  <unicode hex="00E6"/>
  <outline>
    <contour>
      <point x="424,027" y="531,512" type="qcurve" smooth="yes"/>
      <point x="424,152" y="531,51" type="line" smooth="yes"/>
      <point x="488,328" y="531,46"/>
      <point x="579,027" y="440,68"/>
      <point x="579,027" y="376,51" type="qcurve" smooth="yes"/>
      <point x="579,027" y="310,072" type="line"/>
      <point x="579,027" y="287,947" type="line"/>
      <point x="579,027" y="221,51" type="line"/>
      <point x="357,715" y="221,51" type="line"/>
      <point x="357,715" y="177,197" type="line"/>
      <point x="357,777" y="177,074" type="line"/>
      <point x="357,715" y="155,074" type="line" smooth="yes"/>
      <point x="357,715" y="127,565"/>
      <point x="396,659" y="88,6367"/>
      <point x="451,64" y="88,6367"/>
      <point x="490,527" y="127,56"/>
      <point x="490,527" y="155,074" type="qcurve"/>
      <point x="579,09" y="155,074" type="line"/>
      <point x="579,09" y="90,9053"/>
      <point x="488,391" y="0,125"/>
      <point x="424,215" y="0,0742188" type="qcurve" smooth="yes"/>
      <point x="424,09" y="0,0742188" type="line" smooth="yes"/>
      <point x="353,565" y="0,126953"/>
      <point x="307,215" y="53,3242" type="qcurve"/>
      <point x="255,102" y="0,0117188"/>
      <point x="180,59" y="0,0117188" type="qcurve"/>
      <point x="180,59" y="88,6367" type="line"/>
      <point x="216,658" y="88,6367"/>
      <point x="268,19" y="138,998"/>
      <point x="269,09" y="174,949" type="qcurve" smooth="yes"/>
      <point x="269,09" y="177,074" type="line"/>
      <point x="269,152" y="177,197" type="line"/>
      <point x="269,152" y="221,51" type="line"/>
      <point x="246,965" y="221,51" type="line"/>
      <point x="209,84" y="221,51" type="line"/>
      <point x="202,715" y="221,51" type="line"/>
      <point x="180,402" y="221,447" type="line" smooth="yes"/>
      <point x="162,167" y="221,447"/>
      <point x="136,277" y="195,521"/>
      <point x="136,277" y="177,197" type="qcurve" smooth="yes"/>
      <point x="136,277" y="132,887" type="line" smooth="yes"/>
      <point x="136,277" y="114,548"/>
      <point x="162,243" y="88,6367"/>
      <point x="180,59" y="88,6367" type="qcurve"/>
      <point x="180,527" y="0,0117188" type="line"/>
      <point x="125,512" y="0,0117188"/>
      <point x="47,7148" y="77,8477"/>
      <point x="47,7148" y="132,887" type="qcurve" smooth="yes"/>
      <point x="47,7148" y="177,199" type="line" smooth="yes"/>
      <point x="47,7148" y="232,225"/>
      <point x="125,479" y="310,074"/>
      <point x="180,402" y="310,074" type="qcurve" smooth="yes"/>
      <point x="246,965" y="310,074" type="line"/>
      <point x="268,777" y="310,074" type="line"/>
      <point x="269,09" y="354,387" type="line"/>
      <point x="269,09" y="376,387" type="line" smooth="yes"/>
      <point x="269,039" y="403,979"/>
      <point x="230,11" y="442,824"/>
      <point x="175,164" y="442,824"/>
      <point x="136,277" y="403,9"/>
      <point x="136,277" y="376,387" type="qcurve"/>
      <point x="47,7148" y="376,387" type="line"/>
      <point x="47,7148" y="440,555"/>
      <point x="138,414" y="531,336"/>
      <point x="202,59" y="531,387" type="qcurve" smooth="yes"/>
      <point x="202,715" y="531,387" type="line" smooth="yes"/>
      <point x="267,794" y="531,334"/>
      <point x="313,34" y="484,887" type="qcurve"/>
      <point x="358,928" y="531,459"/>
    </contour>
    <contour>
      <point x="396,597" y="442,947"/>
      <point x="357,652" y="404,019"/>
      <point x="357,652" y="376,51" type="qcurve" smooth="yes"/>
      <point x="357,777" y="354,51" type="line"/>
      <point x="357,652" y="354,387" type="line"/>
      <point x="357,715" y="310,074" type="line"/>
      <point x="490,465" y="310,074" type="line"/>
      <point x="490,465" y="376,512" type="line" smooth="yes"/>
      <point x="490,465" y="404,025"/>
      <point x="451,576" y="442,949"/>
    </contour>
  </outline>
</glyph>
<glyph name="ccedilla" format="1">
  <advance width="450"/>
  <unicode hex="00E7"/>
  <outline>
    <contour>
      <point x="298,113" y="525,938"/>
      <point x="401,812" y="422,198"/>
      <point x="401,812" y="348,812" type="qcurve"/>
      <point x="313,312" y="348,812" type="line"/>
      <point x="313,312" y="385,497"/>
      <point x="261,431" y="437,375"/>
      <point x="188,069" y="437,375"/>
      <point x="136,188" y="385,497"/>
      <point x="136,188" y="348,812" type="qcurve" smooth="yes"/>
      <point x="136,188" y="171,625" type="line" smooth="yes"/>
      <point x="136,188" y="134,94"/>
      <point x="188,069" y="83,0625"/>
      <point x="261,431" y="83,0625"/>
      <point x="313,312" y="134,94"/>
      <point x="313,312" y="171,625" type="qcurve" smooth="yes"/>
      <point x="401,812" y="172,562" type="line"/>
      <point x="401,812" y="110,324"/>
      <point x="326,896" y="14,9072"/>
      <point x="269" y="0" type="qcurve"/>
      <point x="269" y="-49,8125" type="line"/>
      <point x="269" y="-94,125" type="line" smooth="yes"/>
      <point x="269" y="-112,477"/>
      <point x="243,09" y="-138,438"/>
      <point x="224,75" y="-138,438" type="qcurve" smooth="yes"/>
      <point x="153,625" y="-138,438" type="line"/>
      <point x="113,125" y="-138,438" type="line"/>
      <point x="113,125" y="-49,8125" type="line"/>
      <point x="180,438" y="-49,8125" type="line"/>
      <point x="180,438" y="0" type="line"/>
      <point x="122,532" y="14,9062"/>
      <point x="47,625" y="110,32"/>
      <point x="47,625" y="171,625" type="qcurve" smooth="yes"/>
      <point x="47,625" y="348,312" type="line" smooth="yes"/>
      <point x="47,625" y="422,002"/>
      <point x="151,35" y="525,938"/>
    </contour>
  </outline>
</glyph>
<glyph name="egrave" format="1">
  <advance width="450"/>
  <unicode hex="00E8"/>
  <outline>
    <contour>
      <point x="136,34" y="708,687" type="line"/>
      <point x="224,84" y="708,687" type="line"/>
      <point x="313,402" y="575,812" type="line"/>
      <point x="246,965" y="575,812" type="line"/>
    </contour>
    <contour>
      <point x="298,203" y="531,499"/>
      <point x="401,902" y="427,761"/>
      <point x="401,902" y="354,374" type="qcurve"/>
      <point x="401,965" y="310,062" type="line"/>
      <point x="401,965" y="221,499" type="line"/>
      <point x="136,277" y="221,499" type="line"/>
      <point x="136,277" y="177,187" type="line" smooth="yes"/>
      <point x="136,277" y="140,501"/>
      <point x="188,159" y="88,624"/>
      <point x="224,84" y="88,624" type="qcurve" smooth="yes"/>
      <point x="254,148" y="88,624"/>
      <point x="300,632" y="123,101"/>
      <point x="309,277" y="150,249" type="qcurve"/>
      <point x="389,59" y="112,062" type="line"/>
      <point x="369,867" y="62,1104"/>
      <point x="280,221" y="-0,000976562"/>
      <point x="224,84" y="-0,000976562" type="qcurve" smooth="yes"/>
      <point x="151,477" y="-0,000976562"/>
      <point x="47,7148" y="103,802"/>
      <point x="47,7148" y="177,187" type="qcurve" smooth="yes"/>
      <point x="47,7148" y="353,874" type="line" smooth="yes"/>
      <point x="47,7148" y="427,563"/>
      <point x="151,439" y="531,499"/>
    </contour>
    <contour>
      <point x="188,159" y="442,937"/>
      <point x="136,277" y="391,06"/>
      <point x="136,277" y="354,374" type="qcurve" smooth="yes"/>
      <point x="136,277" y="310,062" type="line"/>
      <point x="313,402" y="310,062" type="line"/>
      <point x="313,402" y="354,374" type="line" smooth="yes"/>
      <point x="313,402" y="391,06"/>
      <point x="261,521" y="442,937"/>
    </contour>
  </outline>
</glyph>
<glyph name="eacute" format="1">
  <advance width="450"/>
  <unicode hex="00E9"/>
  <outline>
    <contour>
      <point x="224,902" y="708,688" type="line"/>
      <point x="313,402" y="708,688" type="line"/>
      <point x="202,777" y="575,812" type="line"/>
      <point x="136,277" y="575,812" type="line"/>
    </contour>
    <contour>
      <point x="298,203" y="531,5"/>
      <point x="401,902" y="427,76"/>
      <point x="401,902" y="354,375" type="qcurve"/>
      <point x="401,965" y="310,062" type="line"/>
      <point x="401,965" y="221,5" type="line"/>
      <point x="136,277" y="221,5" type="line"/>
      <point x="136,277" y="177,188" type="line" smooth="yes"/>
      <point x="136,277" y="140,501"/>
      <point x="188,159" y="88,625"/>
      <point x="224,84" y="88,625" type="qcurve" smooth="yes"/>
      <point x="254,148" y="88,625"/>
      <point x="300,632" y="123,102"/>
      <point x="309,277" y="150,25" type="qcurve"/>
      <point x="389,59" y="112,062" type="line"/>
      <point x="369,867" y="62,1104"/>
      <point x="280,221" y="0"/>
      <point x="224,84" y="0" type="qcurve" smooth="yes"/>
      <point x="151,477" y="0"/>
      <point x="47,7148" y="103,802"/>
      <point x="47,7148" y="177,188" type="qcurve" smooth="yes"/>
      <point x="47,7148" y="353,875" type="line" smooth="yes"/>
      <point x="47,7148" y="427,564"/>
      <point x="151,439" y="531,5"/>
    </contour>
    <contour>
      <point x="188,159" y="442,938"/>
      <point x="136,277" y="391,06"/>
      <point x="136,277" y="354,375" type="qcurve" smooth="yes"/>
      <point x="136,277" y="310,062" type="line"/>
      <point x="313,402" y="310,062" type="line"/>
      <point x="313,402" y="354,375" type="line" smooth="yes"/>
      <point x="313,402" y="391,06"/>
      <point x="261,521" y="442,938"/>
    </contour>
  </outline>
</glyph>
<glyph name="ecircumflex" format="1">
  <advance width="450"/>
  <unicode hex="00EA"/>
  <outline>
    <contour>
      <point x="180,527" y="708,688" type="line"/>
      <point x="269,09" y="708,688" type="line"/>
      <point x="357,715" y="575,812" type="line"/>
      <point x="291,215" y="575,812" type="line"/>
      <point x="224,84" y="655,562" type="line"/>
      <point x="158,402" y="575,812" type="line"/>
      <point x="91,9648" y="575,812" type="line"/>
    </contour>
    <contour>
      <point x="298,203" y="531,5"/>
      <point x="401,902" y="427,762"/>
      <point x="401,902" y="354,375" type="qcurve"/>
      <point x="401,965" y="310,062" type="line"/>
      <point x="401,965" y="221,5" type="line"/>
      <point x="136,277" y="221,5" type="line"/>
      <point x="136,277" y="177,188" type="line" smooth="yes"/>
      <point x="136,277" y="140,504"/>
      <point x="188,159" y="88,625"/>
      <point x="224,84" y="88,625" type="qcurve" smooth="yes"/>
      <point x="254,148" y="88,625"/>
      <point x="300,632" y="123,102"/>
      <point x="309,277" y="150,25" type="qcurve"/>
      <point x="389,59" y="112,062" type="line"/>
      <point x="369,867" y="62,1113"/>
      <point x="280,221" y="0"/>
      <point x="224,84" y="0" type="qcurve" smooth="yes"/>
      <point x="151,477" y="0"/>
      <point x="47,7148" y="103,803"/>
      <point x="47,7148" y="177,188" type="qcurve" smooth="yes"/>
      <point x="47,7148" y="353,875" type="line" smooth="yes"/>
      <point x="47,7148" y="427,564"/>
      <point x="151,439" y="531,5"/>
    </contour>
    <contour>
      <point x="188,159" y="442,938"/>
      <point x="136,277" y="391,061"/>
      <point x="136,277" y="354,375" type="qcurve" smooth="yes"/>
      <point x="136,277" y="310,062" type="line"/>
      <point x="313,402" y="310,062" type="line"/>
      <point x="313,402" y="354,375" type="line" smooth="yes"/>
      <point x="313,402" y="391,061"/>
      <point x="261,521" y="442,938"/>
    </contour>
  </outline>
</glyph>
<glyph name="edieresis" format="1">
  <advance width="450"/>
  <unicode hex="00EB"/>
  <outline>
    <contour>
      <point x="185,346" y="682,312"/>
      <point x="211,311" y="656,346"/>
      <point x="211,311" y="638" type="qcurve" smooth="yes"/>
      <point x="211,311" y="633,512"/>
      <point x="210,436" y="629,188" type="qcurve" smooth="yes"/>
      <point x="207,348" y="613,883"/>
      <point x="182,957" y="593,75"/>
      <point x="167" y="593,75" type="qcurve" smooth="yes"/>
      <point x="148,653" y="593,75"/>
      <point x="122,75" y="619,654"/>
      <point x="122,75" y="656,352"/>
      <point x="148,659" y="682,312"/>
    </contour>
    <contour>
      <point x="296,032" y="682,312"/>
      <point x="322" y="656,346"/>
      <point x="322" y="638" type="qcurve" smooth="yes"/>
      <point x="322" y="633,526"/>
      <point x="321,125" y="629,188" type="qcurve" smooth="yes"/>
      <point x="318,035" y="613,883"/>
      <point x="293,644" y="593,75"/>
      <point x="277,686" y="593,75" type="qcurve" smooth="yes"/>
      <point x="259,34" y="593,75"/>
      <point x="233,436" y="619,654"/>
      <point x="233,436" y="656,352"/>
      <point x="259,346" y="682,312"/>
    </contour>
    <contour>
      <point x="298,203" y="531,5"/>
      <point x="401,902" y="427,761"/>
      <point x="401,902" y="354,375" type="qcurve"/>
      <point x="401,965" y="310,062" type="line"/>
      <point x="401,965" y="221,5" type="line"/>
      <point x="136,277" y="221,5" type="line"/>
      <point x="136,277" y="177,188" type="line" smooth="yes"/>
      <point x="136,277" y="140,501"/>
      <point x="188,159" y="88,625"/>
      <point x="224,84" y="88,625" type="qcurve" smooth="yes"/>
      <point x="254,148" y="88,625"/>
      <point x="300,632" y="123,102"/>
      <point x="309,277" y="150,25" type="qcurve"/>
      <point x="389,59" y="112,062" type="line"/>
      <point x="369,867" y="62,1104"/>
      <point x="280,221" y="0"/>
      <point x="224,84" y="0" type="qcurve" smooth="yes"/>
      <point x="151,477" y="0"/>
      <point x="47,7148" y="103,802"/>
      <point x="47,7148" y="177,188" type="qcurve" smooth="yes"/>
      <point x="47,7148" y="353,875" type="line" smooth="yes"/>
      <point x="47,7148" y="427,564"/>
      <point x="151,439" y="531,5"/>
    </contour>
    <contour>
      <point x="188,159" y="442,938"/>
      <point x="136,277" y="391,06"/>
      <point x="136,277" y="354,375" type="qcurve" smooth="yes"/>
      <point x="136,277" y="310,062" type="line"/>
      <point x="313,402" y="310,062" type="line"/>
      <point x="313,402" y="354,375" type="line" smooth="yes"/>
      <point x="313,402" y="391,06"/>
      <point x="261,521" y="442,938"/>
    </contour>
  </outline>
</glyph>
<glyph name="igrave" format="1">
  <advance width="261"/>
  <unicode hex="00EC"/>
  <outline>
    <contour>
      <point x="26,3115" y="708,688" type="line"/>
      <point x="114,875" y="708,688" type="line"/>
      <point x="203,438" y="575,812" type="line"/>
      <point x="137" y="575,812" type="line"/>
    </contour>
    <contour>
      <point x="64,125" y="531,5" type="line"/>
      <point x="152,688" y="531,5" type="line"/>
      <point x="152,688" y="132,875" type="line" smooth="yes"/>
      <point x="152,688" y="114,544"/>
      <point x="178,606" y="88,625"/>
      <point x="196,938" y="88,625" type="qcurve" smooth="yes"/>
      <point x="197" y="0" type="line"/>
      <point x="141,92" y="0"/>
      <point x="64,125" y="77,8467"/>
      <point x="64,125" y="132,875" type="qcurve" smooth="yes"/>
    </contour>
  </outline>
</glyph>
